<?xml version="1.0" encoding="UTF-8"?>
<svg version="1.1" xmlns="http://www.w3.org/2000/svg" width="690" height="362">
<path d="M0 0 C1.70736328 0.56074219 1.70736328 0.56074219 3.44921875 1.1328125 C29.90854276 10.58928096 52.61418337 29.67717072 64.99853516 55.04541016 C70.25882542 66.36788003 70.25882542 66.36788003 71.9140625 72.24609375 C73.22844524 75.57933055 74.58005102 76.60136447 77.5 78.625 C92.30485785 89.93130355 102.22298068 107.60103025 105 126 C106.57588181 148.86225495 103.78437934 167.96175524 89.296875 186.34375 C88.12442683 187.84109344 87.05490387 189.41764419 86 191 C85.34 191 84.68 191 84 191 C83.78859375 191.56074219 83.5771875 192.12148438 83.359375 192.69921875 C81.53935242 195.77965926 79.05962108 197.68529789 76.25 199.8125 C75.67362793 200.24900879 75.09725586 200.68551758 74.50341797 201.13525391 C59.67541618 212.03902082 43.64006586 216.64148199 25.3605957 216.50170898 C23.96899879 216.50550596 22.57740569 216.51101722 21.18582153 216.51808167 C17.45651862 216.53187048 13.72768561 216.52098715 9.99840951 216.50437045 C6.06828853 216.49036544 2.13819062 216.49699708 -1.79194641 216.50050354 C-8.38424115 216.50319265 -14.97635245 216.48983951 -21.56860352 216.46655273 C-29.16058699 216.43991798 -36.75226476 216.43821131 -44.34427899 216.4499411 C-51.69073325 216.46076412 -59.03707831 216.4544986 -66.38352394 216.44038582 C-69.49127639 216.43466843 -72.59894779 216.43467478 -75.70670128 216.43945122 C-79.37183236 216.44426565 -83.03663362 216.43393732 -86.70170212 216.41249657 C-88.66732464 216.40438872 -90.63299065 216.41072917 -92.59861755 216.41769409 C-114.32867886 216.23804416 -132.65649093 207.06174179 -148 192 C-149.04994141 190.98679687 -149.04994141 190.98679687 -150.12109375 189.953125 C-164.53710062 175.00319195 -169.49987852 154.88405077 -169.21484375 134.64453125 C-168.59315777 115.82018856 -159.7868275 95.91715749 -146 83 C-144.48408808 82.0339007 -142.96316316 81.07562543 -141.4375 80.125 C-135.98199708 76.11744734 -134.65406031 70.57840597 -132.59130859 64.4050293 C-123.8336683 38.31088715 -102.95788338 18.22690517 -78.96533203 5.71826172 C-55.06727853 -6.06608562 -25.33704244 -8.54810914 0 0 Z M-74 62 C-73.11774565 64.34346174 -73.11774565 64.34346174 -70.04296875 65.04296875 C-68.75841653 65.42650804 -67.4732137 65.80787248 -66.1875 66.1875 C-52.27419822 70.59128186 -38.59906066 78.96131508 -30 91 C-29.67 91.99 -29.34 92.98 -29 94 C-29.59448944 94.26884506 -30.18897888 94.53769012 -30.80148315 94.81468201 C-33.00803906 96.00433422 -34.42465345 97.18825609 -36.17626953 98.96508789 C-36.77013458 99.5623317 -37.36399963 100.1595755 -37.9758606 100.7749176 C-38.60515472 101.41767136 -39.23444885 102.06042511 -39.8828125 102.72265625 C-40.53829071 103.38333603 -41.19376892 104.04401581 -41.86911011 104.72471619 C-43.95921627 106.83261426 -46.04250562 108.94708366 -48.125 111.0625 C-50.2154984 113.1805997 -52.30743041 115.29723182 -54.40231323 117.41099548 C-55.70498383 118.72594066 -57.00497219 120.04354942 -58.30203247 121.36402893 C-58.8895932 121.95812057 -59.47715393 122.55221222 -60.08251953 123.16430664 C-60.59896027 123.6890004 -61.115401 124.21369415 -61.64749146 124.75428772 C-63 126 -63 126 -65 127 C-65.2784375 125.9790625 -65.2784375 125.9790625 -65.5625 124.9375 C-68.95774997 117.99938049 -74.91901871 113.74199701 -82 111 C-88.71015112 108.98695466 -96.50194263 109.35779379 -103 112 C-110.26786754 116.29215574 -116.87949808 122.52175754 -119.52734375 130.703125 C-121.24921555 139.0705681 -120.59883138 146.73655161 -116 154 C-109.91164611 162.4543726 -104.15630816 165.85152723 -94.01754761 167.59634399 C-89.21260338 168.23909925 -84.47006083 168.26507342 -79.62890625 168.23046875 C-78.5408519 168.23059967 -77.45279755 168.23073059 -76.33177185 168.23086548 C-72.74188632 168.22768071 -69.15232143 168.20873541 -65.5625 168.1875 C-63.0305995 168.17719384 -60.49869844 168.16702422 -57.96679688 168.15698242 C-52.54174621 168.13206446 -47.11685165 168.09765676 -41.69189453 168.05761719 C-35.72411479 168.0136711 -29.75649698 167.98765144 -23.78857422 167.97363281 C-16.79750547 167.95688413 -9.80682253 167.92088103 -2.81596851 167.86309147 C0.95298847 167.83224597 4.72160235 167.80901525 8.49069214 167.80526733 C12.05651455 167.80105748 15.62138191 167.77269383 19.186903 167.72675705 C21.11812664 167.70771527 23.04954216 167.71285853 24.98085022 167.71890259 C34.13418082 167.56606412 40.70624325 165.53042222 47.8125 159.6875 C53.74378185 152.40049658 57.43158465 145.70724785 56.9375 136.125 C55.85568734 128.030057 52.00541224 120.99819127 46.01953125 115.46875 C40.38776616 111.37292084 33.85453938 109.5960469 27 109 C27.03480469 108.20078125 27.06960938 107.4015625 27.10546875 106.578125 C27.48778481 91.0670164 23.0510072 78.45087792 14 66 C13.59523438 65.40445313 13.19046875 64.80890625 12.7734375 64.1953125 C5.03503494 53.89326738 -9.49870421 46.91382197 -22 45 C-42.65474559 43.57315131 -58.65027689 47.50780332 -74 62 Z " fill="#4286F3" transform="translate(377,75)"/>
<path d="M0 0 C1.70736328 0.56074219 1.70736328 0.56074219 3.44921875 1.1328125 C15.82763208 5.55681348 28.31129491 11.9627768 38 21 C38.828125 23.26953125 38.828125 23.26953125 39 25 C38.01 25.33 37.02 25.66 36 26 C35.731875 26.5775 35.46375 27.155 35.1875 27.75 C33.48173389 30.9819779 30.81205507 32.71520525 28 35 C27.34 35.99 26.68 36.98 26 38 C25.34 38 24.68 38 24 38 C23.773125 38.556875 23.54625 39.11375 23.3125 39.6875 C20.61152426 44.44636201 16.25633016 47.67798622 12 51 C11.51402344 51.46019531 11.02804687 51.92039063 10.52734375 52.39453125 C9 53.8125 9 53.8125 6 56 C1.95237846 55.6818759 -1.0940167 54.03801252 -4.625 52.125 C-18.73232898 45.02009824 -34.26954849 43.6141225 -49.625 47.625 C-58.76022305 50.67365258 -65.93944336 55.5534048 -73 62 C-70.06238745 63.57162271 -67.04560525 64.7472284 -63.92407227 65.90209961 C-50.39911932 70.98361029 -37.60192415 79.17235429 -29 91 C-29 94 -29 94 -30.27978516 95.35180664 C-30.90159668 95.84543701 -31.5234082 96.33906738 -32.1640625 96.84765625 C-36.12599426 100.16614515 -39.77327908 103.69547865 -43.3984375 107.37109375 C-43.96355042 107.94195709 -44.52866333 108.51282043 -45.11090088 109.10098267 C-47.47163574 111.48847335 -49.82791732 113.88028068 -52.18017578 116.27612305 C-53.91529364 118.04125453 -55.65642841 119.80026685 -57.3984375 121.55859375 C-57.93173676 122.10535263 -58.46503601 122.65211151 -59.01449585 123.21543884 C-60.30552223 124.51528518 -61.64844033 125.76321543 -63 127 C-63.66 127 -64.32 127 -65 127 C-66.2265625 125.4609375 -66.2265625 125.4609375 -67.625 123.375 C-72.12195642 117.21897228 -77.37190259 112.70225302 -85 111.2421875 C-93.03723406 110.26892869 -100.35272602 110.88698322 -107.125 115.625 C-112.70967159 120.13231369 -117.61890003 125.81828017 -119 133 C-119.83568263 142.10110618 -118.81469149 148.87539125 -113.31640625 156.26171875 C-110.46163713 159.68130241 -108.12950027 162.19787159 -104 164 C-104.33 165.32 -104.66 166.64 -105 168 C-105.66 168 -106.32 168 -107 168 C-107.24878906 168.5878125 -107.49757813 169.175625 -107.75390625 169.78125 C-109.17403805 172.30988593 -110.70130218 173.66773363 -112.9375 175.5 C-115.09121129 177.27127657 -116.85291031 178.79321609 -118.47265625 181.0703125 C-120.27493716 183.34736306 -121.88770764 184.14722259 -124.5 185.375 C-128.75403715 187.60854132 -130.17350214 189.48182109 -132 194 C-133.29355827 195.37195574 -134.62298702 196.71182656 -136 198 C-136.66 198.99 -137.32 199.98 -138 201 C-154.79036115 186.4460599 -166.40764587 170.70126938 -169 148 C-170.37856826 125.72168939 -164.85280728 104.46266162 -150.125 87.1875 C-147.43203331 84.23409166 -144.81361092 82.2286209 -141.4375 80.125 C-135.98199708 76.11744734 -134.65406031 70.57840597 -132.59130859 64.4050293 C-123.8336683 38.31088715 -102.95788338 18.22690517 -78.96533203 5.71826172 C-55.06727853 -6.06608562 -25.33704244 -8.54810914 0 0 Z " fill="#F9BC06" transform="translate(377,75)"/>
<path d="M0 0 C1.70736328 0.56074219 1.70736328 0.56074219 3.44921875 1.1328125 C15.82763208 5.55681348 28.31129491 11.9627768 38 21 C38.828125 23.26953125 38.828125 23.26953125 39 25 C38.01 25.33 37.02 25.66 36 26 C35.731875 26.5775 35.46375 27.155 35.1875 27.75 C33.48173389 30.9819779 30.81205507 32.71520525 28 35 C27.34 35.99 26.68 36.98 26 38 C25.34 38 24.68 38 24 38 C23.773125 38.556875 23.54625 39.11375 23.3125 39.6875 C20.61152426 44.44636201 16.25633016 47.67798622 12 51 C11.51402344 51.46019531 11.02804687 51.92039063 10.52734375 52.39453125 C9 53.8125 9 53.8125 6 56 C1.95237846 55.6818759 -1.0940167 54.03801252 -4.625 52.125 C-18.73232898 45.02009824 -34.26954849 43.6141225 -49.625 47.625 C-56.3584663 49.87475134 -62.75025357 52.89034661 -67.92553711 57.8425293 C-72.38540683 62.03140286 -75.54136462 63.46368373 -81.703125 63.4375 C-84.22002491 63.31563396 -86.73580747 63.16873775 -89.25 63 C-106.06042186 62.29769656 -119.19290669 66.37721392 -134 74 C-134.34574368 68.43208609 -133.30266033 64.30833032 -131 59.3125 C-130.68530762 58.61624512 -130.37061523 57.91999023 -130.04638672 57.20263672 C-125.03105338 46.43856088 -118.18467367 37.54172319 -110 29 C-109.25234375 28.17757812 -108.5046875 27.35515625 -107.734375 26.5078125 C-81.11738766 -1.78375352 -36.7086603 -12.38461968 0 0 Z " fill="#E94235" transform="translate(377,75)"/>
<path d="M0 0 C0.77397629 0.13957123 1.54795258 0.27914246 2.34538269 0.42294312 C10.66653178 1.82610981 18.74661343 2.33447888 27.17578125 2.4140625 C29.11253975 2.44311172 29.11253975 2.44311172 31.08842468 2.4727478 C34.47314671 2.52341473 37.85790785 2.56338401 41.24279785 2.60089111 C44.71599436 2.64134858 48.18903988 2.69214876 51.66210938 2.7421875 C58.44134428 2.83912026 65.22047815 2.91916479 72 3 C72 18.84 72 34.68 72 51 C54.76212505 51.12032643 54.76212505 51.12032643 47.34765625 51.14648438 C42.31158831 51.16433638 37.27568582 51.18532973 32.23974609 51.22631836 C28.17429556 51.25919645 24.10902275 51.27691219 20.0434494 51.28463173 C18.50149493 51.29012469 16.95954887 51.30084923 15.4176712 51.31719017 C-2.72650504 51.50162983 -17.70659188 46.84597735 -33 37 C-32.29462253 32.57866495 -31.20025174 31.10327441 -28 28 C-27.5978125 26.7934375 -27.5978125 26.7934375 -27.1875 25.5625 C-25.18247055 21.2358575 -21.06678134 18.94481433 -16.8125 17 C-14.20557729 15.56169782 -12.82621907 13.31321083 -11 11 C-10.34 11 -9.68 11 -9 11 C-8.7525 10.4225 -8.505 9.845 -8.25 9.25 C-6.81700012 6.67060021 -5.21575324 4.93878408 -3 3 C-2.34 3 -1.68 3 -1 3 C-0.67 2.01 -0.34 1.02 0 0 Z " fill="#34A853" transform="translate(273,240)"/>
<path d="M0 0 C0.77397629 0.13957123 1.54795258 0.27914246 2.34538269 0.42294312 C10.66653178 1.82610981 18.74661343 2.33447888 27.17578125 2.4140625 C29.11253975 2.44311172 29.11253975 2.44311172 31.08842468 2.4727478 C34.47314671 2.52341473 37.85790785 2.56338401 41.24279785 2.60089111 C44.71599436 2.64134858 48.18903988 2.69214876 51.66210938 2.7421875 C58.44134428 2.83912026 65.22047815 2.91916479 72 3 C72 18.84 72 34.68 72 51 C48.57 51 25.14 51 1 51 C1 50.67 1 50.34 1 50 C23.77 50 46.54 50 70 50 C69.67 35.48 69.34 20.96 69 6 C65.22467452 5.2449349 62.45840886 4.88396475 58.70996094 4.91821289 C57.67828796 4.9247438 56.64661499 4.93127472 55.5836792 4.93800354 C54.47840881 4.94943893 53.37313843 4.96087433 52.234375 4.97265625 C49.87630357 4.98530614 47.51823057 4.99766683 45.16015625 5.00976562 C41.45616741 5.03453737 37.7522607 5.06247957 34.04833984 5.09594727 C30.46451314 5.12629438 26.88078984 5.14397113 23.296875 5.16015625 C21.65111481 5.18034569 21.65111481 5.18034569 19.97210693 5.20094299 C13.65182999 5.22139213 8.11424391 4.62217084 2 3 C2 3.99 2 4.98 2 6 C-0.31 6.33 -2.62 6.66 -5 7 C-4.34 5.68 -3.68 4.36 -3 3 C-2.34 3 -1.68 3 -1 3 C-0.67 2.01 -0.34 1.02 0 0 Z " fill="#429C6C" transform="translate(273,240)"/>
<path d="M0 0 C0.495 1.485 0.495 1.485 1 3 C-5.89377266 6.95559292 -12.93460728 6.38273272 -20.68359375 6.29296875 C-22.10848034 6.28736582 -23.53337275 6.28309902 -24.95826721 6.28010559 C-28.68855047 6.26871153 -32.41847716 6.23929225 -36.14862061 6.20599365 C-40.63489159 6.16974555 -45.12128253 6.15610564 -49.60765839 6.13863373 C-56.40535274 6.10965066 -63.20226643 6.0521269 -70 6 C-69.67 20.85 -69.34 35.7 -69 51 C-69.66 51 -70.32 51 -71 51 C-70.99555878 50.42814972 -70.99111755 49.85629944 -70.98654175 49.26712036 C-70.94239049 43.33028658 -70.91216788 37.39349922 -70.89013672 31.45654297 C-70.88006175 29.23907579 -70.86640141 27.02162195 -70.84912109 24.80419922 C-70.82493837 21.62203688 -70.81353203 18.44004976 -70.8046875 15.2578125 C-70.79436493 14.26194122 -70.78404236 13.26606995 -70.77340698 12.24002075 C-70.77325592 11.31921722 -70.77310486 10.3984137 -70.77294922 9.44970703 C-70.768508 8.6369632 -70.76406677 7.82421936 -70.75949097 6.98684692 C-70.8207888 4.76787325 -70.8207888 4.76787325 -73 3 C-71.73879082 2.98786972 -71.73879082 2.98786972 -70.45210266 2.97549438 C-62.52152766 2.89749718 -54.59112124 2.81019097 -46.66076374 2.71247292 C-42.58385421 2.66256431 -38.5069699 2.61623389 -34.42993164 2.578125 C-30.49407626 2.54120338 -26.55843475 2.49482495 -22.62276268 2.44193649 C-21.1225377 2.42342903 -19.62226693 2.40830763 -18.12197304 2.39665604 C-16.01769823 2.37973077 -13.91390933 2.3506817 -11.80981445 2.31884766 C-10.61290482 2.30552399 -9.41599518 2.29220032 -8.18281555 2.2784729 C-5.05787538 2.00506367 -2.82024239 1.33246169 0 0 Z " fill="#5BB4EE" transform="translate(417,239)"/>
<path d="M0 0 C2.06273386 0.02927434 4.1229326 0.02049629 6.18579102 0.00756836 C12.84874944 0.01895837 18.34272611 0.17108714 24.23461914 3.46655273 C26.22725505 4.15491787 28.22503251 4.82936673 30.23461914 5.46655273 C30.23461914 5.79655273 30.23461914 6.12655273 30.23461914 6.46655273 C26.8107415 6.05568742 23.68383002 5.63108175 20.43701172 4.44189453 C16.84162144 3.34685876 13.87519912 3.22343136 10.12133789 3.23608398 C9.13880791 3.23677132 9.13880791 3.23677132 8.13642883 3.23747253 C6.764111 3.24047362 5.39179591 3.24829498 4.01953125 3.26074219 C1.91076744 3.27915184 -0.19756019 3.28125053 -2.30639648 3.28100586 C-8.51102729 2.67740271 -8.51102729 2.67740271 -13.76538086 4.46655273 C-15.23712765 4.79360758 -16.71852458 5.07756425 -18.20288086 5.34155273 C-22.84889162 6.21727563 -27.25266885 7.48208718 -31.73413086 8.97827148 C-33.76538086 9.46655273 -33.76538086 9.46655273 -35.76538086 8.46655273 C-32.44929212 7.08729458 -29.11060948 5.77337037 -25.76538086 4.46655273 C-24.89727783 4.11036865 -24.0291748 3.75418457 -23.13476562 3.38720703 C-15.41095694 0.47314647 -8.17998232 -0.12672244 0 0 Z " fill="#F9A221" transform="translate(285.765380859375,136.533447265625)"/>
<path d="M0 0 C3 1 3 1 5 4 C5.680625 4.165 6.36125 4.33 7.0625 4.5 C7.701875 4.665 8.34125 4.83 9 5 C10 8 10 8 9 11 C9.66 11 10.32 11 11 11 C11.25394531 11.61488281 11.50789063 12.22976562 11.76953125 12.86328125 C12.11371094 13.67152344 12.45789063 14.47976562 12.8125 15.3125 C13.31716797 16.51326172 13.31716797 16.51326172 13.83203125 17.73828125 C14.83627494 20.02492158 14.83627494 20.02492158 16.54541016 21.3425293 C18.47753466 23.54413945 18.3952285 24.88117678 18.44140625 27.78125 C18.46783203 28.70550781 18.49425781 29.62976563 18.52148438 30.58203125 C18.53501953 31.54496094 18.54855469 32.50789063 18.5625 33.5 C18.59695343 35.40642292 18.63956863 37.31272056 18.69140625 39.21875 C18.70373291 40.06373047 18.71605957 40.90871094 18.72875977 41.77929688 C18.86602669 44.28624754 18.86602669 44.28624754 21 47 C24.55672179 48.2188121 24.55672179 48.2188121 28 49 C23.98824398 50.60470241 20.98286267 49.2176313 17 48 C16.91363281 46.79085937 16.82726562 45.58171875 16.73828125 44.3359375 C15.6050948 30.4340917 13.35984269 18.55572225 4.6484375 7.18359375 C2.90966704 4.88034093 1.44687238 2.49475874 0 0 Z " fill="#5D91E5" transform="translate(387,136)"/>
<path d="M0 0 C7.42857143 -0.28571429 7.42857143 -0.28571429 11 2 C11 2.66 11 3.32 11 4 C11.5775 4.28875 12.155 4.5775 12.75 4.875 C14.83333333 5.91666667 16.91666667 6.95833333 19 8 C19 8.99 19 9.98 19 11 C20.3303125 9.9790625 20.3303125 9.9790625 21.6875 8.9375 C25 7 25 7 27.875 7.25 C28.57625 7.4975 29.2775 7.745 30 8 C30.12375 7.360625 30.2475 6.72125 30.375 6.0625 C30.684375 5.0415625 30.684375 5.0415625 31 4 C31.66 3.67 32.32 3.34 33 3 C33.66 3.66 34.32 4.32 35 5 C33.04761147 7.00612399 31.08862178 9.00492433 29.125 11 C28.56941406 11.57234375 28.01382812 12.1446875 27.44140625 12.734375 C25.99865596 14.19450782 24.5025626 15.60149298 23 17 C22.34 17 21.68 17 21 17 C19.7734375 15.4609375 19.7734375 15.4609375 18.375 13.375 C13.53262595 6.72999036 8.06811377 2.68085704 0 1 C0 0.67 0 0.34 0 0 Z " fill="#F3BD19" transform="translate(291,185)"/>
<path d="M0 0 C0.77651413 0.13957123 1.55302826 0.27914246 2.35307312 0.42294312 C10.59936352 1.81094666 18.60393438 2.33376143 26.95703125 2.4140625 C28.22600754 2.43342865 29.49498383 2.4527948 30.80241394 2.4727478 C34.12800745 2.52191061 37.45350427 2.56337643 40.77923584 2.60089111 C44.1921111 2.64135837 47.60483058 2.69225238 51.01757812 2.7421875 C57.67828405 2.83757934 64.33905966 2.92280152 71 3 C71 3.33 71 3.66 71 4 C63.33265929 4.17781818 55.66513689 4.3437073 47.99722385 4.49477577 C44.43590116 4.56530501 40.87475685 4.63979181 37.3137207 4.72363281 C33.21064073 4.82005596 29.10738087 4.89870722 25.00390625 4.9765625 C23.73793106 5.00875885 22.47195587 5.0409552 21.1676178 5.0741272 C14.41069327 5.18765657 8.52258988 4.80209225 2 3 C2 3.99 2 4.98 2 6 C-0.31 6.33 -2.62 6.66 -5 7 C-4.34 5.68 -3.68 4.36 -3 3 C-2.34 3 -1.68 3 -1 3 C-0.67 2.01 -0.34 1.02 0 0 Z " fill="#449D60" transform="translate(273,240)"/>
<path d="M0 0 C0.66 0 1.32 0 2 0 C2.495 1.485 2.495 1.485 3 3 C-6.81719742 5.81917588 -16.0201428 6.34294517 -26.14453125 6.07421875 C-27.65050232 6.04610255 -29.15650079 6.01942137 -30.66252136 5.99409485 C-34.58035688 5.92443468 -38.49751852 5.83560357 -42.41485596 5.74243164 C-46.43063943 5.65042734 -50.44676137 5.57703144 -54.46289062 5.50195312 C-62.30903433 5.35259059 -70.15455922 5.18292317 -78 5 C-78 4.67 -78 4.34 -78 4 C-76.65029869 3.9845388 -76.65029869 3.9845388 -75.27333069 3.96876526 C-66.81179214 3.87096659 -58.3503264 3.7684778 -49.88890934 3.66066074 C-45.53835194 3.60539215 -41.18778788 3.55196601 -36.8371582 3.50268555 C-32.6420379 3.45509986 -28.44700188 3.40275942 -24.25198174 3.34705925 C-22.64795455 3.32660934 -21.04390423 3.30790071 -19.4398365 3.29092598 C-17.20077231 3.26694003 -14.96186884 3.23687806 -12.72290039 3.20532227 C-11.44604874 3.18977798 -10.16919708 3.1742337 -8.85365295 3.15821838 C-6.10148193 3.32377447 -6.10148193 3.32377447 -5 2 C-3.33382885 1.95936168 -1.66611905 1.957279 0 2 C0 1.34 0 0.68 0 0 Z " fill="#4883E5" transform="translate(426,285)"/>
<path d="M0 0 C0.66 0.33 1.32 0.66 2 1 C-1.22744578 6.8094024 -5.53120857 10.54865181 -10.625 14.75 C-11.58664063 15.54921875 -12.54828125 16.3484375 -13.5390625 17.171875 C-16 19 -16 19 -18 19 C-18.37125 19.804375 -18.37125 19.804375 -18.75 20.625 C-20.30652537 23.5823982 -22.03435673 26.29724051 -24 29 C-24.66 29 -25.32 29 -26 29 C-25.4481437 25.13700588 -23.69346579 23.69346579 -21 21 C-20.5978125 19.7934375 -20.5978125 19.7934375 -20.1875 18.5625 C-18.18247055 14.2358575 -14.06678134 11.94481433 -9.8125 10 C-7.20557729 8.56169782 -5.82621907 6.31321083 -4 4 C-3.34 4 -2.68 4 -2 4 C-1.34 2.68 -0.68 1.36 0 0 Z " fill="#CFBA1F" transform="translate(266,247)"/>
<path d="M0 0 C0 0.66 0 1.32 0 2 C3.3 2 6.6 2 10 2 C10 2.66 10 3.32 10 4 C10.99 4 11.98 4 13 4 C12.67 4.66 12.34 5.32 12 6 C10.88496094 5.67515625 9.76992188 5.3503125 8.62109375 5.015625 C3.7405222 3.8000459 -0.92909904 3.70422634 -5.9375 3.75 C-6.77990234 3.74226563 -7.62230469 3.73453125 -8.49023438 3.7265625 C-13.65617457 3.74246994 -18.21743089 4.34262178 -23.18969727 5.76660156 C-24.08579712 5.88213379 -24.08579712 5.88213379 -25 6 C-25.66 5.34 -26.32 4.68 -27 4 C-17.6647778 0.86493287 -9.87722251 -0.59066447 0 0 Z " fill="#DC5E53" transform="translate(351,117)"/>
<path d="M0 0 C0.33 0.66 0.66 1.32 1 2 C-3.63824235 7.88541418 -8.0239876 13.44684769 -14 18 C-16.64671386 20.09911789 -16.9480168 20.75898697 -17.6875 24.1875 C-17.8421875 25.5796875 -17.8421875 25.5796875 -18 27 C-21.465 25.02 -21.465 25.02 -25 23 C-22.7108921 21.14009983 -20.41818497 19.3022525 -18.02734375 17.57421875 C-14.02303212 14.67764193 -11.0308078 11.94005014 -8 8 C-6.97751362 7.10266169 -5.93455686 6.22824891 -4.875 5.375 C-1.88146585 3.13441618 -1.88146585 3.13441618 0 0 Z " fill="#567EDC" transform="translate(405,109)"/>
<path d="M0 0 C3.16115776 1.36983503 3.9927092 1.9890638 6 5 C5.01 5.495 5.01 5.495 4 6 C4 5.34 4 4.68 4 4 C1.6087705 3.7886547 1.6087705 3.7886547 -1 5 C-2.19033757 7.1941297 -3.04948008 9.43985036 -3.953125 11.765625 C-5.34676699 14.74011461 -7.26370967 16.25181451 -10 18 C-10 17.01 -10 16.02 -10 15 C-10.33 14.34 -10.66 13.68 -11 13 C-9.08785268 8.69766852 -6.11589429 6.20448088 -2.5234375 3.33203125 C-0.87027626 2.05635999 -0.87027626 2.05635999 0 0 Z " fill="#4A81EF" transform="translate(416,98)"/>
<path d="M0 0 C1.32 0.66 2.64 1.32 4 2 C3.38511719 2.76183594 3.38511719 2.76183594 2.7578125 3.5390625 C-3.19986172 11.15006258 -4.35636031 17.4809077 -5 27 C-5.66 26.67 -6.32 26.34 -7 26 C-7.20766411 20.16233123 -7.04493287 15.53334778 -5 10 C-4.55768763 7.33640462 -4.27805927 4.68790629 -4 2 C-2.68 2 -1.36 2 0 2 C0 1.34 0 0.68 0 0 Z " fill="#F3C031" transform="translate(262,192)"/>
<path d="M0 0 C0.33 0.99 0.66 1.98 1 3 C0.01 3.33 -0.98 3.66 -2 4 C-2.268125 4.5775 -2.53625 5.155 -2.8125 5.75 C-4.51826611 8.9819779 -7.18794493 10.71520525 -10 13 C-10.99 14.485 -10.99 14.485 -12 16 C-12.66 16 -13.32 16 -14 16 C-14.226875 16.556875 -14.45375 17.11375 -14.6875 17.6875 C-17.3822264 22.43535128 -21.73011611 25.70608957 -26 29 C-26.33 28.34 -26.66 27.68 -27 27 C-24.36827726 24.29087365 -21.8939363 21.91939159 -18.875 19.625 C-16.21418933 17.19556418 -15.58897203 16.45465249 -14.4375 13.3125 C-13 10 -13 10 -10.75 8.9375 C-9.8425 8.628125 -8.935 8.31875 -8 8 C-3.331036 4.58762391 -3.331036 4.58762391 0 0 Z " fill="#A45D85" transform="translate(415,97)"/>
<path d="M0 0 C2 1 2 1 2.6328125 2.84765625 C2.79523438 3.57855469 2.95765625 4.30945313 3.125 5.0625 C3.29257813 5.79597656 3.46015625 6.52945313 3.6328125 7.28515625 C3.75398437 7.85105469 3.87515625 8.41695312 4 9 C4.66 9 5.32 9 6 9 C6.18175781 9.88042969 6.36351562 10.76085937 6.55078125 11.66796875 C6.92783203 13.41013672 6.92783203 13.41013672 7.3125 15.1875 C7.55613281 16.33605469 7.79976562 17.48460937 8.05078125 18.66796875 C8.84601722 22.020787 8.84601722 22.020787 10.66796875 24.73828125 C11.10753906 25.48464844 11.54710937 26.23101562 12 27 C11.67 27.99 11.34 28.98 11 30 C0 8.94061758 0 8.94061758 0 0 Z " fill="#F3C035" transform="translate(209,226)"/>
<path d="M0 0 C1.32 0 2.64 0 4 0 C4.28875 0.969375 4.5775 1.93875 4.875 2.9375 C5.64214682 6.10664203 5.64214682 6.10664203 8 7 C9.11468948 10.77643285 9.01759521 14.16540576 8.6875 18.0625 C8.56955078 19.59583984 8.56955078 19.59583984 8.44921875 21.16015625 C8.02263515 23.85690647 7.37233001 25.66423831 6 28 C4.72568752 25.45137505 5.17469774 24.29010811 5.625 21.5 C6.51627517 13.59278956 3.79335658 6.86416904 0 0 Z " fill="#5486D9" transform="translate(427,195)"/>
<path d="M0 0 C3.75059803 0.10999608 7.50020344 0.24059869 11.25 0.375 C12.31347656 0.4059375 13.37695312 0.436875 14.47265625 0.46875 C16.00986328 0.52675781 16.00986328 0.52675781 17.578125 0.5859375 C18.52075195 0.6173584 19.46337891 0.6487793 20.43457031 0.68115234 C23 1 23 1 27 3 C17.76 3 8.52 3 -1 3 C-0.67 2.01 -0.34 1.02 0 0 Z " fill="#E44D24" transform="translate(273,134)"/>
<path d="M0 0 C4.29 0.66 8.58 1.32 13 2 C13 2.66 13 3.32 13 4 C9.37 3.67 5.74 3.34 2 3 C2 3.99 2 4.98 2 6 C-0.31 6.33 -2.62 6.66 -5 7 C-4.34 5.68 -3.68 4.36 -3 3 C-2.34 3 -1.68 3 -1 3 C-0.67 2.01 -0.34 1.02 0 0 Z " fill="#61AB59" transform="translate(273,240)"/>
<path d="M0 0 C1 3 1 3 0.25 5.5625 C-1 8 -1 8 -4 10 C-4.309375 10.680625 -4.61875 11.36125 -4.9375 12.0625 C-6 14 -6 14 -8.06640625 14.62109375 C-8.70449219 14.74613281 -9.34257812 14.87117188 -10 15 C-7.11962396 9.48438631 -4.16149223 4.63709134 0 0 Z " fill="#DE5C55" transform="translate(262,109)"/>
<path d="M0 0 C2.31 1.65 4.62 3.3 7 5 C6.67 6.32 6.34 7.64 6 9 C5.34 9 4.68 9 4 9 C3.34 10.32 2.68 11.64 2 13 C0.62437146 11.71034824 -0.70766393 10.37310707 -2 9 C-2 8.34 -2 7.68 -2 7 C0.97 7.495 0.97 7.495 4 8 C3.34 7.01 2.68 6.02 2 5 C1.30686092 3.34416775 0.63525576 1.67889021 0 0 Z " fill="#DF4444" transform="translate(408,91)"/>
<path d="M0 0 C7.04092389 1.9029524 15.07050306 5.47698504 20 11 C16.00112425 10.42873204 13.40346284 9.12716428 10 7 C8.34630643 6.30177383 6.68272986 5.62501395 5 5 C5 4.34 5 3.68 5 3 C3.02 3.99 3.02 3.99 1 5 C0.67 3.35 0.34 1.7 0 0 Z " fill="#DA564E" transform="translate(386,79)"/>
<path d="M0 0 C0.66 0.33 1.32 0.66 2 1 C-1.31225225 6.96205404 -5.79660765 10.74267899 -11 15 C-11.66 14.67 -12.32 14.34 -13 14 C-11.5484451 12.32742645 -10.08855591 10.66208242 -8.625 9 C-7.81289063 8.071875 -7.00078125 7.14375 -6.1640625 6.1875 C-5.44992187 5.465625 -4.73578125 4.74375 -4 4 C-3.34 4 -2.68 4 -2 4 C-1.34 2.68 -0.68 1.36 0 0 Z " fill="#7DAA2E" transform="translate(266,247)"/>
<path d="M0 0 C0.66 0.33 1.32 0.66 2 1 C0.1875 4 0.1875 4 -2 7 C-2.99 7 -3.98 7 -5 7 C-5.2475 7.598125 -5.495 8.19625 -5.75 8.8125 C-7.16370012 11.28647521 -8.65055383 12.43370255 -11 14 C-11.66 13.67 -12.32 13.34 -13 13 C-9.0580583 8.11950075 -4.88049925 3.9419417 0 0 Z " fill="#F0BE2B" transform="translate(238,152)"/>
<path d="M0 0 C6.68993219 0.53951066 12.63460728 1.88706171 19 4 C19 4.33 19 4.66 19 5 C14.545 5.495 14.545 5.495 10 6 C10 5.34 10 4.68 10 4 C6.7 3.34 3.4 2.68 0 2 C0 1.34 0 0.68 0 0 Z " fill="#DC594F" transform="translate(361,72)"/>
<path d="M0 0 C0.66 0.33 1.32 0.66 2 1 C2 1.66 2 2.32 2 3 C1.34 3 0.68 3 0 3 C-0.144375 3.969375 -0.28875 4.93875 -0.4375 5.9375 C-1 9 -1 9 -2 10 C-2.36760731 12.32817964 -2.70241581 14.6618385 -3 17 C-4.32 17.33 -5.64 17.66 -7 18 C-5.06375702 11.79522136 -2.74390859 5.89174281 0 0 Z " fill="#DD5A52" transform="translate(250,126)"/>
<path d="M0 0 C2.64 1.65 5.28 3.3 8 5 C7.67 6.32 7.34 7.64 7 9 C6.34 9 5.68 9 5 9 C4.34 10.32 3.68 11.64 3 13 C1.5216774 10.04335481 1.93967217 7.25770263 2 4 C1.34 3.67 0.68 3.34 0 3 C0 2.01 0 1.02 0 0 Z " fill="#E6C128" transform="translate(265,234)"/>
<path d="M0 0 C2 2 2 2 2.25 5.125 C1.97678029 9.35990544 1.14425432 12.92359399 0 17 C-0.33 17 -0.66 17 -1 17 C-1.02691685 14.54159395 -1.04679802 12.08348118 -1.0625 9.625 C-1.07087891 8.92632812 -1.07925781 8.22765625 -1.08789062 7.5078125 C-1.11328125 2.2265625 -1.11328125 2.2265625 0 0 Z " fill="#6597E8" transform="translate(480,218)"/>
<path d="M0 0 C7.42857143 -0.28571429 7.42857143 -0.28571429 11 2 C11 2.66 11 3.32 11 4 C11.5775 4.28875 12.155 4.5775 12.75 4.875 C14.83333333 5.91666667 16.91666667 6.95833333 19 8 C18.01 9.485 18.01 9.485 17 11 C16.52691406 10.52949219 16.05382812 10.05898437 15.56640625 9.57421875 C10.70908308 5.00094957 6.48119062 2.57528939 0 1 C0 0.67 0 0.34 0 0 Z " fill="#F1C33B" transform="translate(291,185)"/>
<path d="M0 0 C1.96115634 2.9417345 3.46229008 5.89097329 5 9.0625 C6.07403709 11.23163505 6.07403709 11.23163505 8 14 C5.125 13.4375 5.125 13.4375 2 12 C0.32156345 7.95649377 -0.26421427 4.35953547 0 0 Z " fill="#F3C230" transform="translate(257,220)"/>
<path d="M0 0 C2.81631641 2.49493496 4.40955981 5.26562818 6.1875 8.5625 C6.71730469 9.53316406 7.24710937 10.50382813 7.79296875 11.50390625 C9 14 9 14 9 16 C6 15 6 15 4.3125 12.125 C3 9 3 9 3 6 C2.34 6 1.68 6 1 6 C0.67 4.02 0.34 2.04 0 0 Z " fill="#6996E4" transform="translate(434,118)"/>
<path d="M0 0 C1.2380014 3.57644848 0.74926071 6.33694766 0 10 C-3.465 8.02 -3.465 8.02 -7 6 C-6.21625 5.38125 -5.4325 4.7625 -4.625 4.125 C-2.03162353 2.10141339 -2.03162353 2.10141339 0 0 Z " fill="#6F79BE" transform="translate(387,126)"/>
<path d="M0 0 C-13.16207277 6.16097023 -13.16207277 6.16097023 -20 4 C-17.42032203 3.13310822 -14.83723873 2.28126211 -12.25 1.4375 C-11.52039063 1.19064453 -10.79078125 0.94378906 -10.0390625 0.68945312 C-9.33007812 0.46064453 -8.62109375 0.23183594 -7.890625 -0.00390625 C-6.91657715 -0.32597046 -6.91657715 -0.32597046 -5.92285156 -0.65454102 C-3.66555462 -1.06008636 -2.16526518 -0.69296911 0 0 Z " fill="#D55D53" transform="translate(324,74)"/>
<path d="M0 0 C0.33 0.66 0.66 1.32 1 2 C-4.28 2.66 -9.56 3.32 -15 4 C-14.67 3.01 -14.34 2.02 -14 1 C-9.27616037 0.34843591 -4.78025483 -0.11950637 0 0 Z " fill="#F8BE27" transform="translate(289,183)"/>
<path d="M0 0 C0.33 0.66 0.66 1.32 1 2 C1.66 2 2.32 2 3 2 C3 3.32 3 4.64 3 6 C3.99 6.33 4.98 6.66 6 7 C4.625 8.5 4.625 8.5 3 10 C2.34 10 1.68 10 1 10 C0.63883954 8.5225254 0.28624952 7.04295325 -0.0625 5.5625 C-0.25972656 4.73878906 -0.45695312 3.91507812 -0.66015625 3.06640625 C-0.82837891 2.04353516 -0.82837891 2.04353516 -1 1 C-0.67 0.67 -0.34 0.34 0 0 Z " fill="#E24342" transform="translate(387,114)"/>
<path d="M0 0 C0.6875 1.6875 0.6875 1.6875 1 4 C-0.73794295 7.65882726 -3.05102279 10.25440052 -6 13 C-6.99 12.67 -7.98 12.34 -9 12 C-8.2575 11.319375 -7.515 10.63875 -6.75 9.9375 C-3.75618047 6.96926868 -1.96562715 3.71285128 0 0 Z " fill="#6692E6" transform="translate(431,224)"/>
<path d="M0 0 C0.7734375 0.433125 0.7734375 0.433125 1.5625 0.875 C4.62356725 2.28780027 7.74944918 3.1248517 11 4 C10.67 5.65 10.34 7.3 10 9 C5.82117329 6.43571997 2.87494471 3.98069267 0 0 Z " fill="#EBC032" transform="translate(230,267)"/>
<path d="M0 0 C1.66666667 1.66666667 3.33333333 3.33333333 5 5 C5.61875 5.515625 6.2375 6.03125 6.875 6.5625 C7.431875 7.2740625 7.431875 7.2740625 8 8 C7.6875 10.1875 7.6875 10.1875 7 12 C6.67 10.68 6.34 9.36 6 8 C4.68 7.67 3.36 7.34 2 7 C2 6.34 2 5.68 2 5 C1.34 4.67 0.68 4.34 0 4 C0 2.68 0 1.36 0 0 Z " fill="#6395E2" transform="translate(459,158)"/>
<path d="M0 0 C3.63559661 3.43361902 6.36113346 6.7973607 9 11 C6.75 11 6.75 11 4 10 C1.94304343 7.00985547 0 3.686098 0 0 Z " fill="#669AE5" transform="translate(424,105)"/>
<path d="M0 0 C0.66 0 1.32 0 2 0 C1.74337755 1.44010481 1.46909179 2.8770687 1.1875 4.3125 C1.03667969 5.11300781 0.88585937 5.91351563 0.73046875 6.73828125 C-0.07572236 9.23445587 -1.02052002 10.32422106 -3 12 C-3.33 10.35 -3.66 8.7 -4 7 C-3.01 6.34 -2.02 5.68 -1 5 C-0.27034634 2.43717258 -0.27034634 2.43717258 0 0 Z " fill="#6290E4" transform="translate(477,235)"/>
<path d="M0 0 C0.33 0.99 0.66 1.98 1 3 C-3.96993194 5.43425238 -7.34605369 6.34615998 -13 6 C-13 5.67 -13 5.34 -13 5 C-12.154375 4.731875 -11.30875 4.46375 -10.4375 4.1875 C-6.86145933 2.9521405 -3.46139092 1.523012 0 0 Z " fill="#5489E3" transform="translate(417,239)"/>
<path d="M0 0 C0.66 0 1.32 0 2 0 C2.33 0.99 2.66 1.98 3 3 C-1.29 3.99 -5.58 4.98 -10 6 C-10 5.34 -10 4.68 -10 4 C-6.49223216 2.39644899 -3.85645121 1.77963136 0 2 C0 1.34 0 0.68 0 0 Z " fill="#6092E4" transform="translate(426,285)"/>
<path d="M0 0 C1.32 0.33 2.64 0.66 4 1 C4 1.66 4 2.32 4 3 C4.66 3 5.32 3 6 3 C6.33 4.98 6.66 6.96 7 9 C4.03595495 6.19195732 1.55500981 3.81684226 0 0 Z " fill="#F1C331" transform="translate(221,256)"/>
<path d="M0 0 C3.57011026 3.732388 4.10913442 8.0949989 5 13 C4.34 13 3.68 13 3 13 C2.49242138 11.58603098 1.99425075 10.16868271 1.5 8.75 C1.08234375 7.56664062 1.08234375 7.56664062 0.65625 6.359375 C0 4 0 4 0 0 Z " fill="#6595DF" transform="translate(474,179)"/>
<path d="M0 0 C4.75481646 0.57634139 7.97048212 2.55068521 12 5 C8.71023192 6.09658936 7.28696233 5.79953138 4 5 C4 4.01 4 3.02 4 2 C2.68 2 1.36 2 0 2 C0 1.34 0 0.68 0 0 Z " fill="#F1C132" transform="translate(316,143)"/>
<path d="M0 0 C2.4375 0.8125 2.4375 0.8125 5 2 C5.33 2.99 5.66 3.98 6 5 C1.82412255 6.39195915 -0.13474776 4.82323219 -4 3 C-2.68 2.67 -1.36 2.34 0 2 C0 1.34 0 0.68 0 0 Z " fill="#E14C48" transform="translate(370,121)"/>
<path d="M0 0 C3.16115776 1.36983503 3.9927092 1.9890638 6 5 C5.01 5.495 5.01 5.495 4 6 C4 5.34 4 4.68 4 4 C1.69 4.33 -0.62 4.66 -3 5 C-3 3 -3 3 -1.5 1.375 C-1.005 0.92125 -0.51 0.4675 0 0 Z " fill="#5F87DE" transform="translate(416,98)"/>
<path d="M0 0 C3.63 0 7.26 0 11 0 C11 0.66 11 1.32 11 2 C10.34 2 9.68 2 9 2 C9 2.66 9 3.32 9 4 C6.03 3.01 3.06 2.02 0 1 C0 0.67 0 0.34 0 0 Z " fill="#51A66B" transform="translate(252,283)"/>
<path d="M0 0 C0 3.34419152 -0.47519394 4.06840321 -2.375 6.6875 C-2.81585938 7.31011719 -3.25671875 7.93273437 -3.7109375 8.57421875 C-4.13632813 9.04472656 -4.56171875 9.51523437 -5 10 C-5.66 10 -6.32 10 -7 10 C-6.42424336 6.64749299 -5.40693737 5.06181371 -2.9375 2.75 C-2.38964844 2.22921875 -1.84179688 1.7084375 -1.27734375 1.171875 C-0.64505859 0.59179688 -0.64505859 0.59179688 0 0 Z " fill="#83AC2D" transform="translate(247,266)"/>
<path d="M0 0 C-0.53625 0.2475 -1.0725 0.495 -1.625 0.75 C-4.56424252 2.29696975 -7.25754408 4.13014369 -10 6 C-10.66 5.34 -11.32 4.68 -12 4 C-10.56988027 3.13353333 -9.13059381 2.28218171 -7.6875 1.4375 C-6.48673828 0.72400391 -6.48673828 0.72400391 -5.26171875 -0.00390625 C-3 -1 -3 -1 0 0 Z " fill="#D85049" transform="translate(301,82)"/>
<path d="M0 0 C2.31 0.33 4.62 0.66 7 1 C7.66 2.65 8.32 4.3 9 6 C6.03 4.35 3.06 2.7 0 1 C0 0.67 0 0.34 0 0 Z " fill="#57AA6A" transform="translate(240,276)"/>
<path d="M0 0 C0.66 1.32 1.32 2.64 2 4 C1.34 4 0.68 4 0 4 C0 4.66 0 5.32 0 6 C-1.32 6.33 -2.64 6.66 -4 7 C-3.43628586 3.73045798 -2.50037734 2.17424117 0 0 Z " fill="#DC4B40" transform="translate(267,104)"/>
<path d="M0 0 C0.350625 0.45375 0.70125 0.9075 1.0625 1.375 C3.77096206 3.64661334 6.60795328 4.16798854 10 5 C5.99799622 6.60080151 2.95443764 5.29279692 -1 4 C-0.67 2.68 -0.34 1.36 0 0 Z " fill="#5B8ADC" transform="translate(405,180)"/>
<path d="M0 0 C2.31 1.65 4.62 3.3 7 5 C6.67 6.32 6.34 7.64 6 9 C1.125 4.5 1.125 4.5 0 0 Z " fill="#D05B5A" transform="translate(408,91)"/>
<path d="M0 0 C0.66 0 1.32 0 2 0 C2.33 0.99 2.66 1.98 3 3 C2.34 3.66 1.68 4.32 1 5 C1 5.33 1 5.66 1 6 C-0.65 6 -2.3 6 -4 6 C-2.7260411 3.96166576 -1.38938077 1.96147874 0 0 Z " fill="#40A546" transform="translate(248,266)"/>
<path d="M0 0 C0.66 0.33 1.32 0.66 2 1 C0.03681826 4.53372712 -2.04070881 7.24479785 -5 10 C-5 6.60406522 -4.47834052 5.93380119 -2.5 3.3125 C-2.0359375 2.68988281 -1.571875 2.06726563 -1.09375 1.42578125 C-0.7328125 0.95527344 -0.371875 0.48476562 0 0 Z " fill="#61A93A" transform="translate(266,247)"/>
<path d="M0 0 C1.32 0 2.64 0 4 0 C4.33 2.64 4.66 5.28 5 8 C2.98863724 5.44008376 1.37154504 2.95409701 0 0 Z " fill="#6290E9" transform="translate(427,195)"/>
<path d="M0 0 C0.99 0.33 1.98 0.66 3 1 C0.31158141 3.25245881 -1.64641875 4.88213958 -5 6 C-3.86525052 2.59575156 -3.03188696 1.78346291 0 0 Z " fill="#4C84E1" transform="translate(393,122)"/>
</svg>
