<?xml version="1.0" encoding="UTF-8"?>
<svg version="1.1" xmlns="http://www.w3.org/2000/svg" width="300" height="300">
<path d="M0 0 C22.57625365 17.38265539 36.74831416 40.99849716 40.55859375 69.234375 C40.83730861 73.15629129 40.8933994 77.05348172 40.87109375 80.984375 C40.8654541 82.03496094 40.85981445 83.08554688 40.85400391 84.16796875 C40.42021701 112.10212662 28.03184806 136.25605025 8.46264648 155.76293945 C-11.88770333 175.22235365 -37.6993983 181.7364451 -65.1875 181.4453125 C-98.8328557 180.63216203 -122.2913726 160.74106313 -144.859375 138.046875 C-146.29295328 136.61210123 -147.72690515 135.17770067 -149.16120911 133.74365234 C-152.13833941 130.76497193 -155.1121226 127.78300579 -158.08325195 124.79833984 C-161.89223722 120.97221917 -165.70792016 117.15286231 -169.52585888 113.3356781 C-172.47461436 110.3866512 -175.4207612 107.4350301 -178.36602211 104.48251343 C-179.77326012 103.07209635 -181.18110187 101.66228137 -182.58955956 100.25308228 C-184.54685771 98.29362082 -186.50083209 96.33090656 -188.45385742 94.3671875 C-189.03404129 93.78745682 -189.61422516 93.20772614 -190.21199036 92.61042786 C-196.17867316 86.59581012 -196.17867316 86.59581012 -197.12890625 81.671875 C-196.99303519 77.59166491 -195.53460915 75.79353304 -192.78393555 72.85742188 C-191.96275238 71.97876465 -191.14156921 71.10010742 -190.29550171 70.19482422 C-189.34620666 69.20601626 -188.39472915 68.21930024 -187.44140625 67.234375 C-186.67934561 66.44604279 -186.67934561 66.44604279 -185.9018898 65.64178467 C-181.72529159 61.33787097 -177.50310275 57.07980571 -173.2734375 52.828125 C-172.60411383 52.1547258 -171.93479015 51.4813266 -171.24518394 50.78752136 C-167.70472066 47.2263456 -164.16109409 43.66835163 -160.61499023 40.11279297 C-156.9904186 36.47715968 -153.37769005 32.8299899 -149.76747608 29.18010712 C-146.95404411 26.34031827 -144.13155926 23.50965359 -141.30670738 20.68122864 C-139.97232209 19.34203038 -138.64126058 17.99951035 -137.31388283 16.65336609 C-100.14573273 -21.0076282 -44.83385796 -32.42384608 0 0 Z M-117.35546875 38.70703125 C-117.89792614 39.24258574 -118.44038353 39.77814022 -118.99927902 40.32992363 C-121.85778903 43.15294009 -124.71037063 45.98178986 -127.55810547 48.81567383 C-130.49080716 51.73168452 -133.44393901 54.62608657 -136.40195656 57.51638126 C-138.68700577 59.75669245 -140.95634586 62.01242481 -143.22169113 64.27264214 C-144.30432142 65.34739445 -145.39280719 66.41628271 -146.48726273 67.47899055 C-148.01192525 68.96222193 -149.51293577 70.46604365 -151.01025391 71.97680664 C-151.86833649 72.82537735 -152.72641907 73.67394806 -153.61050415 74.54823303 C-155.98943173 78.03839082 -155.9956268 80.08951573 -155.44140625 84.234375 C-154.34996676 86.36497494 -154.34996676 86.36497494 -152.58227539 88.01391602 C-151.93896271 88.68536652 -151.29565002 89.35681702 -150.63284302 90.0486145 C-149.90966888 90.76991547 -149.18649475 91.49121643 -148.44140625 92.234375 C-147.67738495 93.03019989 -146.91336365 93.82602478 -146.12619019 94.64596558 C-140.49549459 100.49575546 -134.7540242 106.23937798 -129.02905273 111.99682617 C-126.93435586 114.10482631 -124.84716075 116.21983864 -122.76635742 118.34155273 C-108.49533737 132.88647215 -95.46685616 146.01236837 -75.44140625 152.234375 C-74.66023438 152.47929687 -73.8790625 152.72421875 -73.07421875 152.9765625 C-53.65242555 157.88241338 -33.26279568 153.2454057 -16.28271484 143.37597656 C-0.57583699 133.6377956 11.1876585 117.23572677 15.55859375 99.234375 C19.75096401 79.62007128 17.14951869 59.5015277 6.55859375 42.234375 C-5.27760231 24.67785797 -22.07415873 13.05391685 -42.83984375 8.7421875 C-73.88820704 4.36443563 -95.91611195 17.48233177 -117.35546875 38.70703125 Z " fill="#50C3F7" transform="translate(199.44140625,68.765625)"/>
<path d="M0 0 C11.67845524 7.48618926 19.3581449 18.82317464 22.75 32.25 C25.04973268 46.95486004 22.7304577 61.29745431 13.875 73.5625 C12.85656715 74.81098495 11.8148673 76.04087727 10.75 77.25 C10.22664063 77.85457031 9.70328125 78.45914063 9.1640625 79.08203125 C-0.03732427 88.9962015 -11.62113486 93.54351922 -24.9296875 94.23828125 C-39.22970671 94.28875191 -51.84215124 88.62634887 -62.06640625 78.6875 C-72.37734153 67.17761876 -76.33516605 53.99439511 -75.69140625 38.75390625 C-74.64930237 25.17172225 -68.29429657 13.78382459 -58.5 4.4375 C-41.32848252 -9.65195024 -18.9898201 -10.53071842 0 0 Z " fill="#4FC3F8" transform="translate(170.25,106.75)"/>
<path d="M0 0 C5.42903592 0.30552193 7.9635688 3.42981024 11.54296875 7.1171875 C12.15263992 7.73014679 12.7623111 8.34310608 13.39045715 8.97463989 C14.67505863 10.26964696 15.95488942 11.56940156 17.23022461 12.87353516 C19.18217314 14.86955287 21.14716692 16.85191691 23.11523438 18.83203125 C24.36275803 20.0929799 25.60952884 21.35467393 26.85546875 22.6171875 C27.44192673 23.21103241 28.0283847 23.80487732 28.63261414 24.41671753 C34.74370294 30.67191526 34.74370294 30.67191526 35.6875 35.5625 C35.48893782 41.97489039 30.3076841 45.78939047 26 50 C24.99086665 51.00648991 23.98309116 52.0143428 22.9765625 53.0234375 C21.42884533 54.57359625 19.87900944 56.12104719 18.3190918 57.65893555 C15.42370955 60.52172786 12.68490669 63.44874913 10.0625 66.5625 C7.65496906 69.38107281 5.47481491 71.51079361 2 73 C1.34 72.67 0.68 72.34 0 72 C0.14284092 69.97895295 0.28942383 67.95817023 0.4375 65.9375 C0.51871094 64.81214844 0.59992188 63.68679687 0.68359375 62.52734375 C0.88788049 60.24992492 1.15871 57.97705848 1.50927734 55.7175293 C2.24723428 50.12704655 2.18597068 44.57353683 2.18530273 38.94140625 C2.18747254 36.90082395 2.20562467 34.86079836 2.22460938 32.8203125 C2.25574295 25.32194928 1.78111417 18.14266897 0.44311523 10.75561523 C-0.1430636 7.11032569 -0.14441038 3.68246459 0 0 Z " fill="#51C3F6" transform="translate(262,114)"/>
<path d="M0 0 C0.99 0.495 0.99 0.495 2 1 C-5.66666667 8.66666667 -13.33333333 16.33333333 -21 24 C-21.88059082 24.88204102 -22.76118164 25.76408203 -23.66845703 26.67285156 C-25.37624721 28.37742287 -27.096668 30.06936506 -28.82421875 31.75390625 C-29.77867077 32.69007875 -30.73309771 33.6262768 -31.6875 34.5625 C-32.17283203 35.03107422 -32.65816406 35.49964844 -33.15820312 35.98242188 C-35.13858232 37.9354855 -36.82059242 39.62125066 -38.01953125 42.15234375 C-39.41616849 44.78425376 -41.44036115 45.53467234 -44 47 C-45.60826376 48.42927532 -47.17125325 49.91095616 -48.6875 51.4375 C-49.45449219 52.19933594 -50.22148438 52.96117187 -51.01171875 53.74609375 C-53.04628905 55.83243954 -53.04628905 55.83243954 -53.95703125 58.09765625 C-55.40956161 60.74702811 -57.40371993 61.502875 -60 63 C-61.64760066 64.51663081 -63.25248462 66.08091699 -64.8125 67.6875 C-65.99779297 68.89986328 -65.99779297 68.89986328 -67.20703125 70.13671875 C-68.09455078 71.05904297 -68.09455078 71.05904297 -69 72 C-69 68.05408353 -67.29666805 66.94241234 -64.62117004 64.24790955 C-63.97596909 63.61349442 -63.33076813 62.97907928 -62.66601562 62.32543945 C-61.99301926 61.652005 -61.32002289 60.97857056 -60.62663269 60.284729 C-58.3935404 58.05373186 -56.14999883 55.83355649 -53.90625 53.61328125 C-52.35860116 52.07122576 -50.811612 50.52850793 -49.26525879 48.9851532 C-45.18815978 44.91952342 -41.10213262 40.86298163 -37.01422119 36.80822754 C-32.84652995 32.67119225 -28.68728986 28.52568004 -24.52734375 24.38085938 C-16.35984097 16.24555744 -8.18288718 8.1198253 0 0 Z " fill="#66B7DE" transform="translate(75,73)"/>
<path d="M0 0 C0.99 1.32 1.98 2.64 3 4 C1.68 4.33 0.36 4.66 -1 5 C-4.17224381 15.57414602 -4.90418548 27.10382753 -3 38 C-2.67 38.33 -2.34 38.66 -2 39 C-1.95936168 40.66617115 -1.957279 42.33388095 -2 44 C-1.34 44 -0.68 44 0 44 C0.66 46.64 1.32 49.28 2 52 C-0.68475092 49.65276062 -1.84717014 47.43528366 -3.125 44.125 C-3.45757812 43.28195313 -3.79015625 42.43890625 -4.1328125 41.5703125 C-8.6785947 28.09677786 -6.53534987 13.75852772 -1 1 C-0.67 0.67 -0.34 0.34 0 0 Z " fill="#62BEE8" transform="translate(101,125)"/>
<path d="M0 0 C0.33 0.66 0.66 1.32 1 2 C1.66 2.33 2.32 2.66 3 3 C1.59106853 4.63171123 0.17254042 6.25513945 -1.25 7.875 C-2.03890625 8.77992188 -2.8278125 9.68484375 -3.640625 10.6171875 C-5.75075728 12.74828136 -7.18056177 14.04813837 -10 15 C-10.66 14.67 -11.32 14.34 -12 14 C-12 11.69 -12 9.38 -12 7 C-11.01 7 -10.02 7 -9 7 C-6.30709554 6.42331683 -3.6650302 5.69902432 -1 5 C-0.67 3.35 -0.34 1.7 0 0 Z " fill="#5BC0EE" transform="translate(274,172)"/>
<path d="M0 0 C3.67420866 0.30618405 4.78135513 0.75771784 7.3125 3.5625 C8.1478125 4.7690625 8.1478125 4.7690625 9 6 C7.35 6 5.7 6 4 6 C4.061875 6.763125 4.12375 7.52625 4.1875 8.3125 C4 11 4 11 2.5 12.8125 C2.005 13.204375 1.51 13.59625 1 14 C0.04738513 9.23692563 -0.08333357 4.8333472 0 0 Z " fill="#5AC0ED" transform="translate(262,114)"/>
<path d="M0 0 C0.66 0 1.32 0 2 0 C2 0.66 2 1.32 2 2 C3.98 2 5.96 2 8 2 C-0.5532155 6.70173872 -10.70056093 6.26949936 -20.1875 6.125 C-21.33025391 6.11597656 -22.47300781 6.10695312 -23.65039062 6.09765625 C-26.4338231 6.07436393 -29.21679229 6.04165999 -32 6 C-32 5.67 -32 5.34 -32 5 C-31.38068604 4.98018066 -30.76137207 4.96036133 -30.12329102 4.93994141 C-27.26932611 4.84364769 -24.41599143 4.73439903 -21.5625 4.625 C-20.58861328 4.5940625 -19.61472656 4.563125 -18.61132812 4.53125 C-12.50941205 4.28635705 -6.88862125 3.66534762 -1 2 C-0.67 1.34 -0.34 0.68 0 0 Z " fill="#66BCE8" transform="translate(160,244)"/>
<path d="M0 0 C4.91935902 4.11619836 9.52647956 8.40410362 14 13 C11 15 11 15 9 15 C8.6596875 13.329375 8.6596875 13.329375 8.3125 11.625 C7.39376342 7.83961627 7.39376342 7.83961627 4.375 6.5625 C3.59125 6.376875 2.8075 6.19125 2 6 C2 5.34 2 4.68 2 4 C1.34 4 0.68 4 0 4 C0 2.68 0 1.36 0 0 Z " fill="#5EBDE8" transform="translate(82,192)"/>
<path d="M0 0 C0 0.66 0 1.32 0 2 C-0.56589844 2.19335938 -1.13179687 2.38671875 -1.71484375 2.5859375 C-2.44832031 2.84632812 -3.18179688 3.10671875 -3.9375 3.375 C-4.66839844 3.63023438 -5.39929688 3.88546875 -6.15234375 4.1484375 C-8.18682116 4.85271413 -8.18682116 4.85271413 -9 7 C-9.66 6.67 -10.32 6.34 -11 6 C-11.33 6.99 -11.66 7.98 -12 9 C-16.455 9.495 -16.455 9.495 -21 10 C-17.87979566 6.87979566 -15.48942021 5.66305095 -11.5 3.875 C-10.3553125 3.35679688 -9.210625 2.83859375 -8.03125 2.3046875 C-2.67664671 0 -2.67664671 0 0 0 Z " fill="#62BBE5" transform="translate(109,55)"/>
<path d="M0 0 C4.88602525 2.3854332 9.42647423 2.90011375 14.8125 3.125 C14.8125 3.785 14.8125 4.445 14.8125 5.125 C9.0241477 5.43248219 4.37469302 4.36869016 -1.125 2.625 C-1.90423828 2.38652344 -2.68347656 2.14804688 -3.48632812 1.90234375 C-5.38940376 1.31857822 -7.28884922 0.72300024 -9.1875 0.125 C-9.1875 -0.205 -9.1875 -0.535 -9.1875 -0.875 C-5.44426979 -2.32399234 -3.43808384 -1.69465835 0 0 Z " fill="#64BDE5" transform="translate(113.1875,243.875)"/>
<path d="M0 0 C2.475 0.99 2.475 0.99 5 2 C0.93265026 6.59216906 -3.56385928 9.2167907 -9 12 C-7.74874616 8.24623848 -6.4347596 7.75926711 -3 6 C-2.34 6 -1.68 6 -1 6 C-0.67 4.02 -0.34 2.04 0 0 Z " fill="#5CBEEC" transform="translate(196,227)"/>
<path d="M0 0 C-1.485 1.2065625 -1.485 1.2065625 -3 2.4375 C-5.06872559 4.46252012 -5.92010584 5.51828523 -6.3984375 8.40234375 C-6.37733299 10.62886959 -6.2652096 12.78991997 -6 15 C-6.66 14.67 -7.32 14.34 -8 14 C-8.484375 11.8203125 -8.484375 11.8203125 -8.75 9.125 C-8.84796875 8.24070313 -8.9459375 7.35640625 -9.046875 6.4453125 C-9 4 -9 4 -7 1 C-2.5 -1.25 -2.5 -1.25 0 0 Z " fill="#5FBDE8" transform="translate(51,140)"/>
<path d="M0 0 C1.4540625 0.0309375 1.4540625 0.0309375 2.9375 0.0625 C-0.4435038 4.19871084 -3.72840534 7.87566569 -8.0625 11.0625 C-7.7325 9.4125 -7.4025 7.7625 -7.0625 6.0625 C-6.0725 6.0625 -5.0825 6.0625 -4.0625 6.0625 C-4.083125 5.258125 -4.10375 4.45375 -4.125 3.625 C-4.03366838 -0.11959638 -3.80090148 0.07756942 0 0 Z " fill="#5EBFEB" transform="translate(90.0625,96.9375)"/>
<path d="M0 0 C1.32 0 2.64 0 4 0 C4.804375 0.969375 5.60875 1.93875 6.4375 2.9375 C8.67954654 6.17879233 8.67954654 6.17879233 11.8125 6.875 C12.534375 6.91625 13.25625 6.9575 14 7 C14 7.99 14 8.98 14 10 C8.03868848 8.65870491 4.19807984 5.25135496 0 1 C0 0.67 0 0.34 0 0 Z " fill="#5DBEE4" transform="translate(109,185)"/>
<path d="M0 0 C-0.66 0.66 -1.32 1.32 -2 2 C-2.33 2.66 -2.66 3.32 -3 4 C-6.63 4 -10.26 4 -14 4 C-9.57046403 0.67784802 -5.55469836 -2.13642245 0 0 Z " fill="#5EBEE9" transform="translate(135,102)"/>
<path d="M0 0 C-0.95421808 1.14926266 -1.91352045 2.29430541 -2.875 3.4375 C-3.40867187 4.07558594 -3.94234375 4.71367188 -4.4921875 5.37109375 C-6 7 -6 7 -8 8 C-7.4140625 1.84765625 -7.4140625 1.84765625 -7 0 C-4.3333581 -1.33332095 -2.83319697 -0.67102033 0 0 Z " fill="#5FBFEB" transform="translate(68,122)"/>
<path d="M0 0 C0 0.33 0 0.66 0 1 C-7.18050184 1.71148265 -13.87028851 2.25818438 -21 1 C-21 0.67 -21 0.34 -21 0 C-13.80827843 -1.07875823 -7.21805755 -0.7938642 0 0 Z " fill="#5FBBE5" transform="translate(155,199)"/>
<path d="M0 0 C0.66 0 1.32 0 2 0 C0.59155282 3.21524305 -1.10344786 5.32183868 -3.625 7.75 C-4.57246094 8.67039063 -4.57246094 8.67039063 -5.5390625 9.609375 C-6.02117187 10.06828125 -6.50328125 10.5271875 -7 11 C-7.66 10.01 -8.32 9.02 -9 8 C-8.01 7.67 -7.02 7.34 -6 7 C-5.67 6.01 -5.34 5.02 -5 4 C-4.01 4 -3.02 4 -2 4 C-2 3.34 -2 2.68 -2 2 C-1.34 2 -0.68 2 0 2 C0 1.34 0 0.68 0 0 Z " fill="#63BCE4" transform="translate(293,155)"/>
<path d="M0 0 C0.99 0.33 1.98 0.66 3 1 C1.68 3.64 0.36 6.28 -1 9 C-3.1385485 6.8614515 -3.42655063 5.86724686 -4 3 C-2.1875 1.4375 -2.1875 1.4375 0 0 Z " fill="#58C1EE" transform="translate(212,112)"/>
<path d="M0 0 C0.598125 0.165 1.19625 0.33 1.8125 0.5 C4.11344336 1.1114124 4.11344336 1.1114124 7 1 C7.99 2.98 8.98 4.96 10 7 C5.56541027 5.6062718 3.12621626 3.39417765 0 0 Z " fill="#5DBEE8" transform="translate(78,228)"/>
<path d="M0 0 C2.54344286 2.27301934 3.87616437 4.45086481 5.25 7.5625 C5.60578125 8.34753906 5.9615625 9.13257813 6.328125 9.94140625 C7 12 7 12 6 14 C4 11 4 11 4 8 C3.01 7.67 2.02 7.34 1 7 C0.67 4.69 0.34 2.38 0 0 Z " fill="#60BCE5" transform="translate(184,121)"/>
<path d="M0 0 C0.99 0.99 1.98 1.98 3 3 C2.01 3.495 2.01 3.495 1 4 C1 5.98 1 7.96 1 10 C0.34 9.67 -0.32 9.34 -1 9 C-1.09765625 2.84765625 -1.09765625 2.84765625 -1 1 C-0.67 0.67 -0.34 0.34 0 0 Z " fill="#64BDE5" transform="translate(4,145)"/>
<path d="M0 0 C1.98 1.65 3.96 3.3 6 5 C2.37673261 6.2077558 1.35853631 5.54311128 -2 4 C-1.34 2.68 -0.68 1.36 0 0 Z " fill="#58BEEE" transform="translate(127,193)"/>
<path d="M0 0 C2.45823172 3.68734758 3.01242616 6.69699971 4 11 C3.34 11 2.68 11 2 11 C2 10.01 2 9.02 2 8 C1.34 8 0.68 8 0 8 C0 5.36 0 2.72 0 0 Z " fill="#5EBCE7" transform="translate(233,114)"/>
<path d="M0 0 C5.75 0.75 5.75 0.75 8 3 C5.36 3.33 2.72 3.66 0 4 C0 2.68 0 1.36 0 0 Z " fill="#57BFEB" transform="translate(157,102)"/>
<path d="M0 0 C0 0.66 0 1.32 0 2 C0.66 2.33 1.32 2.66 2 3 C-2.29 2.34 -6.58 1.68 -11 1 C-11 0.67 -11 0.34 -11 0 C-3.375 -1.125 -3.375 -1.125 0 0 Z " fill="#63BAE7" transform="translate(164,77)"/>
<path d="M0 0 C0 0.66 0 1.32 0 2 C1.98 2 3.96 2 6 2 C2.09971775 4.60018816 -1.47434569 4.15085514 -6 4 C-2.25 0 -2.25 0 0 0 Z " fill="#5DBFED" transform="translate(162,244)"/>
<path d="M0 0 C0 3.34419152 -0.47519394 4.06840321 -2.375 6.6875 C-2.81585938 7.31011719 -3.25671875 7.93273437 -3.7109375 8.57421875 C-4.13632813 9.04472656 -4.56171875 9.51523438 -5 10 C-5.66 10 -6.32 10 -7 10 C-5.33248852 6.05860922 -2.77289351 3.2107188 0 0 Z " fill="#5DBDE2" transform="translate(204,191)"/>
<path d="M0 0 C2.02054804 1.64169528 4.02043058 3.30911778 6 5 C6 5.33 6 5.66 6 6 C4.33388095 6.042721 2.66617115 6.04063832 1 6 C0 5 0 5 -0.0625 2.4375 C-0.041875 1.633125 -0.02125 0.82875 0 0 Z " fill="#5CBBE9" transform="translate(203,72)"/>
<path d="M0 0 C0 0.33 0 0.66 0 1 C-1.43836751 0.88541307 -2.87570966 0.75790884 -4.3125 0.625 C-5.11300781 0.55539063 -5.91351563 0.48578125 -6.73828125 0.4140625 C-9 0 -9 0 -12 -2 C-7.06729471 -3.6442351 -4.45975807 -2.18615592 0 0 Z " fill="#5ABFEE" transform="translate(116,245)"/>
<path d="M0 0 C0.33 1.32 0.66 2.64 1 4 C-0.96466413 5.06775224 -2.96855359 6.06553465 -5 7 C-5.66 6.67 -6.32 6.34 -7 6 C-4.69 4.02 -2.38 2.04 0 0 Z " fill="#5FBDE5" transform="translate(196,201)"/>
<path d="M0 0 C2.33944736 0.28730055 4.6739143 0.61936779 7 1 C4.77810176 3.22189824 2.91517292 3.92598892 0 5 C-0.5625 3.0625 -0.5625 3.0625 -1 1 C-0.67 0.67 -0.34 0.34 0 0 Z " fill="#5BBEEA" transform="translate(107,82)"/>
<path d="M0 0 C3.93673644 1.31224548 6.22719294 2.91910327 9 6 C6.69 5.67 4.38 5.34 2 5 C2.33 4.01 2.66 3.02 3 2 C2.01 2 1.02 2 0 2 C0 1.34 0 0.68 0 0 Z " fill="#5BB9E8" transform="translate(192,65)"/>
<path d="M0 0 C0.66 0.33 1.32 0.66 2 1 C1.2884375 1.928125 1.2884375 1.928125 0.5625 2.875 C-1.02417441 4.90705546 -1.02417441 4.90705546 -2 7 C-3.65 6.67 -5.3 6.34 -7 6 C-4.74259377 3.66475218 -2.7194239 1.81294927 0 0 Z " fill="#5CBCE4" transform="translate(86,65)"/>
<path d="M0 0 C1.98 1.65 3.96 3.3 6 5 C4.125 5.625 4.125 5.625 2 6 C1.34 5.34 0.68 4.68 0 4 C0 2.68 0 1.36 0 0 Z " fill="#5EBDEB" transform="translate(52,162)"/>
<path d="M0 0 C2.66735273 2.48952921 4.55746343 4.63408134 6 8 C4.35 7.67 2.7 7.34 1 7 C0.67 4.69 0.34 2.38 0 0 Z " fill="#56BCEA" transform="translate(217,86)"/>
<path d="M0 0 C2.02054804 1.64169528 4.02043058 3.30911778 6 5 C6 5.33 6 5.66 6 6 C4.35 6 2.7 6 1 6 C0.67 4.02 0.34 2.04 0 0 Z " fill="#5FBCE8" transform="translate(58,168)"/>
<path d="M0 0 C3.36591866 1.44253657 5.51047079 3.33264727 8 6 C6.02 5.34 4.04 4.68 2 4 C2 3.34 2 2.68 2 2 C1.34 2 0.68 2 0 2 C0 1.34 0 0.68 0 0 Z " fill="#5EBCE6" transform="translate(169,107)"/>
<path d="M0 0 C0.66 0.66 1.32 1.32 2 2 C-1.33333333 2.66666667 -4.66666667 3.33333333 -8 4 C-6.23043542 1.85789551 -5.12424348 1.03939427 -2.4375 0.1875 C-1.633125 0.125625 -0.82875 0.06375 0 0 Z " fill="#5CBFEF" transform="translate(96,61)"/>
</svg>
