<?xml version="1.0" encoding="UTF-8"?>
<svg version="1.1" xmlns="http://www.w3.org/2000/svg" width="866" height="650">
<path d="M0 0 C285.78 0 571.56 0 866 0 C866 214.5 866 429 866 650 C580.22 650 294.44 650 0 650 C0 435.5 0 221 0 0 Z " fill="#FEFEFE" transform="translate(0,0)"/>
<path d="M0 0 C1.36125 1.051875 1.36125 1.051875 2.75 2.125 C3.27722656 2.49753906 3.80445313 2.87007812 4.34765625 3.25390625 C24.63405821 18.734418 32.05978355 50.29402341 35.75 74.125 C36.28349579 78.44886573 36.55529951 82.77388644 36.75 87.125 C37.28141602 86.82319824 37.81283203 86.52139648 38.36035156 86.21044922 C51.13725645 79.03404204 63.49336147 73.56877688 77.75 70.125 C78.78769531 69.86074219 79.82539063 69.59648438 80.89453125 69.32421875 C110.21045587 63.15906722 139.57258189 72.42285804 164.75 87.125 C164.79753418 86.39869385 164.84506836 85.6723877 164.89404297 84.92407227 C166.9194223 57.28451389 174.55662134 23.59805826 195.97265625 4.1015625 C206.35372463 -4.33862002 216.54154764 -7.1669853 229.75 -5.875 C233.10055195 -4.98673554 235.82085098 -3.70808035 238.75 -1.875 C240.3278125 -0.9159375 240.3278125 -0.9159375 241.9375 0.0625 C261.60108401 14.4824616 269.74725296 38.88262725 273.75 62.125 C275.54187615 74.5167948 276.0948781 86.78055988 276.06567383 99.29296875 C276.06250248 102.12278453 276.08613294 104.9515613 276.11132812 107.78125 C276.14573578 118.23572661 275.42043519 128.11346133 273.39526367 138.375 C272.81131777 141.76864702 272.41959357 144.70004768 272.75 148.125 C274.8024636 150.23818737 276.67459395 151.87121731 279 153.625 C300.22091457 170.7967798 314.60555708 195.61286664 320.75 222.125 C321.19859375 224.05085938 321.19859375 224.05085938 321.65625 226.015625 C323.63519322 235.48604319 324.02944998 244.83795519 324.0625 254.5 C324.07071777 256.24627686 324.07071777 256.24627686 324.07910156 258.02783203 C323.90181261 279.51953266 317.31606966 300.4762396 305.2265625 318.21484375 C303.54691582 320.95131077 303.54691582 320.95131077 303.8203125 323.61328125 C304.96347883 326.70175162 306.42356916 329.48259211 308 332.375 C312.12617516 340.34599615 314.62149219 348.4296243 316.75 357.125 C316.94754883 357.88087402 317.14509766 358.63674805 317.34863281 359.41552734 C326.10153051 393.8326087 323.49899044 437.14002167 305.35864258 468.0456543 C304.32356446 469.75361296 303.24152667 471.43286551 302.15625 473.109375 C299.91503133 477.91554392 301.31132264 480.88320562 303.01953125 485.71875 C303.53060749 487.0221111 304.04508301 488.32414308 304.5625 489.625 C307.40258859 497.02872945 309.84290974 504.41783356 311.75 512.125 C311.93336914 512.8252832 312.11673828 513.52556641 312.30566406 514.24707031 C315.33496915 526.11312998 316.1469362 537.8024989 316.1875 550 C316.19662415 551.03394394 316.19662415 551.03394394 316.20593262 552.08877563 C316.26920534 563.03870658 315.22995952 573.68512144 311.75 584.125 C299.87 584.125 287.99 584.125 275.75 584.125 C276.74 581.155 277.73 578.185 278.75 575.125 C287.75874415 546.59731018 279.34537261 513.39867173 266.484375 487.43359375 C264.81636025 484.11080476 264.81636025 484.11080476 262.75 481.125 C261.6804705 475.37729946 261.49004103 470.19723039 264.5859375 465.10546875 C266.89555752 462.36231541 269.29876661 459.74157797 271.75 457.125 C283.69592736 441.53146123 287.16230925 418.68826743 287.0625 399.5625 C287.05758545 398.43279785 287.0526709 397.3030957 287.04760742 396.13916016 C286.73602528 373.5742218 282.07572188 349.63694845 267.16796875 331.96484375 C264.17141504 328.0767534 264.29191715 323.74268092 264.34765625 319.0234375 C265.03464035 314.0744841 267.68987335 310.94367499 270.75 307.125 C286.86197957 285.99401092 292.44138386 263.3967418 289.03125 237.15576172 C285.38659163 213.63632569 271.92595316 190.45422892 253.09521484 175.84082031 C236.19329509 163.58101113 219.70532929 160.69663641 199.18554688 161.37890625 C187.32337101 161.58842001 187.32337101 161.58842001 181.75 157.125 C180.18359375 155.37109375 180.18359375 155.37109375 179.1875 153.5625 C178.7853125 152.86382812 178.383125 152.16515625 177.96875 151.4453125 C177.13041135 149.84924469 176.31926971 148.2386896 175.53125 146.6171875 C166.08170816 127.77304302 148.86498804 115.83815198 129.75 108.125 C128.56535156 107.61710937 127.38070312 107.10921875 126.16015625 106.5859375 C109.06159695 100.16276412 88.41658586 100.62939934 71.75 108.125 C71.07259766 108.4250293 70.39519531 108.72505859 69.69726562 109.03417969 C48.66742882 118.54121651 32.59540849 131.93307842 22.78125 153.1796875 C19.97525345 157.2483825 17.4674431 159.51028712 12.75 161.125 C7.50448669 161.61981756 2.31480226 161.42210163 -2.9375 161.1875 C-23.37528906 160.31522781 -40.90331392 166.16000913 -56.25 180.125 C-57.15492188 180.93710938 -58.05984375 181.74921875 -58.9921875 182.5859375 C-77.1259121 199.71502362 -87.44543086 223.83507605 -88.48828125 248.68359375 C-88.97783027 270.28990607 -83.84465549 288.96276096 -70.25 306.125 C-69.09996028 307.642655 -67.95368871 309.16317839 -66.8125 310.6875 C-66.33941406 311.30753906 -65.86632812 311.92757813 -65.37890625 312.56640625 C-62.20898116 316.94287722 -62.74313151 321.92597753 -63.25 327.125 C-64.80090767 330.66106949 -66.54664732 333.20025301 -68.86328125 336.24609375 C-85.82716845 359.15298356 -88.0402692 392.20709254 -84.12231445 419.5703125 C-81.63001377 434.87893607 -78.10267617 448.93553723 -67.09375 460.36328125 C-63.07902475 464.79502902 -60.65583564 468.16998088 -60.25 474.25 C-60.74438977 482.17889261 -64.51661901 488.39698648 -68.24560547 495.21875 C-73.34390782 504.89486687 -75.89110567 515.52628123 -78.25 526.125 C-78.47816406 527.06214844 -78.70632812 527.99929688 -78.94140625 528.96484375 C-82.91822252 547.90338838 -80.26232119 566.08803643 -74.25 584.125 C-86.13 584.125 -98.01 584.125 -110.25 584.125 C-113.90877543 573.14867372 -114.68819162 562.46105677 -114.6875 550.9375 C-114.68923218 550.24512238 -114.69096436 549.55274475 -114.69274902 548.83938599 C-114.67785765 535.1626402 -112.60211789 522.38827154 -109.25 509.125 C-108.91028629 507.66463583 -108.57281016 506.20374808 -108.23828125 504.7421875 C-106.37604616 497.08895131 -103.72716404 490.21799454 -100.32421875 483.1484375 C-99.13866599 479.81164536 -99.08749411 478.42607804 -100.25 475.125 C-101.37635522 473.13267067 -101.37635522 473.13267067 -102.8125 471.125 C-110.41151815 458.86378231 -114.87660917 444.26845147 -117.25 430.125 C-117.42700439 429.1153418 -117.60400879 428.10568359 -117.78637695 427.06542969 C-119.22981361 418.0691268 -119.59089401 409.2915914 -119.56567383 400.19458008 C-119.56251694 397.82521313 -119.58606894 395.45710436 -119.61132812 393.08789062 C-119.65546121 382.46131736 -118.46056105 372.51074918 -116.25 362.125 C-116.05656006 361.19405518 -115.86312012 360.26311035 -115.66381836 359.30395508 C-115.17573559 357.08337354 -114.64025739 354.88630147 -114.0625 352.6875 C-113.86108398 351.915271 -113.65966797 351.14304199 -113.45214844 350.34741211 C-111.18689902 342.16283048 -107.72850912 334.54937589 -104.01855469 326.92993164 C-103.1823588 324.96614632 -102.56337344 323.24099186 -102.25 321.125 C-103.51559847 318.70100669 -104.81455699 316.52154503 -106.3125 314.25 C-122.62754183 288.20362372 -126.83502213 254.810167 -120.50878906 224.79223633 C-115.32490545 203.58134574 -105.67715738 183.61317986 -91.25 167.125 C-90.82960449 166.63902344 -90.40920898 166.15304688 -89.97607422 165.65234375 C-85.35547128 160.33740156 -80.98910806 155.45318571 -75 151.625 C-72.3523551 149.65696449 -71.37158863 148.8887655 -70.84765625 145.59765625 C-71.08558982 142.37473791 -71.67096995 139.30474344 -72.25 136.125 C-74.1135251 124.25530123 -74.61581081 112.62435143 -74.5625 100.625 C-74.56034485 99.74959564 -74.5581897 98.87419128 -74.55596924 97.97225952 C-74.43275288 66.69275498 -70.42531156 35.91440454 -51.25 10.125 C-50.5075 9.09375 -49.765 8.0625 -49 7 C-35.13522864 -7.49498824 -17.50093266 -10.09669192 0 0 Z " fill="#020202" transform="translate(332.25,35.875)"/>
<path d="M0 0 C0.99128403 0.00422974 0.99128403 0.00422974 2.00259399 0.00854492 C30.31379377 0.18988715 53.81444599 9.64099644 73.86230469 29.84277344 C85.82613607 42.51382638 91.44565236 58.26295755 91.625 75.375 C91.63901855 76.29716309 91.65303711 77.21932617 91.66748047 78.16943359 C91.60208035 87.58202026 89.05188334 95.65778548 84.5625 103.875 C84.21219727 104.51775879 83.86189453 105.16051758 83.50097656 105.82275391 C75.58411027 119.89521408 62.85685536 128.90357019 48.25 135.3125 C47.42628906 135.69148437 46.60257813 136.07046875 45.75390625 136.4609375 C30.93423029 142.61075623 14.71117247 142.59510075 -1.0625 142.625 C-1.82505096 142.62858521 -2.58760193 142.63217041 -3.3732605 142.63586426 C-29.69488448 142.70236069 -53.67732311 137.43736537 -73.32666016 118.75634766 C-84.74180744 107.17672827 -91.36419448 91.88576947 -91.25 75.6875 C-91.24427979 74.73182129 -91.23855957 73.77614258 -91.23266602 72.79150391 C-90.74598394 53.21606943 -81.47491375 37.75068156 -67.75 24.3125 C-48.92950898 6.7032287 -25.30891634 -0.11582292 0 0 Z " fill="#FCFCFC" transform="translate(432.75,277.6875)"/>
<path d="M0 0 C0.99128403 0.00422974 0.99128403 0.00422974 2.00259399 0.00854492 C30.31379377 0.18988715 53.81444599 9.64099644 73.86230469 29.84277344 C85.82613607 42.51382638 91.44565236 58.26295755 91.625 75.375 C91.63901855 76.29716309 91.65303711 77.21932617 91.66748047 78.16943359 C91.60208035 87.58202026 89.05188334 95.65778548 84.5625 103.875 C84.21219727 104.51775879 83.86189453 105.16051758 83.50097656 105.82275391 C75.58411027 119.89521408 62.85685536 128.90357019 48.25 135.3125 C47.42628906 135.69148437 46.60257813 136.07046875 45.75390625 136.4609375 C30.93423029 142.61075623 14.71117247 142.59510075 -1.0625 142.625 C-1.82505096 142.62858521 -2.58760193 142.63217041 -3.3732605 142.63586426 C-29.69488448 142.70236069 -53.67732311 137.43736537 -73.32666016 118.75634766 C-84.74180744 107.17672827 -91.36419448 91.88576947 -91.25 75.6875 C-91.24427979 74.73182129 -91.23855957 73.77614258 -91.23266602 72.79150391 C-90.74598394 53.21606943 -81.47491375 37.75068156 -67.75 24.3125 C-48.92950898 6.7032287 -25.30891634 -0.11582292 0 0 Z M-49.75 39.3125 C-50.56210937 39.92609375 -51.37421875 40.5396875 -52.2109375 41.171875 C-62.01977326 49.44147807 -67.91069978 61.0801976 -69.0625 73.75 C-68.89362669 83.63847068 -65.47769136 93.11240417 -58.75 100.3125 C-58.24855469 100.90289062 -57.74710937 101.49328125 -57.23046875 102.1015625 C-47.35113361 113.01450205 -31.99356465 118.80763506 -17.50585938 119.77636719 C-12.85144983 119.96690041 -8.20494776 119.97128755 -3.54760742 119.90942383 C-0.68633827 119.87498602 2.17184486 119.88887458 5.03320312 119.90820312 C24.16206919 119.89510646 42.59554033 116.50297351 57.25 103.1875 C65.14250683 94.59244048 69.70437382 83.55117207 69.52734375 71.8671875 C67.89461503 56.82768631 58.20261458 45.83478958 47.25 36.3125 C20.1414795 15.3294625 -24.2102957 17.07315511 -49.75 39.3125 Z " fill="#030303" transform="translate(432.75,277.6875)"/>
<path d="M0 0 C7.209016 3.1161553 10.79767848 10.70786673 13.7734375 17.62890625 C23.84305773 45.30432744 24.07891082 75.08343581 20 104 C19.12601563 103.81824219 19.12601563 103.81824219 18.234375 103.6328125 C15.49255682 103.07237797 12.74732459 102.5327925 10 102 C9.08476563 101.82082031 8.16953125 101.64164062 7.2265625 101.45703125 C2.75102392 100.64162491 -1.59164929 99.9631358 -6.14453125 99.8984375 C-6.85593262 99.88176025 -7.56733398 99.86508301 -8.30029297 99.84790039 C-10.34445301 99.81404122 -12.38917773 99.82203899 -14.43359375 99.83203125 C-18 99 -18 99 -20.9375 96.421875 C-24.55180806 90.49861333 -23.69903677 83.13621244 -23.5625 76.4375 C-23.55094376 75.33693771 -23.55094376 75.33693771 -23.53915405 74.21414185 C-23.39882425 61.50642201 -22.16211517 49.34186282 -19 37 C-18.81808105 36.26555664 -18.63616211 35.53111328 -18.44873047 34.77441406 C-16.48055214 27.05999926 -13.73233466 19.94143947 -10.0625 12.875 C-9.75086914 12.27115479 -9.43923828 11.66730957 -9.11816406 11.04516602 C-6.65902831 6.5774854 -3.68434608 3.448506 0 0 Z " fill="#FBFBFB" transform="translate(553,63)"/>
<path d="M0 0 C10.08074038 4.59785375 14.08547821 16.22730733 17.74755859 25.99365234 C23.7314224 42.93752278 25.24376904 60.57518123 25.5 78.4375 C25.5306958 79.6759668 25.5613916 80.91443359 25.59301758 82.19042969 C25.59535411 93.53350085 25.59535411 93.53350085 21.81933594 97.83813477 C17.79141496 100.41044769 13.01634817 100.14774264 8.375 100.25 C0.98024848 100.52765024 -5.64098252 101.16596583 -12.73583984 103.37011719 C-15 104 -15 104 -18 104 C-19.81219454 93.54590922 -20.36482573 83.45669535 -20.3125 72.875 C-20.31067719 72.10819916 -20.30885437 71.34139832 -20.30697632 70.55136108 C-20.21860777 48.42784991 -18.38650042 19.25200691 -2.28125 2.10546875 C-1.15203125 1.06326172 -1.15203125 1.06326172 0 0 Z " fill="#FCFCFC" transform="translate(311,63)"/>
<path d="M0 0 C6.40430452 3.82366704 11.05639934 10.20353316 13.11328125 17.3515625 C14.59905244 24.25070874 13.77666761 29.4118858 10.05078125 35.42578125 C6.51612854 40.20359266 2.46829431 43.21176911 -3.4375 44.4375 C-10.07694428 45.1922141 -15.14976139 44.99402603 -20.65625 40.98828125 C-26.5869277 35.82495001 -30.87084285 30.35482481 -31.7890625 22.38671875 C-32.11040458 15.05504556 -31.44538038 9.95399323 -26.4375 4.4375 C-19.4971123 -2.48553673 -9.09687173 -4.12532555 0 0 Z " fill="#030303" transform="translate(556.4375,283.5625)"/>
<path d="M0 0 C4.8573082 2.88979096 8.36431684 7.13371643 10.5 12.375 C11.61186885 21.01246536 10.68584258 28.26939839 5.5 35.375 C1.03746003 40.21541633 -3.41602919 43.85000525 -10.11328125 44.7109375 C-16.41469183 44.80213013 -21.42962278 44.35807532 -26.5 40.375 C-30.96183462 35.61504725 -34.1680193 30.7612031 -34.8125 24.1875 C-34.00758134 14.3674924 -30.79627342 8.05151274 -23.5 1.375 C-17.25572395 -3.41711883 -7.0404196 -3.19897393 0 0 Z " fill="#020202" transform="translate(330.5,283.625)"/>
<path d="M0 0 C1.9609375 0.79296875 1.9609375 0.79296875 3.75 1.6875 C4.8225 2.120625 5.895 2.55375 7 3 C8.69036558 2.04060332 10.35394174 1.03357147 12 0 C16.08208836 -0.7311203 20.15061135 -1.1362257 23.79296875 1.1015625 C26.39494542 3.82744282 26.99459852 5.84605772 27.125 9.5625 C25.48786272 14.56486392 22.68239406 16.93204551 18.3046875 19.7109375 C15.63903201 21.84470001 15.63903201 21.84470001 15.8359375 25.27734375 C16.01382812 26.48519531 16.19171875 27.69304687 16.375 28.9375 C17.29580817 35.36254205 17.29580817 35.36254205 15.6640625 38.87890625 C14 41 14 41 12 42 C10.0246012 42.14779962 8.04321076 42.22118966 6.0625 42.25 C4.47115234 42.28867187 4.47115234 42.28867187 2.84765625 42.328125 C0 42 0 42 -1.83203125 40.7109375 C-3.82758652 37.78768263 -3.97599146 34.45122773 -4 31 C-3.67609636 29.47713048 -3.3426927 27.95625174 -3 26.4375 C-2.55719711 24.18681492 -2.55719711 24.18681492 -3 22 C-5.08560661 19.77885082 -7.23288066 18.2381214 -9.80078125 16.60546875 C-12.17909922 14.86925438 -12.98965174 13.73008998 -14 11 C-14.5934288 7.0155495 -14.33491952 5.49697736 -12.0625 2.125 C-7.94740758 -0.73037025 -4.87258521 -0.82884181 0 0 Z " fill="#050505" transform="translate(426,331)"/>
</svg>
