<?xml version="1.0" encoding="UTF-8"?>
<svg version="1.1" xmlns="http://www.w3.org/2000/svg" width="492" height="507">
<path d="M0 0 C1.05767578 0.05365723 1.05767578 0.05365723 2.13671875 0.10839844 C26.4998109 1.46963156 50.04847331 7.54008164 70 22 C71.51768311 23.00477461 73.03859303 24.00469021 74.5625 25 C77.60058173 27.03251947 80.60351617 29.10369483 83.5625 31.25 C84.22378906 31.72953125 84.88507813 32.2090625 85.56640625 32.703125 C86.03949219 33.13109375 86.51257813 33.5590625 87 34 C87 34.66 87 35.32 87 36 C87.66 36 88.32 36 89 36 C89 36.66 89 37.32 89 38 C89.53625 38.20109375 90.0725 38.4021875 90.625 38.609375 C94.03043473 40.60334665 96.36941501 43.33942701 99 46.25 C99.52078125 46.81074219 100.0415625 47.37148437 100.578125 47.94921875 C109 57.15798611 109 57.15798611 109 61 C109.66 61 110.32 61 111 61 C114 66.75 114 66.75 114 69 C114.66 69 115.32 69 116 69 C120.35610199 74.64628506 123.27393633 81.45591433 126.3125 87.875 C126.66199707 88.61226318 127.01149414 89.34952637 127.37158203 90.10913086 C130.36800268 96.55416463 130.36800268 96.55416463 131 100 C130 101 130 101 126.45703125 101.02734375 C124.90884124 100.99807196 123.36066484 100.96807445 121.8125 100.9375 C107.30660627 100.82976163 91.57782331 101.80775501 80.4609375 112.328125 C71.72900491 122.32081791 70.4293199 133.11464405 71 146 C73.60683999 171.99391872 87.75071807 197.63819366 100.25 220.046875 C102.87235773 224.75017671 105.42172279 229.48895926 107.9375 234.25 C108.29062256 234.91644531 108.64374512 235.58289063 109.00756836 236.26953125 C110.74978356 239.57294144 112.43396261 242.89289873 114.0625 246.25390625 C115.4609089 249.06441047 116.89221051 251.38988686 119.0625 253.6875 C122.2180776 257.18572871 124.49859861 260.49579584 126 265 C126.66 265 127.32 265 128 265 C128 265.66 128 266.32 128 267 C127.19175781 267.36351562 126.38351562 267.72703125 125.55078125 268.1015625 C117.02235815 272.11372777 112.00802956 275.13170714 108.68041992 284.30371094 C107.28483274 289.83398178 107.17387557 295.59434297 106.83499146 301.27026367 C105.58838951 321.70081338 102.9458794 341.88353661 100.09181213 362.14146423 C99.30305429 367.7531757 98.55929656 373.36824805 97.86328125 378.9921875 C92.56429422 421.63336613 92.56429422 421.63336613 78.69921875 434.0625 C63.48173845 444.98561177 44.60568435 449.90777102 26 448 C16.21283293 446.09003322 9.79571045 442.0935085 3.875 434.1484375 C-6.77843345 418.05078622 -8.02835222 399.03503617 -9.125 380.25 C-9.16868713 379.53908203 -9.21237427 378.82816406 -9.25738525 378.09570312 C-9.9635674 366.12122618 -10.04660522 354.16259685 -9.984375 342.171875 C-9.98110577 341.43027382 -9.97783653 340.68867264 -9.97446823 339.92459869 C-9.94091995 332.36940315 -9.89160085 324.81512214 -9.78019714 317.26063919 C-9.74138262 314.37984732 -9.7188821 311.49906143 -9.69950104 308.61808014 C-9.68033986 306.63017968 -9.63947122 304.64252509 -9.59783936 302.65496826 C-9.55249958 294.32080552 -10.06561272 285.10352 -15.36886597 278.22436523 C-16.52669744 277.09316616 -17.75648131 276.03626557 -19 275 C-19 274.34 -19 273.68 -19 273 C-19.721875 272.71125 -20.44375 272.4225 -21.1875 272.125 C-22.90831685 271.43667326 -24.61980777 270.72359924 -26.3125 269.96875 C-29.21951239 268.92087344 -31.73666904 268.59734923 -34.8125 268.375 C-35.78832031 268.30023438 -36.76414062 268.22546875 -37.76953125 268.1484375 C-38.50558594 268.09945313 -39.24164063 268.05046875 -40 268 C-37.60598315 254.33415382 -32.2715047 241.51180752 -26.14233398 229.12011719 C-21.94834465 220.62427669 -19.78323771 212.26493123 -18 203 C-17.77441406 201.94683594 -17.54882812 200.89367187 -17.31640625 199.80859375 C-14.1673924 183.15139637 -15.76652415 166.07427383 -18.58984375 149.50634766 C-18.99285996 147.04363075 -19.33318324 144.57982108 -19.65625 142.10546875 C-20.9452148 132.67802886 -23.22719517 125.35955336 -28 117 C-28.33 116.01 -28.66 115.02 -29 114 C-29.66 114 -30.32 114 -31 114 C-31 113.34 -31 112.68 -31 112 C-31.5775 111.731875 -32.155 111.46375 -32.75 111.1875 C-35 110 -35 110 -36.8515625 108.53125 C-46.29768295 101.79874234 -61.02712746 103.01742818 -72 104.46875 C-81.22258262 106.08270196 -91.64150548 108.9028856 -99.20703125 114.6875 C-101 116 -101 116 -104 116 C-102.14296942 97.51708387 -99.78791837 80.37707102 -93 63 C-92.63648438 62.0203125 -92.27296875 61.040625 -91.8984375 60.03125 C-89.75216234 54.37764714 -87.06392851 49.20604472 -84 44 C-83.47792969 43.08089844 -82.95585937 42.16179687 -82.41796875 41.21484375 C-81.88816406 40.29832031 -81.35835937 39.38179687 -80.8125 38.4375 C-80.07966797 37.16712891 -80.07966797 37.16712891 -79.33203125 35.87109375 C-78.89246094 35.25363281 -78.45289063 34.63617188 -78 34 C-77.34 34 -76.68 34 -76 34 C-75.74089844 33.42636719 -75.48179687 32.85273437 -75.21484375 32.26171875 C-73.89809397 29.81027784 -72.39035287 27.90765178 -70.5625 25.8125 C-69.96566406 25.11769531 -69.36882812 24.42289063 -68.75390625 23.70703125 C-67 22 -67 22 -64 21 C-63.505 19.515 -63.505 19.515 -63 18 C-60.7421875 16.31640625 -60.7421875 16.31640625 -57.875 14.5625 C-56.94429687 13.98628906 -56.01359375 13.41007812 -55.0546875 12.81640625 C-54.04664063 12.21699219 -53.03859375 11.61757813 -52 11 C-50.88625 10.32066406 -49.7725 9.64132813 -48.625 8.94140625 C-44.93558633 6.85255446 -41.19004161 5.54141962 -37.125 4.375 C-36.39394043 4.16335205 -35.66288086 3.9517041 -34.90966797 3.73364258 C-23.61629804 0.62850891 -11.69455321 -0.66577902 0 0 Z " fill="#346791" transform="translate(261,32)"/>
<path d="M0 0 C24.33477825 -0.74341279 50.69135175 3.39329219 73.4453125 12.15234375 C72.57339765 16.65886995 70.54204171 18.82902459 67.4453125 22.15234375 C66.7853125 22.15234375 66.1253125 22.15234375 65.4453125 22.15234375 C65.21199219 22.6628125 64.97867188 23.17328125 64.73828125 23.69921875 C63.33303564 26.3653645 61.71680515 28.85556345 60.06958008 31.37719727 C36.28966849 68.08934442 34.01145109 110.13903014 34.4453125 152.65234375 C34.76653153 184.36988833 34.76653153 184.36988833 32.90722656 196.93823242 C30.16681617 216.00668003 36.03159979 235.81560565 47.4453125 251.15234375 C49.10381795 252.82713186 50.76832621 254.496061 52.4453125 256.15234375 C52.4453125 256.81234375 52.4453125 257.47234375 52.4453125 258.15234375 C53.7653125 258.81234375 55.0853125 259.47234375 56.4453125 260.15234375 C55.9001572 264.24579053 53.73665873 266.41589444 51.0078125 269.40234375 C50.20472656 270.294375 49.40164062 271.18640625 48.57421875 272.10546875 C46.4453125 274.15234375 46.4453125 274.15234375 44.4453125 274.15234375 C44.1978125 274.7040625 43.9503125 275.25578125 43.6953125 275.82421875 C42.20296776 278.60371082 40.40858727 280.93381445 38.4453125 283.40234375 C37.7440625 284.294375 37.0428125 285.18640625 36.3203125 286.10546875 C35.7015625 286.7809375 35.0828125 287.45640625 34.4453125 288.15234375 C33.7853125 288.15234375 33.1253125 288.15234375 32.4453125 288.15234375 C31.7853125 289.47234375 31.1253125 290.79234375 30.4453125 292.15234375 C29.7853125 292.15234375 29.1253125 292.15234375 28.4453125 292.15234375 C28.2596875 292.83296875 28.0740625 293.51359375 27.8828125 294.21484375 C26.15923555 297.73693579 23.92009948 299.78679279 21.1015625 302.4609375 C19.29573417 304.15812563 19.29573417 304.15812563 18.0078125 306.71484375 C14.74725902 311.80130718 9.73119637 315.09319464 3.9453125 316.71484375 C-1.66806472 317.70715653 -5.56857339 315.6454008 -10.5546875 313.15234375 C-10.5546875 312.49234375 -10.5546875 311.83234375 -10.5546875 311.15234375 C-12.2046875 310.49234375 -13.8546875 309.83234375 -15.5546875 309.15234375 C-15.5546875 308.49234375 -15.5546875 307.83234375 -15.5546875 307.15234375 C-16.2146875 307.15234375 -16.8746875 307.15234375 -17.5546875 307.15234375 C-32.96012909 290.91284959 -42.40352715 265.96280016 -49.51391602 244.9987793 C-50.59334777 241.82004423 -51.72514907 238.76177587 -53.0703125 235.6796875 C-54.71622596 231.76847735 -55.90807895 227.85575203 -57.0546875 223.77734375 C-58.95166197 217.14155845 -58.95166197 217.14155845 -61.1171875 210.58984375 C-62.67430259 206.040284 -63.79367669 201.38603984 -64.93164062 196.71850586 C-65.85079673 192.95213365 -66.80118383 189.19878495 -67.81640625 185.45703125 C-70.18286627 176.73048751 -72.27370897 168.07423623 -73.78125 159.15625 C-74.3659267 155.87974916 -75.17241969 152.68613315 -76.0078125 149.46484375 C-77.59580079 143.21891937 -78.69551657 136.95546131 -79.6796875 130.58984375 C-79.84855469 129.54376953 -80.01742187 128.49769531 -80.19140625 127.41992188 C-84.1433367 102.35472519 -85.24319223 74.3599387 -76.5546875 50.15234375 C-76.3268457 49.51200195 -76.09900391 48.87166016 -75.86425781 48.21191406 C-71.9237379 37.44185369 -66.46165079 29.40797825 -58.5546875 21.15234375 C-58.05259766 20.62237793 -57.55050781 20.09241211 -57.03320312 19.54638672 C-54.27372384 16.6935875 -51.73990209 14.36700854 -48.1796875 12.52734375 C-47.49132813 12.16382813 -46.80296875 11.8003125 -46.09375 11.42578125 C-45.25585938 11.00554688 -44.41796875 10.5853125 -43.5546875 10.15234375 C-42.99080322 9.84095459 -42.42691895 9.52956543 -41.84594727 9.20874023 C-36.48501529 6.33727118 -31.15801621 4.79627936 -25.2421875 3.46484375 C-23.84081543 3.14350464 -23.84081543 3.14350464 -22.41113281 2.81567383 C-14.86597121 1.13216788 -7.70944143 0.33040463 0 0 Z " fill="#346791" transform="translate(110.5546875,32.84765625)"/>
<path d="M0 0 C1.42956024 0.00131424 1.42956024 0.00131424 2.88800049 0.00265503 C17.25294574 0.04623086 31.13556233 0.5196127 45.0625 4.375 C45.95469238 4.62169434 46.84688477 4.86838867 47.76611328 5.12255859 C78.94980992 14.08010432 112.00936627 33.82091562 129.0625 62.375 C145.09529119 93.26540398 136.08652457 134.63373772 128.0625 166.375 C127.79953125 167.41865723 127.5365625 168.46231445 127.265625 169.53759766 C119.4954932 199.83254166 108.48898555 229.73732571 94.03027344 257.49511719 C93.02018138 259.45720316 92.04165428 261.43252528 91.0703125 263.4140625 C86.72509379 272.26910753 82.05886657 280.87054626 77.0625 289.375 C83.00427829 289.53760283 88.41366145 288.9310539 94.25 287.875 C107.16153112 285.71513439 119.06020215 284.4291713 130.375 292.0625 C134.93599778 295.83146823 137.58631313 299.25619618 138.28125 305.26708984 C138.88101005 313.40320978 139.36166335 321.70784612 134.0625 328.375 C133.464375 329.14714844 132.86625 329.91929687 132.25 330.71484375 C119.20774845 346.27444164 101.41248615 356.01024193 82.0625 361.375 C80.99902344 361.67148437 79.93554688 361.96796875 78.83984375 362.2734375 C65.25766859 365.48232567 50.95300478 365.62419833 37.0625 366.375 C36.99518677 367.70168701 36.99518677 367.70168701 36.92651367 369.05517578 C33.63607621 432.24960493 33.63607621 432.24960493 21.0625 459.375 C20.65128906 460.30441406 20.24007813 461.23382813 19.81640625 462.19140625 C16.99239739 468.25608101 13.33253699 473.25095561 9.0625 478.375 C8.60230469 478.98085938 8.14210938 479.58671875 7.66796875 480.2109375 C-2.54404753 493.21875074 -19.32239252 500.39287106 -34.9375 504.375 C-36.59072266 504.82359375 -36.59072266 504.82359375 -38.27734375 505.28125 C-56.08787806 509.53216206 -75.21015799 509.6643346 -91.375 500.4375 C-109.55230035 488.61200992 -118.11660989 467.77771828 -122.75 447.1875 C-125.13961085 434.11569368 -126.2897072 421.05343642 -126.94287109 407.79931641 C-127.06378675 405.34892364 -127.19333149 402.89909736 -127.32421875 400.44921875 C-127.40674284 398.86200471 -127.4887916 397.27476588 -127.5703125 395.6875 C-127.60778595 394.96965332 -127.6452594 394.25180664 -127.68386841 393.51220703 C-127.91400896 388.79429118 -127.96864594 384.09858064 -127.9375 379.375 C-128.61554688 379.64054687 -129.29359375 379.90609375 -129.9921875 380.1796875 C-130.92289063 380.53289062 -131.85359375 380.88609375 -132.8125 381.25 C-133.71742188 381.59804688 -134.62234375 381.94609375 -135.5546875 382.3046875 C-143.7269793 384.89037798 -151.57545146 385.73729479 -160.125 385.6875 C-161.13167725 385.68258545 -162.13835449 385.6776709 -163.17553711 385.67260742 C-180.5067442 385.40217569 -198.86591083 381.45955081 -211.9375 369.375 C-211.9375 368.715 -211.9375 368.055 -211.9375 367.375 C-213.00677734 368.08076172 -213.00677734 368.08076172 -214.09765625 368.80078125 C-226.63384576 376.95014805 -237.63500668 380.25838732 -252.71875 377.94921875 C-273.29887815 372.50350302 -286.68651384 355.21309175 -297.04296875 337.76953125 C-302.19604023 328.53650214 -306.72251751 319.01323815 -311.0625 309.375 C-311.36285156 308.71282471 -311.66320312 308.05064941 -311.97265625 307.3684082 C-317.66722409 294.50522264 -322.13163769 281.16653656 -326.3125 267.75 C-326.66533554 266.62149124 -326.66533554 266.62149124 -327.02529907 265.47018433 C-340.47211923 222.34957244 -354.19604005 175.2064255 -354.125 129.75 C-354.12439575 129.0371283 -354.1237915 128.32425659 -354.12316895 127.58978271 C-354.09965995 117.38602045 -353.87895981 107.43329742 -351.9375 97.375 C-351.80327637 96.65747559 -351.66905273 95.93995117 -351.53076172 95.20068359 C-347.0807184 71.8465803 -336.95590744 45.85640112 -316.9375 31.375 C-316.2775 31.375 -315.6175 31.375 -314.9375 31.375 C-314.4425 29.89 -314.4425 29.89 -313.9375 28.375 C-287.20233403 7.40217077 -250.71248271 3.53419498 -218 7.0625 C-197.93102531 9.51684528 -178.11240448 13.98336517 -158.9375 20.375 C-157.32261946 19.48166183 -155.71365777 18.57591353 -154.13671875 17.6171875 C-136.65082927 7.7406105 -117.26545926 4.99584555 -97.5 5.125 C-96.80673615 5.12511078 -96.11347229 5.12522156 -95.39920044 5.12533569 C-86.47415704 5.12699545 -77.74143871 5.61089435 -68.875 6.6875 C-58.85359942 7.84867881 -50.22715704 6.28752264 -40.52734375 3.734375 C-27.0664869 0.30928796 -13.80596768 -0.0309524 0 0 Z M-52.66918945 21.85449219 C-58.78444843 23.5122793 -63.7037831 23.54609308 -69.9375 22.375 C-98.0102597 17.29729573 -129.41138925 18.22913097 -153.77734375 34.58984375 C-158.69231474 36.37629794 -164.58127842 34.02680825 -169.4375 32.6328125 C-170.64656006 32.29008301 -171.85562012 31.94735352 -173.10131836 31.59423828 C-174.3672583 31.23313965 -175.63319824 30.87204102 -176.9375 30.5 C-212.6631397 20.49092995 -255.33955735 14.29092273 -289.9375 31.375 C-290.62328125 31.68179687 -291.3090625 31.98859375 -292.015625 32.3046875 C-298.15626675 35.12538879 -303.79327175 39.00618851 -308.9375 43.375 C-308.9375 44.035 -308.9375 44.695 -308.9375 45.375 C-309.5975 45.375 -310.2575 45.375 -310.9375 45.375 C-310.9375 46.035 -310.9375 46.695 -310.9375 47.375 C-311.5975 47.375 -312.2575 47.375 -312.9375 47.375 C-332.60737093 70.27072977 -338.99053599 98.83571566 -339.1875 128.4375 C-339.19692627 129.48945557 -339.20635254 130.54141113 -339.21606445 131.62524414 C-339.15663328 146.13878554 -336.36702059 160.39534316 -333.75 174.625 C-333.52381485 175.86108002 -333.52381485 175.86108002 -333.2930603 177.12213135 C-330.70812044 191.15543564 -327.48656099 204.90166694 -323.67919922 218.65869141 C-322.6569186 222.40256704 -321.72952853 226.16675471 -320.8125 229.9375 C-318.85690178 237.81864475 -316.70244862 245.63915348 -314.48388672 253.44970703 C-314.02757445 255.05760629 -313.57747412 256.6672668 -313.12890625 258.27734375 C-311.46890581 264.06389897 -309.32833168 269.6108028 -307.125 275.2109375 C-306.09362116 277.95901929 -305.22657413 280.67547328 -304.4375 283.5 C-303.12805007 288.06100538 -301.28004054 292.22898592 -299.2578125 296.515625 C-297.89002579 299.47781397 -296.65841186 302.47459578 -295.4375 305.5 C-293.57942847 310.02757936 -291.46540317 314.23976939 -288.953125 318.4375 C-287.91924778 320.40981962 -287.38398459 322.20081416 -286.9375 324.375 C-286.2775 324.375 -285.6175 324.375 -284.9375 324.375 C-284.67066406 325.25671875 -284.40382813 326.1384375 -284.12890625 327.046875 C-279.17220185 340.89314435 -267.28433866 353.27672437 -254.5 360.25 C-245.63480083 363.04953658 -237.6263336 362.91021896 -228.9375 359.375 C-222.17771626 355.17062666 -216.90479386 349.52811998 -211.9375 343.375 C-211.133125 342.42625 -210.32875 341.4775 -209.5 340.5 C-207.74003652 338.54605274 -207.74003652 338.54605274 -207.9375 336.375 C-207.2775 336.375 -206.6175 336.375 -205.9375 336.375 C-204.73589965 335.00174245 -203.54426752 333.6185798 -202.40234375 332.1953125 C-197.53005761 326.14068493 -192.20250054 320.46747677 -186.93969727 314.75439453 C-183.51733675 311.03078039 -180.19217108 307.24541966 -176.9375 303.375 C-173.10679821 304.05225115 -169.5584205 305.13350015 -165.875 306.375 C-159.55292659 308.36688614 -153.54278341 309.13697177 -146.9375 309.375 C-148.24408755 313.13718425 -149.79928292 315.64752979 -152.5 318.5625 C-155.01992783 321.26127046 -155.01992783 321.26127046 -156.9375 324.375 C-163.88469785 328.53137021 -171.22958361 330.12771402 -179.0625 331.9375 C-181.54584562 332.51540964 -184.02768725 333.09982888 -186.5078125 333.69140625 C-187.59852051 333.94349854 -188.68922852 334.19559082 -189.81298828 334.45532227 C-193.09651363 335.42180453 -195.9269377 336.75882424 -198.9375 338.375 C-198.9375 339.035 -198.9375 339.695 -198.9375 340.375 C-199.5975 340.375 -200.2575 340.375 -200.9375 340.375 C-200.9375 341.035 -200.9375 341.695 -200.9375 342.375 C-201.5975 342.375 -202.2575 342.375 -202.9375 342.375 C-204.53779091 344.82250374 -204.94066286 346.2326715 -204.875 349.1875 C-202.97304968 355.65413109 -199.79848131 359.17547432 -194.125 362.5625 C-179.29407173 369.92859353 -160.84895065 372.22769645 -144.6875 368.125 C-143.08824129 367.58686081 -141.50251328 367.00583726 -139.9375 366.375 C-139.15503906 366.06175781 -138.37257812 365.74851562 -137.56640625 365.42578125 C-135.32298636 364.4686392 -133.13236794 363.438076 -130.9375 362.375 C-130.24785156 362.06691406 -129.55820313 361.75882812 -128.84765625 361.44140625 C-125.20217212 359.75510745 -122.21827166 357.90268154 -119.1953125 355.2421875 C-118.58059082 354.7044873 -117.96586914 354.16678711 -117.33251953 353.61279297 C-116.87216309 353.20432129 -116.41180664 352.79584961 -115.9375 352.375 C-115.91768066 353.4995459 -115.89786133 354.6240918 -115.87744141 355.78271484 C-117.73047389 418.18099374 -117.73047389 418.18099374 -97.9375 475.375 C-97.2775 475.375 -96.6175 475.375 -95.9375 475.375 C-95.73125 475.931875 -95.525 476.48875 -95.3125 477.0625 C-90.36566009 485.3821853 -79.80296564 489.78705342 -70.9375 492.375 C-69.9475 492.705 -68.9575 493.035 -67.9375 493.375 C-55.64108299 494.31880394 -44.84788858 492.75063805 -33.11816406 489.05859375 C-31.11564373 488.43084443 -29.10528786 487.85186706 -27.0859375 487.28125 C-17.15320761 484.19791921 -7.7988168 478.34450199 -0.9375 470.375 C-0.9375 469.715 -0.9375 469.055 -0.9375 468.375 C-0.2775 468.375 0.3825 468.375 1.0625 468.375 C16.67161242 448.21694624 17.35537159 415.80782914 19.86083984 391.49902344 C20.98519302 380.71993035 22.36021623 369.98038099 23.79272461 359.23876953 C23.95780518 357.99337402 24.12288574 356.74797852 24.29296875 355.46484375 C24.44145264 354.36003662 24.58993652 353.25522949 24.74291992 352.11694336 C25.12038436 349.33844598 25.12038436 349.33844598 25.0625 346.375 C26.19171875 346.69984375 26.19171875 346.69984375 27.34375 347.03125 C45.05558476 351.67415814 62.60332878 349.37331483 80 344.5 C81.3142395 344.13334229 81.3142395 344.13334229 82.6550293 343.75927734 C91.81399155 341.07055194 99.25928918 336.79544466 107.0625 331.375 C107.76375 330.90449219 108.465 330.43398438 109.1875 329.94921875 C110.85103882 328.81224363 112.46286531 327.6002521 114.0625 326.375 C114.0625 325.715 114.0625 325.055 114.0625 324.375 C114.7225 324.375 115.3825 324.375 116.0625 324.375 C116.0625 323.715 116.0625 323.055 116.0625 322.375 C116.7225 322.375 117.3825 322.375 118.0625 322.375 C121.22022316 318.69098965 122.96941396 315.3368891 123.4375 310.5 C123.252692 307.47416626 123.252692 307.47416626 122.0625 305.375 C121.4025 305.375 120.7425 305.375 120.0625 305.375 C120.0625 304.715 120.0625 304.055 120.0625 303.375 C113.57386938 299.65662948 106.29416116 301.07147124 99.22900391 302.45385742 C90.48311886 304.1539534 81.97417904 304.70636283 73.0625 304.75 C71.36287109 304.77030273 71.36287109 304.77030273 69.62890625 304.79101562 C62.61894613 304.75386036 56.64065008 303.81953264 50.0625 301.375 C50.68125 300.6325 51.3 299.89 51.9375 299.125 C54.57130881 295.71654155 56.0625 293.71095861 56.0625 289.375 C56.7225 289.375 57.3825 289.375 58.0625 289.375 C62.89938364 282.40682462 66.51245983 274.55100884 70.23828125 266.95703125 C72.07622069 263.28014748 74.1145125 259.73569459 76.1875 256.1875 C82.42969954 246.35491336 82.42969954 246.35491336 85.0625 235.375 C85.7225 235.375 86.3825 235.375 87.0625 235.375 C87.43761719 234.34761719 87.81273437 233.32023438 88.19921875 232.26171875 C90.53632099 225.91629032 92.8614567 219.62054145 95.75 213.5 C97.66417161 209.41035716 99.05337416 205.38686761 100.265625 201.04296875 C101.14683608 198.09263951 102.22165626 195.25440246 103.3125 192.375 C105.81985068 185.45319252 107.77814014 178.42057194 109.6875 171.3125 C110.1211084 169.69891602 110.1211084 169.69891602 110.56347656 168.05273438 C112.55554484 160.52815961 114.37360968 152.97320721 116.0625 145.375 C116.26359375 144.48127686 116.4646875 143.58755371 116.671875 142.66674805 C119.5002874 129.59893881 120.50060698 116.70516287 120.625 103.375 C120.63953217 102.64754578 120.65406433 101.92009155 120.66903687 101.17059326 C120.9050268 87.30065211 118.91227008 72.88005624 109.0625 62.375 C108.15357651 61.36451314 107.24615681 60.35267259 106.33984375 59.33984375 C103.61570005 56.31742299 100.85518276 53.33427922 98.0625 50.375 C97.49917969 49.76269531 96.93585938 49.15039062 96.35546875 48.51953125 C95.10070075 47.1540607 95.10070075 47.1540607 93.0625 47.375 C93.0625 46.715 93.0625 46.055 93.0625 45.375 C75.77746411 30.53020447 54.99279142 22.41579529 33.0625 17.375 C32.27875 17.18437988 31.495 16.99375977 30.6875 16.79736328 C3.31071726 10.29413749 -25.97642589 14.29988429 -52.66918945 21.85449219 Z " fill="#0D0D0D" transform="translate(353.9375,-0.37499999999999994)"/>
<path d="M0 0 C2.61087407 1.8868651 5.21941912 3.24345698 8.15258789 4.55566406 C8.15258789 5.21566406 8.15258789 5.87566406 8.15258789 6.55566406 C8.81258789 6.55566406 9.47258789 6.55566406 10.15258789 6.55566406 C10.15258789 7.21566406 10.15258789 7.87566406 10.15258789 8.55566406 C10.70946289 8.80316406 11.26633789 9.05066406 11.84008789 9.30566406 C14.57669702 10.78491224 16.82909658 12.49033846 19.15258789 14.55566406 C19.15258789 15.21566406 19.15258789 15.87566406 19.15258789 16.55566406 C19.81258789 16.55566406 20.47258789 16.55566406 21.15258789 16.55566406 C21.15258789 17.21566406 21.15258789 17.87566406 21.15258789 18.55566406 C21.81258789 18.55566406 22.47258789 18.55566406 23.15258789 18.55566406 C23.15258789 19.21566406 23.15258789 19.87566406 23.15258789 20.55566406 C23.81258789 20.55566406 24.47258789 20.55566406 25.15258789 20.55566406 C25.15258789 21.21566406 25.15258789 21.87566406 25.15258789 22.55566406 C25.81258789 22.55566406 26.47258789 22.55566406 27.15258789 22.55566406 C28.19902855 24.19357118 29.19240619 25.86574428 30.15258789 27.55566406 C30.92602539 28.51472656 30.92602539 28.51472656 31.71508789 29.49316406 C41.1455801 43.02387028 36.62472337 69.40238919 34.15258789 84.55566406 C34.04011719 85.27125488 33.92764648 85.9868457 33.81176758 86.72412109 C32.59061082 94.44633968 31.2101364 101.98378923 28.76977539 109.43066406 C28.16255436 111.52134914 27.86383003 113.4550446 27.65258789 115.61816406 C27.19347206 119.23370126 26.2920538 122.30770704 25.11547852 125.73950195 C23.97362854 129.0790657 22.87595083 132.43201778 21.77758789 135.78613281 C21.12538947 137.76515629 20.47210994 139.74382021 19.81860352 141.72241211 C19.372996 143.07442583 18.92899638 144.42697051 18.48657227 145.7800293 C17.83788772 147.76267909 17.18329471 149.74329601 16.52758789 151.72363281 C16.14344727 152.89176514 15.75930664 154.05989746 15.36352539 155.26342773 C14.17124979 158.50492703 12.73699938 161.49034674 11.15258789 164.55566406 C10.68013325 165.89803518 10.23928185 167.25221465 9.84008789 168.61816406 C8.0441767 174.18178584 5.56257934 179.38175202 3.05444336 184.65478516 C2.07039871 186.72889767 1.09711972 188.80785407 0.12524414 190.88769531 C-0.57377903 192.38127644 -1.27299576 193.87476701 -1.97241211 195.36816406 C-2.29685303 196.06103516 -2.62129395 196.75390625 -2.95556641 197.46777344 C-6.03458763 204.0117678 -9.09990209 210.52368787 -12.90991211 216.68066406 C-14.4720768 219.20830454 -15.92220662 221.70608878 -17.24584961 224.36816406 C-19.14839867 228.15470072 -21.24661669 231.78870506 -23.40991211 235.43066406 C-23.80887695 236.11902344 -24.2078418 236.80738281 -24.61889648 237.51660156 C-25.63798247 239.23152423 -26.73648441 240.89875862 -27.84741211 242.55566406 C-28.50741211 242.55566406 -29.16741211 242.55566406 -29.84741211 242.55566406 C-29.84741211 241.89566406 -29.84741211 241.23566406 -29.84741211 240.55566406 C-30.50741211 240.55566406 -31.16741211 240.55566406 -31.84741211 240.55566406 C-32.22513011 236.02304806 -32.22513011 236.02304806 -30.53100586 233.92675781 C-28.10576044 230.51115695 -27.01706508 226.8269396 -25.72241211 222.86816406 C-25.4581543 222.10310547 -25.19389648 221.33804688 -24.92163086 220.54980469 C-19.64550166 204.65446114 -21.52065048 187.3328831 -23.34741211 170.99316406 C-25.51797993 151.27612018 -25.43169154 132.58016243 -21.31958008 113.04858398 C-18.65346465 98.97221139 -20.5859607 86.21771024 -26.84741211 73.55566406 C-27.55156675 71.74956918 -28.24103532 69.93761902 -28.90991211 68.11816406 C-30.41498496 64.34611427 -32.24898881 61.01208812 -34.50366211 57.63769531 C-35.62996103 55.8925868 -36.66465392 54.08881979 -37.67553711 52.27441406 C-40.25892164 47.71282225 -43.37164818 43.5724606 -46.48803711 39.36621094 C-49.84741211 34.76206752 -49.84741211 34.76206752 -49.84741211 32.55566406 C-50.50741211 32.55566406 -51.16741211 32.55566406 -51.84741211 32.55566406 C-54.84741211 29.0941256 -54.84741211 29.0941256 -54.84741211 26.55566406 C-55.50741211 26.55566406 -56.16741211 26.55566406 -56.84741211 26.55566406 C-58.18725586 25.15722656 -58.18725586 25.15722656 -59.78491211 23.18066406 C-64.40980454 17.72641329 -70.37432577 10.79220723 -76.84741211 7.55566406 C-76.84741211 6.89566406 -76.84741211 6.23566406 -76.84741211 5.55566406 C-77.58088867 5.2965625 -78.31436523 5.03746094 -79.07006836 4.77050781 C-81.92330884 3.52246591 -83.895561 2.09864225 -86.28491211 0.11816406 C-89.63755607 -2.65871278 -92.92253067 -4.5623431 -96.84741211 -6.44433594 C-99.14334254 -7.66551989 -101.43500154 -8.89476695 -103.72241211 -10.13183594 C-105.45104492 -11.06576172 -105.45104492 -11.06576172 -107.21459961 -12.01855469 C-108.08342773 -12.4890625 -108.95225586 -12.95957031 -109.84741211 -13.44433594 C-109.84741211 -13.77433594 -109.84741211 -14.10433594 -109.84741211 -14.44433594 C-75.1892407 -22.95686927 -29.71705819 -22.10737191 0 0 Z " fill="#366891" transform="translate(425.847412109375,45.4443359375)"/>
<path d="M0 0 C0.57234375 0.37769531 1.1446875 0.75539062 1.734375 1.14453125 C7.23038503 5.64745036 8.51421941 12.35434558 10 19 C10.18336914 19.79631836 10.36673828 20.59263672 10.55566406 21.41308594 C15.46232174 43.60512648 18.01199515 71.2867102 10 93 C9.70496582 93.80179687 9.40993164 94.60359375 9.10595703 95.4296875 C6.88280773 101.34919749 4.47674601 107.18282885 2 113 C1.12389225 115.08286773 0.24870192 117.16612195 -0.625 119.25 C-1.00398438 120.15363281 -1.38296875 121.05726563 -1.7734375 121.98828125 C-3.3196406 125.78485 -4.79642446 129.60463714 -6.25 133.4375 C-6.50861816 134.11264648 -6.76723633 134.78779297 -7.03369141 135.48339844 C-8.33982638 138.96352058 -9.40559739 142.327441 -10 146 C-18.444467 145.73528317 -25.38844504 144.7223456 -33 141 C-33.96035156 140.56816406 -34.92070312 140.13632812 -35.91015625 139.69140625 C-39.37179142 137.79647828 -42.14457994 135.49658562 -45 132.8125 C-45.52327881 132.32491211 -46.04655762 131.83732422 -46.58569336 131.33496094 C-58.4997506 120.02431162 -64.44618988 104.83454954 -65.15625 88.37890625 C-65.09781957 83.96427843 -64.50655678 79.64273034 -63.93261719 75.27001953 C-62.42910799 63.68824719 -61.70875479 52.28761606 -61.75 40.625 C-61.75322266 39.36163818 -61.75644531 38.09827637 -61.75976562 36.79663086 C-61.83144849 29.65899839 -62.24803427 22.70286456 -63.18066406 15.62255859 C-63 13 -63 13 -61.13964844 11.13916016 C-59 10 -59 10 -57 10 C-57 9.34 -57 8.68 -57 8 C-16.6098132 -11.06157728 -16.6098132 -11.06157728 0 0 Z M-24 9 C-23.49607061 13.40938215 -22.0379639 15.78843816 -19 19 C-15.95604353 21.28296735 -12.79391717 21.42170477 -9.03125 21.31640625 C-5.60398018 20.78254307 -3.56161379 19.25665977 -1 17 C0.41190564 14.39562767 0.41190564 14.39562767 1 12 C-4.05039972 7.31914173 -8.10653399 5.47675094 -15.0625 4.625 C-18.84874981 5.10835104 -20.99914284 6.71363264 -24 9 Z " fill="#356791" transform="translate(219,151)"/>
<path d="M0 0 C0.92296875 0.00064453 1.8459375 0.00128906 2.796875 0.00195312 C6.75635393 0.02777581 10.29805297 0.09229178 14.125 1.1875 C14.26140399 6.81416467 13.94460982 12.03037032 13.05737305 17.58178711 C10.03180861 36.69016557 9.71950094 56.70271474 12.66796875 75.8359375 C13.46783656 82.16861875 13.39608044 88.56446413 13.4375 94.9375 C13.46360352 96.76885498 13.46360352 96.76885498 13.49023438 98.63720703 C13.4847821 108.67893946 12.25607358 118.39137387 7.125 127.1875 C6.465 127.1875 5.805 127.1875 5.125 127.1875 C4.61710937 126.08792969 4.10921875 124.98835938 3.5859375 123.85546875 C-0.30841503 115.47187235 -4.3344127 107.24457474 -8.875 99.1875 C-11.97407418 93.57042804 -15.06013714 87.95730269 -17.8828125 82.1953125 C-18.58968624 80.76486722 -19.31579495 79.34385934 -20.0546875 77.9296875 C-23.53703428 71.20291825 -26.28915146 64.30280874 -28.875 57.1875 C-29.24882812 56.18460938 -29.62265625 55.18171875 -30.0078125 54.1484375 C-35.25430148 39.41940546 -36.73324958 25.1381847 -31.875 10.1875 C-31.215 10.1875 -30.555 10.1875 -29.875 10.1875 C-29.875 9.5275 -29.875 8.8675 -29.875 8.1875 C-29.215 8.1875 -28.555 8.1875 -27.875 8.1875 C-27.875 7.5275 -27.875 6.8675 -27.875 6.1875 C-19.14650556 0.49500363 -10.23646154 -0.13932147 0 0 Z M-22.875 13.1875 C-21.97719178 16.20740039 -21.1624281 17.92620172 -18.8125 20.0625 C-14.62111727 21.66771041 -11.15963527 21.46823337 -6.875 20.1875 C-3.98908789 17.96294275 -2.36868966 16.33944254 -0.9375 13 C-0.916875 12.401875 -0.89625 11.80375 -0.875 11.1875 C-6.87723636 5.18526364 -16.8496472 9.04506995 -22.875 13.1875 Z " fill="#386992" transform="translate(378.875,144.8125)"/>
<path d="M0 0 C4.54559624 1.68355416 7.90467548 3.83519619 10.5 8.09765625 C12.28286635 12.4831891 12.36416264 16.64611957 11.375 21.25 C8.8991402 25.18627479 5.83036241 28.16335004 2.375 31.25 C1.6325 31.92289062 0.89 32.59578125 0.125 33.2890625 C-9.63305531 41.47885892 -21.56651468 44.64711217 -34.125 44.625 C-34.98923584 44.62483887 -35.85347168 44.62467773 -36.74389648 44.62451172 C-45.75683939 44.46724667 -55.99129191 43.33913873 -63.625 38.25 C-63.295 37.26 -62.965 36.27 -62.625 35.25 C-60.65063477 34.40625 -60.65063477 34.40625 -58.06640625 33.75 C-57.12216797 33.5025 -56.17792969 33.255 -55.20507812 33 C-54.20927734 32.7525 -53.21347656 32.505 -52.1875 32.25 C-50.2509777 31.75125784 -48.31477732 31.25126399 -46.37890625 30.75 C-45.42161621 30.50290283 -44.46432617 30.25580566 -43.47802734 30.0012207 C-32.09922844 27.00510876 -23.53339619 24.00807284 -16.81640625 13.7890625 C-16.42324219 13.28117187 -16.03007812 12.77328125 -15.625 12.25 C-14.965 12.25 -14.305 12.25 -13.625 12.25 C-13.3775 11.2290625 -13.3775 11.2290625 -13.125 10.1875 C-10.34971461 4.75256612 -6.24228796 0.43050262 0 0 Z " fill="#3C6C94" transform="translate(227.625,311.75)"/>
<path d="M0 0 C0.804375 0.45375 1.60875 0.9075 2.4375 1.375 C21.07554834 9.87656591 42.51026454 5.82249603 62 3 C61.67 3.99 61.34 4.98 61 6 C60.34 6 59.68 6 59 6 C59 6.66 59 7.32 59 8 C40.33377011 24.01340652 14.57722014 26.13217167 -8.83984375 24.84375 C-12.60285706 24.50221232 -14.80938741 24.12707506 -18 22 C-19.24711934 16.21678973 -18.06746859 9.03508824 -15 4 C-10.72045562 0.76359456 -5.23415881 -1.79456873 0 0 Z " fill="#3A6B93" transform="translate(398,311)"/>
<path d="M0 0 C0.92296875 0.00064453 1.8459375 0.00128906 2.796875 0.00195312 C6.75635393 0.02777581 10.29805297 0.09229178 14.125 1.1875 C14.1520043 2.64573212 14.17139787 4.10410675 14.1875 5.5625 C14.19910156 6.37460938 14.21070313 7.18671875 14.22265625 8.0234375 C14.125 10.1875 14.125 10.1875 13.125 12.1875 C12.465 12.1875 11.805 12.1875 11.125 12.1875 C11.063125 11.56101563 11.00125 10.93453125 10.9375 10.2890625 C10.669375 9.59554687 10.40125 8.90203125 10.125 8.1875 C7.84091689 7.11727049 7.84091689 7.11727049 5.125 6.5625 C3.4447555 6.15675914 1.77321835 5.70829122 0.125 5.1875 C-0.37 4.1975 -0.37 4.1975 -0.875 3.1875 C-5.95803686 3.07429144 -5.95803686 3.07429144 -10.875 4.1875 C-12.53862417 4.53570041 -14.20495171 4.87154492 -15.875 5.1875 C-16.205 6.1775 -16.535 7.1675 -16.875 8.1875 C-14.565 8.1875 -12.255 8.1875 -9.875 8.1875 C-9.875 8.5175 -9.875 8.8475 -9.875 9.1875 C-11.091875 9.47625 -12.30875 9.765 -13.5625 10.0625 C-16.08699912 10.68247417 -18.28061206 11.35875843 -20.6875 12.375 C-22.875 13.1875 -22.875 13.1875 -25.875 12.1875 C-27.57750393 13.47475907 -29.24564759 14.80881719 -30.875 16.1875 C-31.535 16.1875 -32.195 16.1875 -32.875 16.1875 C-32.545 14.2075 -32.215 12.2275 -31.875 10.1875 C-31.215 10.1875 -30.555 10.1875 -29.875 10.1875 C-29.875 9.5275 -29.875 8.8675 -29.875 8.1875 C-29.215 8.1875 -28.555 8.1875 -27.875 8.1875 C-27.875 7.5275 -27.875 6.8675 -27.875 6.1875 C-19.14650556 0.49500363 -10.23646154 -0.13932147 0 0 Z " fill="#5B81A0" transform="translate(378.875,144.8125)"/>
<path d="M0 0 C2.9719385 1.12451727 5.33440687 2.22293791 8 4 C6.23071897 8.98615564 3.63863552 13.43604431 1 18 C0.64389648 18.6192334 0.28779297 19.2384668 -0.07910156 19.87646484 C-1.27279971 21.94392629 -2.47855243 24.00392355 -3.6875 26.0625 C-4.0801001 26.74231934 -4.4727002 27.42213867 -4.87719727 28.12255859 C-5.86209482 29.78291742 -6.92477014 31.39666118 -8 33 C-8.66 33 -9.32 33 -10 33 C-10 32.34 -10 31.68 -10 31 C-10.66 31 -11.32 31 -12 31 C-12.37849944 26.45800672 -12.37849944 26.45800672 -10.6796875 24.40234375 C-8.19536697 20.84918764 -7.20248031 16.93096532 -5.9375 12.8125 C-5.43272445 11.17102586 -4.92133824 9.53156528 -4.40234375 7.89453125 C-4.18054443 7.17112549 -3.95874512 6.44771973 -3.73022461 5.70239258 C-3 4 -3 4 -1 3 C-0.67 2.01 -0.34 1.02 0 0 Z " fill="#33648E" transform="translate(406,255)"/>
<path d="M0 0 C5.8684281 0 9.01356532 3.04753391 13.0703125 6.87890625 C15.46940441 9.51596476 16.53715566 11.4515267 17 15 C16.8125 18.25 16.8125 18.25 16 21 C15.01 21.66 14.02 22.32 13 23 C13 22.01 13 21.02 13 20 C12.01 20.66 11.02 21.32 10 22 C9.01 22 8.02 22 7 22 C7.99 18.535 7.99 18.535 9 15 C5.0949151 11.44992282 2.02265357 10.18180084 -3 9 C-2.34 8.67 -1.68 8.34 -1 8 C-0.67 7.01 -0.34 6.02 0 5 C0.66 5 1.32 5 2 5 C2.33 4.34 2.66 3.68 3 3 C2.34 3 1.68 3 1 3 C0.67 2.01 0.34 1.02 0 0 Z " fill="#406F96" transform="translate(210,148)"/>
<path d="M0 0 C3.41664873 -0.02908357 6.8332655 -0.04682691 10.25 -0.0625 C11.70212891 -0.07506836 11.70212891 -0.07506836 13.18359375 -0.08789062 C14.11816406 -0.09111328 15.05273438 -0.09433594 16.015625 -0.09765625 C16.87446289 -0.10289307 17.73330078 -0.10812988 18.61816406 -0.11352539 C20.88670744 -0.00539986 22.82631715 0.36417577 25 1 C25.0270043 2.45823212 25.04639787 3.91660675 25.0625 5.375 C25.07410156 6.18710938 25.08570313 6.99921875 25.09765625 7.8359375 C25 10 25 10 24 12 C23.34 12 22.68 12 22 12 C21.938125 11.37351563 21.87625 10.74703125 21.8125 10.1015625 C21.544375 9.40804687 21.27625 8.71453125 21 8 C18.71591689 6.92977049 18.71591689 6.92977049 16 6.375 C14.3197555 5.96925914 12.64821835 5.52079122 11 5 C10.67 4.34 10.34 3.68 10 3 C5.83861737 2.91840426 2.0527516 3.01751476 -2 4 C-1.34 2.68 -0.68 1.36 0 0 Z " fill="#577D9C" transform="translate(368,145)"/>
<path d="M0 0 C4.769182 1.42238761 7.9974393 3.54875524 10.703125 7.89453125 C12.38520253 12.13795411 12.22627176 16.5965405 11.5625 21.0625 C10.15316682 23.6405485 8.75103807 25.03810228 6.5625 27.0625 C5.9025 26.4025 5.2425 25.7425 4.5625 25.0625 C4.9375 21.9375 4.9375 21.9375 5.5625 19.0625 C6.5525 19.0625 7.5425 19.0625 8.5625 19.0625 C9.93682457 15.24493176 9.24225039 11.98994671 8.5625 8.0625 C7.5725 7.7325 6.5825 7.4025 5.5625 7.0625 C5.2325 6.0725 4.9025 5.0825 4.5625 4.0625 C-0.2272321 3.82821687 -0.2272321 3.82821687 -4.4375 6.0625 C-4.7675 5.4025 -5.0975 4.7425 -5.4375 4.0625 C-6.0975 5.0525 -6.7575 6.0425 -7.4375 7.0625 C-7.7675 6.0725 -8.0975 5.0825 -8.4375 4.0625 C-5.53864613 1.16364613 -4.17157265 0.07584678 0 0 Z " fill="#597C96" transform="translate(227.4375,311.9375)"/>
<path d="M0 0 C0.66 0 1.32 0 2 0 C2 0.66 2 1.32 2 2 C2.66 2 3.32 2 4 2 C7 6.38461538 7 6.38461538 7 9 C8.98491642 8.73323796 8.98491642 8.73323796 11 8 C11.33 7.01 11.66 6.02 12 5 C12.66 5 13.32 5 14 5 C14.33 3.68 14.66 2.36 15 1 C14.53444296 7.40140935 12.85288164 12.26769829 10 18 C9.34 18 8.68 18 8 18 C5.36 12.06 2.72 6.12 0 0 Z " fill="#51799A" transform="translate(376,254)"/>
<path d="M0 0 C2.05078125 0.03255208 4.1015625 0.06510417 6.15234375 0.09765625 C6.15234375 1.41765625 6.15234375 2.73765625 6.15234375 4.09765625 C5.49234375 4.09765625 4.83234375 4.09765625 4.15234375 4.09765625 C4.15234375 4.75765625 4.15234375 5.41765625 4.15234375 6.09765625 C-0.79765625 6.09765625 -5.74765625 6.09765625 -10.84765625 6.09765625 C-10.51765625 4.77765625 -10.18765625 3.45765625 -9.84765625 2.09765625 C-8.71328125 1.95328125 -7.57890625 1.80890625 -6.41015625 1.66015625 C-3.51115113 1.2024186 -2.54328457 0.13442307 0 0 Z " fill="#34658D" transform="translate(372.84765625,146.90234375)"/>
<path d="M0 0 C5.86440583 0 9.05719802 3.05294866 13.140625 6.85546875 C15.43316665 9.49959766 16.08744538 11.50218476 16 15 C15.01 15.495 15.01 15.495 14 16 C14 14.02 14 12.04 14 10 C12.35 10 10.7 10 9 10 C8.67 8.35 8.34 6.7 8 5 C7.01 5.33 6.02 5.66 5 6 C4.7226499 9.18490007 4.7226499 9.18490007 7 12 C3.7 11.01 0.4 10.02 -3 9 C-2.34 8.67 -1.68 8.34 -1 8 C-0.67 7.01 -0.34 6.02 0 5 C0.66 5 1.32 5 2 5 C2.33 4.34 2.66 3.68 3 3 C2.34 3 1.68 3 1 3 C0.67 2.01 0.34 1.02 0 0 Z " fill="#799AB2" transform="translate(210,148)"/>
<path d="M0 0 C1.32 0.66 2.64 1.32 4 2 C-6.80779934 7.78989251 -21.04841682 6.15065021 -33 6 C-33 5.34 -33 4.68 -33 4 C-32.0713916 3.9498877 -31.1427832 3.89977539 -30.18603516 3.84814453 C-26.74526455 3.65802051 -23.30518821 3.45955194 -19.86523438 3.25537109 C-18.37551732 3.16867657 -16.8856018 3.08532576 -15.39550781 3.00537109 C-13.25525053 2.88995109 -11.11599208 2.76257494 -8.9765625 2.6328125 C-7.68830566 2.55949707 -6.40004883 2.48618164 -5.07275391 2.41064453 C-1.89809648 2.30290336 -1.89809648 2.30290336 0 0 Z " fill="#7493AC" transform="translate(425,330)"/>
<path d="M0 0 C0.5534764 2.07553648 1 3.84365964 1 6 C2.32 5.67 3.64 5.34 5 5 C3.43358249 9.30764815 1.31663844 13.06171464 -1 17 C-1.66 17 -2.32 17 -3 17 C-3 16.34 -3 15.68 -3 15 C-3.66 15 -4.32 15 -5 15 C-5.35286978 10.76556263 -4.5763408 9.26997101 -2 6 C-1.27648573 4.01985568 -0.59734611 2.02178685 0 0 Z " fill="#839EB6" transform="translate(399,271)"/>
<path d="M0 0 C0.99 0.66 1.98 1.32 3 2 C3 2.66 3 3.32 3 4 C3.66 4 4.32 4 5 4 C5 4.66 5 5.32 5 6 C3.73581754 6.69965443 2.46334598 7.38434763 1.1875 8.0625 C0.47980469 8.44535156 -0.22789062 8.82820313 -0.95703125 9.22265625 C-3 10 -3 10 -6 9 C-6.625 6.125 -6.625 6.125 -7 3 C-6.34 2.34 -5.68 1.68 -5 1 C-2.875 1.375 -2.875 1.375 -1 2 C-0.67 1.34 -0.34 0.68 0 0 Z " fill="#457298" transform="translate(384,293)"/>
<path d="M0 0 C-0.33 0.99 -0.66 1.98 -1 3 C-1.66 3 -2.32 3 -3 3 C-3 3.66 -3 4.32 -3 5 C-5.5 6.625 -5.5 6.625 -8 8 C-8.33 7.01 -8.66 6.02 -9 5 C-13.95 4.67 -18.9 4.34 -24 4 C-24 3.67 -24 3.34 -24 3 C-20.56299372 2.49656628 -17.12531992 1.99784476 -13.6875 1.5 C-12.71103516 1.35691406 -11.73457031 1.21382813 -10.72851562 1.06640625 C-9.79072266 0.93105469 -8.85292969 0.79570312 -7.88671875 0.65625 C-7.02264404 0.53056641 -6.15856934 0.40488281 -5.26831055 0.27539062 C-3 0 -3 0 0 0 Z " fill="#7795AE" transform="translate(460,314)"/>
<path d="M0 0 C0.99 0.66 1.98 1.32 3 2 C2.01 2.33 1.02 2.66 0 3 C0 3.66 0 4.32 0 5 C0.66 5 1.32 5 2 5 C2 5.66 2 6.32 2 7 C2.66 7.33 3.32 7.66 4 8 C3.01 8.99 2.02 9.98 1 11 C0.21625 10.649375 -0.5675 10.29875 -1.375 9.9375 C-2.24125 9.628125 -3.1075 9.31875 -4 9 C-4.99 9.495 -4.99 9.495 -6 10 C-6.33 8.35 -6.66 6.7 -7 5 C-4.69 3.35 -2.38 1.7 0 0 Z " fill="#326590" transform="translate(353,156)"/>
<path d="M0 0 C-1.32 0.33 -2.64 0.66 -4 1 C-3.67 1.99 -3.34 2.98 -3 4 C-3.71285156 4.01417969 -4.42570312 4.02835938 -5.16015625 4.04296875 C-12.03796107 4.3741199 -12.03796107 4.3741199 -17.9375 7.625 C-19.4534375 8.800625 -19.4534375 8.800625 -21 10 C-23.19140625 9.6484375 -23.19140625 9.6484375 -25 9 C-22.68522559 5.52783839 -21.65225884 5.24566611 -17.8125 3.9375 C-16.82636719 3.60105469 -15.84023437 3.26460937 -14.82421875 2.91796875 C-13.42623047 2.46357422 -13.42623047 2.46357422 -12 2 C-11.30519531 1.76925781 -10.61039063 1.53851563 -9.89453125 1.30078125 C-6.51644541 0.24932407 -3.53400262 -0.21418198 0 0 Z " fill="#7998AF" transform="translate(91,36)"/>
<path d="M0 0 C2.56382279 2.56382279 2.25703311 3.56374315 2.265625 7.12109375 C2.26820312 8.13880859 2.27078125 9.15652344 2.2734375 10.20507812 C2.26570313 11.27177734 2.25796875 12.33847656 2.25 13.4375 C2.25773437 14.50033203 2.26546875 15.56316406 2.2734375 16.65820312 C2.27085938 17.67720703 2.26828125 18.69621094 2.265625 19.74609375 C2.26336914 20.68122803 2.26111328 21.6163623 2.25878906 22.57983398 C2 25 2 25 0 28 C-1.29361994 25.41276011 -1.12948949 23.51886997 -1.1328125 20.625 C-1.13410156 19.55765625 -1.13539062 18.4903125 -1.13671875 17.390625 C-1.13285156 16.27171875 -1.12898438 15.1528125 -1.125 14 C-1.12886719 12.88109375 -1.13273437 11.7621875 -1.13671875 10.609375 C-1.13542969 9.54203125 -1.13414063 8.4746875 -1.1328125 7.375 C-1.13168457 6.39273438 -1.13055664 5.41046875 -1.12939453 4.3984375 C-1 2 -1 2 0 0 Z " fill="#5D82A2" transform="translate(29,114)"/>
<path d="M0 0 C0.33 0.66 0.66 1.32 1 2 C1.69867188 1.96519531 2.39734375 1.93039062 3.1171875 1.89453125 C4.02726563 1.86746094 4.93734375 1.84039062 5.875 1.8125 C6.77992188 1.77769531 7.68484375 1.74289062 8.6171875 1.70703125 C9.79667969 1.85205078 9.79667969 1.85205078 11 2 C11.99 3.485 11.99 3.485 13 5 C16.55672179 6.2188121 16.55672179 6.2188121 20 7 C19.67 7.99 19.34 8.98 19 10 C14 8 14 8 11.6875 6.96875 C8.78048761 5.92087344 6.26333096 5.59734923 3.1875 5.375 C2.21167969 5.30023438 1.23585937 5.22546875 0.23046875 5.1484375 C-0.50558594 5.09945313 -1.24164063 5.05046875 -2 5 C-2 4.34 -2 3.68 -2 3 C-1.34 3 -0.68 3 0 3 C0 2.01 0 1.02 0 0 Z " fill="#7392AA" transform="translate(223,295)"/>
<path d="M0 0 C1.65 0.33 3.3 0.66 5 1 C5.33 2.32 5.66 3.64 6 5 C7.32 5.33 8.64 5.66 10 6 C10 7.32 10 8.64 10 10 C5.60357652 9.4975516 3.2051018 8.02704059 0 5 C-0.33 4.01 -0.66 3.02 -1 2 C-0.67 1.34 -0.34 0.68 0 0 Z " fill="#35668E" transform="translate(214,152)"/>
<path d="M0 0 C3.95418664 3.95418664 3.05508746 11.32320998 3.09765625 16.69140625 C3.09111091 18.64846164 3.07933714 20.60550609 3.0625 22.5625 C3.05798828 23.57119141 3.05347656 24.57988281 3.04882812 25.61914062 C3.03716769 28.07949147 3.02080378 30.53971239 3 33 C2.67 33 2.34 33 2 33 C1.67 26.73 1.34 20.46 1 14 C0.34 14 -0.32 14 -1 14 C-1.08226668 10.95613276 -0.97608217 8.92824652 0 6 C0.03920815 4.00038436 0.04443347 1.99950636 0 0 Z " fill="#6D8FAB" transform="translate(459,81)"/>
<path d="M0 0 C1.98 0.99 1.98 0.99 4 2 C4 2.99 4 3.98 4 5 C4.66 5 5.32 5 6 5 C7.28006797 6.78398614 8.47660351 8.62853906 9.625 10.5 C10.25664062 11.5209375 10.88828125 12.541875 11.5390625 13.59375 C12.02117187 14.3878125 12.50328125 15.181875 13 16 C12.01 16 11.02 16 10 16 C6.31332089 12.15412338 0 5.51883764 0 0 Z " fill="#6E8EA9" transform="translate(260,456)"/>
<path d="M0 0 C-0.25 1.875 -0.25 1.875 -1 4 C-3.46936588 5.6178604 -6.06895792 6.62180102 -9 7 C-9.99 6.34 -10.98 5.68 -12 5 C-11.67 4.01 -11.34 3.02 -11 2 C-7.24092359 0.37676246 -4.07913787 -0.23994929 0 0 Z " fill="#5E83A0" transform="translate(176,345)"/>
<path d="M0 0 C0.33 0 0.66 0 1 0 C1.03758423 1.01199463 1.03758423 1.01199463 1.07592773 2.04443359 C1.1932631 5.15475193 1.31535527 8.26486696 1.4375 11.375 C1.47681641 12.43589844 1.51613281 13.49679688 1.55664062 14.58984375 C1.81593174 21.09206713 2.26216036 27.53417092 3 34 C0 30.375 0 30.375 0 27 C-0.66 26.67 -1.32 26.34 -2 26 C-1.84152588 25.44731445 -1.68305176 24.89462891 -1.51977539 24.32519531 C-0.95067733 21.77935695 -0.7896572 19.40300555 -0.68359375 16.796875 C-0.64169922 15.8171875 -0.59980469 14.8375 -0.55664062 13.828125 C-0.51732422 12.81234375 -0.47800781 11.7965625 -0.4375 10.75 C-0.39431641 9.71875 -0.35113281 8.6875 -0.30664062 7.625 C-0.20074318 5.0834613 -0.09866557 2.54182804 0 0 Z " fill="#85A3BB" transform="translate(388,185)"/>
<path d="M0 0 C0.99 0 1.98 0 3 0 C3 2.31 3 4.62 3 7 C0.95775363 6.88485851 -1.08380159 6.75742674 -3.125 6.625 C-4.26195312 6.55539062 -5.39890625 6.48578125 -6.5703125 6.4140625 C-9.95393616 6.00556124 -12.81612441 5.19032431 -16 4 C-16 3.67 -16 3.34 -16 3 C-9.9981863 2.78175223 -4.80766296 3.4943096 1 5 C0.67 3.35 0.34 1.7 0 0 Z " fill="#6B8BA6" transform="translate(206,290)"/>
<path d="M0 0 C0.33 0 0.66 0 1 0 C1.15490223 5.73138244 0.65244885 10.89349206 -0.5 16.5 C-0.64308594 17.22703125 -0.78617187 17.9540625 -0.93359375 18.703125 C-1.28233698 20.47009071 -1.64019723 22.23525309 -2 24 C-2.33 24 -2.66 24 -3 24 C-3 17.4 -3 10.8 -3 4 C-2.01 4 -1.02 4 0 4 C0 2.68 0 1.36 0 0 Z " fill="#6789A3" transform="translate(359,394)"/>
<path d="M0 0 C0.66 0 1.32 0 2 0 C0.42550092 5.65033002 -1.32106891 10.76390742 -4 16 C-4.69907414 18.73572585 -4.69907414 18.73572585 -5 21 C-7 18 -7 18 -7 14 C-6.34 14 -5.68 14 -5 14 C-4.67 12.02 -4.34 10.04 -4 8 C-3.34 8 -2.68 8 -2 8 C-1.7834375 6.576875 -1.7834375 6.576875 -1.5625 5.125 C-1 2 -1 2 0 0 Z " fill="#7C97AF" transform="translate(441,194)"/>
<path d="M0 0 C2.16783058 1.75049421 2.93493272 2.66613019 3.4765625 5.4453125 C3.52554688 6.32960937 3.57453125 7.21390625 3.625 8.125 C3.56533788 11.36911814 3.56533788 11.36911814 5 14 C5.07205511 15.68608966 5.08386068 17.37500659 5.0625 19.0625 C5.05347656 19.98160156 5.04445313 20.90070313 5.03515625 21.84765625 C5.02355469 22.55792969 5.01195312 23.26820313 5 24 C4.67 24 4.34 24 4 24 C3.32338 21.31466436 2.65853879 18.627275 2 15.9375 C1.80921875 15.18533203 1.6184375 14.43316406 1.421875 13.65820312 C0.2858904 8.97226664 -0.20486266 4.82067454 0 0 Z " fill="#718DA6" transform="translate(33,169)"/>
<path d="M0 0 C0.33 0.66 0.66 1.32 1 2 C1.5775 2.268125 2.155 2.53625 2.75 2.8125 C5.72207612 4.38109573 7.70251569 6.57487767 10 9 C7.00507424 9.68066494 4.69912251 10.17005683 1.6875 9.4375 C0 8 0 8 -0.8125 5 C-1 2 -1 2 0 0 Z " fill="#5680A4" transform="translate(435,52)"/>
<path d="M0 0 C0 0.33 0 0.66 0 1 C-4.29 1 -8.58 1 -13 1 C-13 1.66 -13 2.32 -13 3 C-15 4.625 -15 4.625 -17 6 C-17.33 5.34 -17.66 4.68 -18 4 C-20.97 4 -23.94 4 -27 4 C-19.06581413 -1.28945725 -9.13927594 -0.21674172 0 0 Z " fill="#7297AF" transform="translate(210,147)"/>
<path d="M0 0 C0.45375 0.495 0.9075 0.99 1.375 1.5 C2.87635519 3.22609337 2.87635519 3.22609337 5 3 C4.67 4.32 4.34 5.64 4 7 C3.34 7 2.68 7 2 7 C2 7.66 2 8.32 2 9 C0.68 9 -0.64 9 -2 9 C-2 10.32 -2 11.64 -2 13 C-2.66 13 -3.32 13 -4 13 C-3.71517632 11.58194169 -3.42181856 10.16559621 -3.125 8.75 C-2.96257812 7.96109375 -2.80015625 7.1721875 -2.6328125 6.359375 C-2.00849925 4.03168856 -1.15161458 2.10968048 0 0 Z " fill="#577F9F" transform="translate(169,93)"/>
<path d="M0 0 C-2.05290548 1.02645274 -4.09975903 2.04560413 -6.1875 3 C-8.17201523 3.87144569 -8.17201523 3.87144569 -9 6 C-12.35595828 5.40072174 -14.37801226 4.15377564 -17 2 C-11.19233704 0.4943096 -6.0018137 -0.21824777 0 0 Z " fill="#60819B" transform="translate(333,29)"/>
<path d="M0 0 C0 0.99 0 1.98 0 3 C-1.0725 3.144375 -2.145 3.28875 -3.25 3.4375 C-6.79185272 3.87954706 -6.79185272 3.87954706 -9.3125 4.6875 C-9.869375 4.790625 -10.42625 4.89375 -11 5 C-11.66 4.34 -12.32 3.68 -13 3 C-11.5903653 2.29819469 -10.17192359 1.61406042 -8.75 0.9375 C-7.96109375 0.55464844 -7.1721875 0.17179687 -6.359375 -0.22265625 C-3.74006478 -1.08564091 -2.55144824 -0.93045933 0 0 Z " fill="#63879F" transform="translate(398,311)"/>
<path d="M0 0 C0.99 0 1.98 0 3 0 C4.6875 2.5 4.6875 2.5 6 5 C4.68 5.33 3.36 5.66 2 6 C2.33 7.32 2.66 8.64 3 10 C1.62437146 8.71034824 0.29233607 7.37310707 -1 6 C-1 5.34 -1 4.68 -1 4 C-1.66 4 -2.32 4 -3 4 C-3.33 3.01 -3.66 2.02 -4 1 C-2.68 1.33 -1.36 1.66 0 2 C0 1.34 0 0.68 0 0 Z " fill="#5680A3" transform="translate(377,74)"/>
<path d="M0 0 C0.33 0.99 0.66 1.98 1 3 C-1.97 3 -4.94 3 -8 3 C-8 3.66 -8 4.32 -8 5 C-10.97 4.67 -13.94 4.34 -17 4 C-13.89069252 2.44534626 -11.78638601 1.58404904 -8.5 0.875 C-7.7471875 0.70742188 -6.994375 0.53984375 -6.21875 0.3671875 C-4 0 -4 0 0 0 Z " fill="#6284A0" transform="translate(242,33)"/>
<path d="M0 0 C0.66 0.33 1.32 0.66 2 1 C1.67 1.99 1.34 2.98 1 4 C0.34 4 -0.32 4 -1 4 C-1 8.62 -1 13.24 -1 18 C-3.72083309 15.27916691 -3.52826707 13.35541993 -3.875 9.5625 C-3.99617187 8.40878906 -4.11734375 7.25507813 -4.2421875 6.06640625 C-4 3 -4 3 -2.0078125 1.08984375 C-1.34523437 0.73019531 -0.68265625 0.37054688 0 0 Z " fill="#5B7E9A" transform="translate(160,161)"/>
<path d="M0 0 C3.18613027 0.88503619 4.45314911 1.33734879 6.375 3.9375 C4.38932292 3.87239583 2.40364583 3.80729167 0.41796875 3.7421875 C-1.93859719 3.80495538 -1.93859719 3.80495538 -4.625 5.9375 C-4.955 5.2775 -5.285 4.6175 -5.625 3.9375 C-6.285 4.9275 -6.945 5.9175 -7.625 6.9375 C-7.955 5.9475 -8.285 4.9575 -8.625 3.9375 C-5.60841292 0.92091292 -4.35486256 -0.07508384 0 0 Z " fill="#6F90A9" transform="translate(227.625,312.0625)"/>
<path d="M0 0 C0.66 0 1.32 0 2 0 C2 1.65 2 3.3 2 5 C1.01 5 0.02 5 -1 5 C-0.67 6.32 -0.34 7.64 0 9 C-1.65 9.66 -3.3 10.32 -5 11 C-4.67 8.36 -4.34 5.72 -4 3 C-3.01 3.33 -2.02 3.66 -1 4 C-0.67 2.68 -0.34 1.36 0 0 Z " fill="#316692" transform="translate(404,267)"/>
<path d="M0 0 C1.3274855 3.98245651 -0.00092171 6.44789543 -1.4375 10.1875 C-1.80198242 11.16879883 -1.80198242 11.16879883 -2.17382812 12.16992188 C-2.7743293 13.78303286 -3.38609203 15.3919435 -4 17 C-4.33 17 -4.66 17 -5 17 C-5 15.02 -5 13.04 -5 11 C-4.34 11 -3.68 11 -3 11 C-3.20625 9.72125 -3.4125 8.4425 -3.625 7.125 C-3.9765625 4.9453125 -3.9765625 4.9453125 -4 3 C-3.34 2.34 -2.68 1.68 -2 1 C-1.34 1.33 -0.68 1.66 0 2 C0 1.34 0 0.68 0 0 Z " fill="#6089A7" transform="translate(215,273)"/>
<path d="M0 0 C1.32 0.66 2.64 1.32 4 2 C3.67 2.66 3.34 3.32 3 4 C5.64 3.67 8.28 3.34 11 3 C8.63496183 5.36503817 7.35963958 5.54921059 4.125 6.1875 C2.82949219 6.45626953 2.82949219 6.45626953 1.5078125 6.73046875 C-0.99246997 6.9991907 -2.63055452 6.7769577 -5 6 C-3.35 5.34 -1.7 4.68 0 4 C-0.33 3.34 -0.66 2.68 -1 2 C-0.67 1.34 -0.34 0.68 0 0 Z " fill="#658BAB" transform="translate(304,473)"/>
<path d="M0 0 C0.66 0 1.32 0 2 0 C2 2.97 2 5.94 2 9 C1.67 8.34 1.34 7.68 1 7 C-0.98 7.33 -2.96 7.66 -5 8 C-4.67 6.02 -4.34 4.04 -4 2 C-3.01 2.33 -2.02 2.66 -1 3 C-0.67 2.01 -0.34 1.02 0 0 Z " fill="#537B9D" transform="translate(141,244)"/>
<path d="M0 0 C2.97 0.495 2.97 0.495 6 1 C5.67 3.31 5.34 5.62 5 8 C5.99 8.33 6.98 8.66 8 9 C7.01 10.485 7.01 10.485 6 12 C5.18071114 10.75443908 4.36984814 9.50333365 3.5625 8.25 C2.88380859 7.20585938 2.88380859 7.20585938 2.19140625 6.140625 C1.0391991 4.07042986 0.45323018 2.31303676 0 0 Z " fill="#688BA7" transform="translate(389,97)"/>
<path d="M0 0 C3.1875 -0.3125 3.1875 -0.3125 7 0 C9.9375 2.5 9.9375 2.5 12 5 C11.67 5.66 11.34 6.32 11 7 C7.22608165 5.1569236 3.52905766 3.2835079 0 1 C0 0.67 0 0.34 0 0 Z " fill="#577E9E" transform="translate(324,35)"/>
<path d="M0 0 C0.33 0 0.66 0 1 0 C1 2.64 1 5.28 1 8 C0.34 8 -0.32 8 -1 8 C-0.979375 9.27875 -0.95875 10.5575 -0.9375 11.875 C-0.875 15.75 -0.875 15.75 -2 18 C-2.66 18 -3.32 18 -4 18 C-2.07289294 5.33029613 -2.07289294 5.33029613 0 0 Z " fill="#5A7E99" transform="translate(244,233)"/>
<path d="M0 0 C0.99 0.33 1.98 0.66 3 1 C4.23076923 7.4 4.23076923 7.4 3.0625 10.4375 C2.711875 10.953125 2.36125 11.46875 2 12 C-0.05257931 8.55166676 -1.0632763 6.68338409 -0.6875 2.625 C-0.460625 1.75875 -0.23375 0.8925 0 0 Z " fill="#46749F" transform="translate(226,232)"/>
<path d="M0 0 C0.66 0.33 1.32 0.66 2 1 C2.4140625 3.50390625 2.4140625 3.50390625 2.625 6.5625 C2.69976562 7.57441406 2.77453125 8.58632812 2.8515625 9.62890625 C2.90054687 10.41136719 2.94953125 11.19382813 3 12 C0 12 0 12 -2 11 C-1.34 10.01 -0.68 9.02 0 8 C-0.00469206 5.89768759 -0.00469206 5.89768759 -1 4 C-2.9837767 2.71563266 -2.9837767 2.71563266 -5 2 C-3.35 2 -1.7 2 0 2 C0 1.34 0 0.68 0 0 Z " fill="#5A7D98" transform="translate(377,151)"/>
<path d="M0 0 C0.99 0 1.98 0 3 0 C2.773125 0.721875 2.54625 1.44375 2.3125 2.1875 C1.91601701 5.75584692 2.95622213 7.13871099 5 10 C1.7 9.01 -1.6 8.02 -5 7 C-4.34 6.67 -3.68 6.34 -3 6 C-2.67 5.01 -2.34 4.02 -2 3 C-1.34 3 -0.68 3 0 3 C0 2.01 0 1.02 0 0 Z " fill="#5D80A2" transform="translate(212,150)"/>
<path d="M0 0 C0.99 0.66 1.98 1.32 3 2 C3 2.99 3 3.98 3 5 C3.99 5.33 4.98 5.66 6 6 C5.67 7.32 5.34 8.64 5 10 C2.03 7.69 -0.94 5.38 -4 3 C-3.67 2.34 -3.34 1.68 -3 1 C-2.01 1.33 -1.02 1.66 0 2 C0 1.34 0 0.68 0 0 Z " fill="#6D91AF" transform="translate(353,50)"/>
<path d="M0 0 C0 0.66 0 1.32 0 2 C0.66 2 1.32 2 2 2 C1.67 4.31 1.34 6.62 1 9 C0.34 8.67 -0.32 8.34 -1 8 C-1 7.34 -1 6.68 -1 6 C-1.66 6 -2.32 6 -3 6 C-3.66 4.68 -4.32 3.36 -5 2 C-2 0 -2 0 0 0 Z " fill="#557F9E" transform="translate(372,66)"/>
<path d="M0 0 C0.99 0 1.98 0 3 0 C4.13480527 3.60993172 4.10015767 6.9842327 4.0625 10.75 C4.05347656 11.92046875 4.04445312 13.0909375 4.03515625 14.296875 C4.02355469 15.18890625 4.01195312 16.0809375 4 17 C3.67 17 3.34 17 3 17 C2.86722656 16.19175781 2.73445312 15.38351563 2.59765625 14.55078125 C2.42105469 13.48214844 2.24445313 12.41351563 2.0625 11.3125 C1.88847656 10.25675781 1.71445313 9.20101562 1.53515625 8.11328125 C1.06832879 5.39750396 0.55577384 2.69875765 0 0 Z " fill="#6B89A4" transform="translate(238,156)"/>
<path d="M0 0 C0.66 0.66 1.32 1.32 2 2 C1.53128597 6.1012478 0.16243456 10.04772249 -1 14 C-1.66 14 -2.32 14 -3 14 C-2.48594831 9.03083364 -1.76615118 4.70973649 0 0 Z " fill="#5E7F9C" transform="translate(34,83)"/>
<path d="M0 0 C1.98 0 3.96 0 6 0 C4.55746343 3.36591866 2.66735273 5.51047079 0 8 C-1.125 2.25 -1.125 2.25 0 0 Z " fill="#6186A7" transform="translate(233,331)"/>
<path d="M0 0 C3.16115776 1.36983503 3.9927092 1.9890638 6 5 C5.67 5.66 5.34 6.32 5 7 C5.99 7.33 6.98 7.66 8 8 C8 9.65 8 11.3 8 13 C5.27324841 10.59310197 3.88033404 8.07528977 2.3125 4.8125 C1.65701172 3.46091797 1.65701172 3.46091797 0.98828125 2.08203125 C0.66214844 1.39496094 0.33601563 0.70789063 0 0 Z " fill="#6F92AE" transform="translate(78,316)"/>
<path d="M0 0 C1.9375 0.6875 1.9375 0.6875 4 2 C4.75 4.625 4.75 4.625 5 7 C4.01 6.67 3.02 6.34 2 6 C1.67 7.65 1.34 9.3 1 11 C-0.98362069 8.08291076 -0.9876191 6.87619096 -0.625 3.25 C-0.41875 2.1775 -0.2125 1.105 0 0 Z " fill="#4F79A3" transform="translate(42,205)"/>
<path d="M0 0 C0 0.66 0 1.32 0 2 C1.32 2.66 2.64 3.32 4 4 C0.77208445 6.1519437 -0.28400809 6.20086443 -4 6 C-4.33 5.01 -4.66 4.02 -5 3 C-2.25 0 -2.25 0 0 0 Z " fill="#467297" transform="translate(447,319)"/>
<path d="M0 0 C0.33 0 0.66 0 1 0 C1 1.98 1 3.96 1 6 C1.66 6 2.32 6 3 6 C3 6.66 3 7.32 3 8 C2.01 8.495 2.01 8.495 1 9 C0.67 9.99 0.34 10.98 0 12 C-0.99 11.67 -1.98 11.34 -3 11 C-2.01 7.37 -1.02 3.74 0 0 Z " fill="#5B81A3" transform="translate(403,259)"/>
<path d="M0 0 C0.99 0.495 0.99 0.495 2 1 C2 2.65 2 4.3 2 6 C4.475 6.99 4.475 6.99 7 8 C7 8.99 7 9.98 7 11 C6.01 11.33 5.02 11.66 4 12 C1.24331998 8.04476345 0.4682121 4.77576339 0 0 Z " fill="#6687A4" transform="translate(157,254)"/>
<path d="M0 0 C2.475 0.99 2.475 0.99 5 2 C5.125 4.875 5.125 4.875 5 8 C4.34 8.66 3.68 9.32 3 10 C2.01 10 1.02 10 0 10 C0.37125 8.906875 0.7425 7.81375 1.125 6.6875 C1.558125 4.8621875 1.558125 4.8621875 2 3 C1.34 2.01 0.68 1.02 0 0 Z " fill="#5D7F9D" transform="translate(217,160)"/>
<path d="M0 0 C1.65 0 3.3 0 5 0 C4.484375 0.391875 3.96875 0.78375 3.4375 1.1875 C1.71724173 2.93481451 1.71724173 2.93481451 2.1875 5.4375 C2.93348829 7.79023229 3.80334592 9.84602265 5 12 C4.34 12 3.68 12 3 12 C3 11.34 3 10.68 3 10 C2.34 10 1.68 10 1 10 C0.67 10.66 0.34 11.32 0 12 C0 8.04 0 4.08 0 0 Z " fill="#7A9BB4" transform="translate(194,157)"/>
<path d="M0 0 C0.33 0.66 0.66 1.32 1 2 C0.34 2 -0.32 2 -1 2 C-1.66 3.32 -2.32 4.64 -3 6 C-3.66 6 -4.32 6 -5 6 C-5.66 7.65 -6.32 9.3 -7 11 C-7.33 11 -7.66 11 -8 11 C-8 9.35 -8 7.7 -8 6 C-7.01 5.67 -6.02 5.34 -5 5 C-5 4.34 -5 3.68 -5 3 C-4.34 3 -3.68 3 -3 3 C-3 2.34 -3 1.68 -3 1 C-2.01 0.67 -1.02 0.34 0 0 Z " fill="#7191AA" transform="translate(144,319)"/>
<path d="M0 0 C1.125 1.6875 1.125 1.6875 2 4 C1.125 6.75 1.125 6.75 0 9 C-0.66 8.01 -1.32 7.02 -2 6 C-2.99 5.34 -3.98 4.68 -5 4 C-3 1 -3 1 0 0 Z " fill="#4A7699" transform="translate(335,145)"/>
<path d="M0 0 C-1.55999545 4.21198772 -4.55248619 6.27071823 -8 9 C-8.66 9.66 -9.32 10.32 -10 11 C-10.33 10.01 -10.66 9.02 -11 8 C-10.34 8 -9.68 8 -9 8 C-8.67 7.01 -8.34 6.02 -8 5 C-7.34 5 -6.68 5 -6 5 C-6 4.34 -6 3.68 -6 3 C-5.34 3 -4.68 3 -4 3 C-4 2.34 -4 1.68 -4 1 C-2 0 -2 0 0 0 Z " fill="#7091A9" transform="translate(348,137)"/>
<path d="M0 0 C0.33 0.99 0.66 1.98 1 3 C0.5875 3.350625 0.175 3.70125 -0.25 4.0625 C-2.70762407 6.78344094 -4.24051885 9.78439652 -6 13 C-6.33 11.68 -6.66 10.36 -7 9 C-6.34 9 -5.68 9 -5 9 C-4.67 7.35 -4.34 5.7 -4 4 C-3.01 3.67 -2.02 3.34 -1 3 C-0.67 2.01 -0.34 1.02 0 0 Z " fill="#6C8EA8" transform="translate(175,54)"/>
<path d="M0 0 C0.99 0 1.98 0 3 0 C2.49381745 4.38691545 -0.13082981 6.84391279 -3 10 C-3.33 10 -3.66 10 -4 10 C-4 8.35 -4 6.7 -4 5 C-2.68 4.34 -1.36 3.68 0 3 C0 2.01 0 1.02 0 0 Z " fill="#7998AD" transform="translate(181,45)"/>
<path d="M0 0 C2.15377564 2.62198774 3.40072174 4.64404172 4 8 C1.69 8 -0.62 8 -3 8 C-2.01 5.36 -1.02 2.72 0 0 Z " fill="#6185A6" transform="translate(356,244)"/>
<path d="M0 0 C0.33 0.66 0.66 1.32 1 2 C0.01 2.495 0.01 2.495 -1 3 C-1.28875 3.825 -1.5775 4.65 -1.875 5.5 C-3 8 -3 8 -5 8.875 C-7 9 -7 9 -9 8 C-7.71034824 6.62437146 -6.37310707 5.29233607 -5 4 C-4.34 4 -3.68 4 -3 4 C-2.67 3.01 -2.34 2.02 -2 1 C-1.34 0.67 -0.68 0.34 0 0 Z " fill="#7996AE" transform="translate(200,49)"/>
<path d="M0 0 C4.29 0.99 8.58 1.98 13 3 C13 3.33 13 3.66 13 4 C11.39592672 4.02708567 9.7917215 4.04643483 8.1875 4.0625 C6.84751953 4.07990234 6.84751953 4.07990234 5.48046875 4.09765625 C3 4 3 4 0 3 C0 2.01 0 1.02 0 0 Z " fill="#7394AC" transform="translate(399,313)"/>
<path d="M0 0 C0.99 0.495 0.99 0.495 2 1 C2.625 4.0625 2.625 4.0625 3 7 C3.66 7 4.32 7 5 7 C5 9.31 5 11.62 5 14 C3 13 3 13 2.1484375 10.56640625 C1.89320312 9.57511719 1.63796875 8.58382813 1.375 7.5625 C0.98441406 6.07943359 0.98441406 6.07943359 0.5859375 4.56640625 C0 2 0 2 0 0 Z " fill="#7798B0" transform="translate(55,258)"/>
<path d="M0 0 C2.03833424 1.2739589 4.03852126 2.61061923 6 4 C6 4.66 6 5.32 6 6 C8.97 6.495 8.97 6.495 12 7 C10.02 7.99 10.02 7.99 8 9 C6.8450079 8.26418258 5.70125815 7.51069961 4.5625 6.75 C3.60537109 6.12351562 3.60537109 6.12351562 2.62890625 5.484375 C0.70097943 3.72751123 0.38520564 2.53910197 0 0 Z " fill="#6388A2" transform="translate(339,42)"/>
<path d="M0 0 C1 3 1 3 1 6 C0.195625 6.12375 -0.60875 6.2475 -1.4375 6.375 C-2.7059375 6.684375 -2.7059375 6.684375 -4 7 C-4.33 7.66 -4.66 8.32 -5 9 C-5.66 8.34 -6.32 7.68 -7 7 C-4.66666667 4.66666667 -2.33333333 2.33333333 0 0 Z " fill="#6989A6" transform="translate(210,327)"/>
<path d="M0 0 C0.66 0.33 1.32 0.66 2 1 C1.67 2.32 1.34 3.64 1 5 C-0.98 5.33 -2.96 5.66 -5 6 C-5 5.01 -5 4.02 -5 3 C-5.66 2.67 -6.32 2.34 -7 2 C-4.69 2 -2.38 2 0 2 C0 1.34 0 0.68 0 0 Z " fill="#396F9A" transform="translate(398,312)"/>
<path d="M0 0 C0.66 0 1.32 0 2 0 C1.34 1.32 0.68 2.64 0 4 C-0.66 4 -1.32 4 -2 4 C-2.66 5.32 -3.32 6.64 -4 8 C-4.99 7.67 -5.98 7.34 -7 7 C-6 4 -6 4 -4 2 C-2.68 2 -1.36 2 0 2 C0 1.34 0 0.68 0 0 Z " fill="#638BA8" transform="translate(157,303)"/>
<path d="M0 0 C2.79551999 2.06625391 3.01067926 3.06882192 3.5625 6.625 C3.706875 7.73875 3.85125 8.8525 4 10 C4.66 10.33 5.32 10.66 6 11 C5.01 12.485 5.01 12.485 4 14 C3.32471777 12.42032193 2.66010306 10.83608097 2 9.25 C1.62875 8.36828125 1.2575 7.4865625 0.875 6.578125 C0 4 0 4 0 0 Z " fill="#7C9CB2" transform="translate(60,272)"/>
<path d="M0 0 C0.66 0.66 1.32 1.32 2 2 C0.3619751 5.51005335 -1.03134491 8.45543849 -4 11 C-4.33 9.68 -4.66 8.36 -5 7 C-4.01 7 -3.02 7 -2 7 C-2 5.35 -2 3.7 -2 2 C-1.34 2 -0.68 2 0 2 C0 1.34 0 0.68 0 0 Z " fill="#678AA7" transform="translate(408,265)"/>
<path d="M0 0 C0.98120464 3.05263664 0.98120464 4.94736336 0 8 C-0.66 8 -1.32 8 -2 8 C-2 9.32 -2 10.64 -2 12 C-2.99 12.33 -3.98 12.66 -5 13 C-3.78184562 8.31479085 -2.30440013 4.29456388 0 0 Z " fill="#738EAA" transform="translate(40,69)"/>
<path d="M0 0 C-2.25 2.0625 -2.25 2.0625 -5 4 C-7.3125 3.75 -7.3125 3.75 -9 3 C-6.27596221 -1.08605669 -4.4643819 -1.38549783 0 0 Z " fill="#5F829D" transform="translate(75,42)"/>
<path d="M0 0 C0.99 0 1.98 0 3 0 C3 0.66 3 1.32 3 2 C3.66 2 4.32 2 5 2 C5.66 3.65 6.32 5.3 7 7 C6.01 7 5.02 7 4 7 C4 6.01 4 5.02 4 4 C2.35 3.67 0.7 3.34 -1 3 C-0.67 2.01 -0.34 1.02 0 0 Z " fill="#557E9A" transform="translate(372,99)"/>
<path d="M0 0 C0.66 0 1.32 0 2 0 C1.5205537 4.21912747 0.83374881 6.79663178 -2 10 C-1.85950482 8.52031676 -1.71245174 7.04125484 -1.5625 5.5625 C-1.48128906 4.73878906 -1.40007812 3.91507812 -1.31640625 3.06640625 C-1 1 -1 1 0 0 Z " fill="#6A91AB" transform="translate(350,443)"/>
<path d="M0 0 C0.66 0.33 1.32 0.66 2 1 C1.67 2.65 1.34 4.3 1 6 C0.01 6.33 -0.98 6.66 -2 7 C-2.99 5.68 -3.98 4.36 -5 3 C-3.68 3 -2.36 3 -1 3 C-0.67 2.01 -0.34 1.02 0 0 Z " fill="#547FA3" transform="translate(173,274)"/>
<path d="M0 0 C2.475 0.99 2.475 0.99 5 2 C4.34 3.65 3.68 5.3 3 7 C2.01 7 1.02 7 0 7 C-0.38133299 5.0085944 -0.71325582 3.00720923 -1 1 C-0.67 0.67 -0.34 0.34 0 0 Z " fill="#5F84A1" transform="translate(409,257)"/>
<path d="M0 0 C0.66 0 1.32 0 2 0 C2.39012425 1.76756294 2.7616098 3.53924783 3.125 5.3125 C3.33382812 6.29863281 3.54265625 7.28476563 3.7578125 8.30078125 C4 11 4 11 2 14 C1.663389 12.22978678 1.33082707 10.45880326 1 8.6875 C0.814375 7.70136719 0.62875 6.71523437 0.4375 5.69921875 C0 3 0 3 0 0 Z " fill="#5D7E9D" transform="translate(38,193)"/>
<path d="M0 0 C8.57142857 -0.28571429 8.57142857 -0.28571429 12 2 C12 2.33 12 2.66 12 3 C10.56163249 2.88541307 9.12429034 2.75790884 7.6875 2.625 C6.88699219 2.55539062 6.08648437 2.48578125 5.26171875 2.4140625 C3 2 3 2 0 0 Z " fill="#7596AE" transform="translate(190,293)"/>
<path d="M0 0 C1.32 0.66 2.64 1.32 4 2 C3.67 3.32 3.34 4.64 3 6 C2.01 5.67 1.02 5.34 0 5 C0 4.34 0 3.68 0 3 C-0.66 2.67 -1.32 2.34 -2 2 C-1.34 1.34 -0.68 0.68 0 0 Z " fill="#648AA5" transform="translate(163,291)"/>
<path d="M0 0 C2.53408774 1.26704387 2.93209972 2.43123157 4.1875 4.9375 C4.55230469 5.64777344 4.91710937 6.35804688 5.29296875 7.08984375 C5.52628906 7.72019531 5.75960938 8.35054688 6 9 C5.67 9.66 5.34 10.32 5 11 C4.01 10.67 3.02 10.34 2 10 C0.47839986 6.3962102 0 3.94779314 0 0 Z " fill="#7796AE" transform="translate(363,257)"/>
<path d="M0 0 C0.66 0 1.32 0 2 0 C2 0.66 2 1.32 2 2 C2.66 2 3.32 2 4 2 C4.99 3.98 5.98 5.96 7 8 C6.01 9.485 6.01 9.485 5 11 C3.35 7.37 1.7 3.74 0 0 Z " fill="#84A0B4" transform="translate(376,254)"/>
<path d="M0 0 C0.33 0 0.66 0 1 0 C1.91297308 4.97063121 1.91297308 9.02936879 1 14 C0.67 14 0.34 14 0 14 C-0.19393875 11.85473901 -0.37998676 9.70876323 -0.5625 7.5625 C-0.71912109 5.77005859 -0.71912109 5.77005859 -0.87890625 3.94140625 C-0.91886719 2.97074219 -0.95882813 2.00007812 -1 1 C-0.67 0.67 -0.34 0.34 0 0 Z " fill="#6A8BA6" transform="translate(346,176)"/>
<path d="M0 0 C6.75 2.625 6.75 2.625 9 6 C6.69 5.67 4.38 5.34 2 5 C1.34 3.35 0.68 1.7 0 0 Z " fill="#7894A9" transform="translate(322,49)"/>
<path d="M0 0 C4 4.5 4 4.5 4 9 C3.01 8.67 2.02 8.34 1 8 C1 6.35 1 4.7 1 3 C0.34 3 -0.32 3 -1 3 C-0.67 2.01 -0.34 1.02 0 0 Z " fill="#5F829F" transform="translate(373,277)"/>
<path d="M0 0 C0 1.98 0 3.96 0 6 C-0.99 6.495 -0.99 6.495 -2 7 C-2.33 6.34 -2.66 5.68 -3 5 C-3.99 5.495 -3.99 5.495 -5 6 C-4.6875 4.125 -4.6875 4.125 -4 2 C-1 0 -1 0 0 0 Z " fill="#497092" transform="translate(400,279)"/>
<path d="M0 0 C-0.33 2.97 -0.66 5.94 -1 9 C-3.46278801 6.53721199 -3.99771255 4.29323018 -5 1 C-3 0 -3 0 0 0 Z " fill="#5C83A3" transform="translate(366,224)"/>
<path d="M0 0 C0 0.99 0 1.98 0 3 C-3 5 -3 5 -5.6875 4.625 C-6.450625 4.41875 -7.21375 4.2125 -8 4 C-2.7826087 0 -2.7826087 0 0 0 Z " fill="#628BA6" transform="translate(170,156)"/>
<path d="M0 0 C2.31 0 4.62 0 7 0 C7 0.99 7 1.98 7 3 C4.69 3 2.38 3 0 3 C0 2.01 0 1.02 0 0 Z " fill="#2E6694" transform="translate(384,147)"/>
<path d="M0 0 C1.65 1.65 3.3 3.3 5 5 C2 7 2 7 -1 7 C-0.67 4.69 -0.34 2.38 0 0 Z " fill="#7590A6" transform="translate(158,141)"/>
<path d="M0 0 C0.33 0 0.66 0 1 0 C0.38487182 5.00890086 -0.2717552 10.00632136 -1 15 C-1.33 15 -1.66 15 -2 15 C-2.05429959 13.25034642 -2.09292823 11.50020213 -2.125 9.75 C-2.15980469 8.28820312 -2.15980469 8.28820312 -2.1953125 6.796875 C-1.99862781 3.9803502 -1.44568916 2.39050964 0 0 Z " fill="#7492AC" transform="translate(148,114)"/>
<path d="M0 0 C1.8125 0.125 1.8125 0.125 4 1 C5.75 4.0625 5.75 4.0625 7 7 C3.17053157 5.54744301 1.87949705 3.57104439 0 0 Z " fill="#7B9AB0" transform="translate(266,466)"/>
<path d="M0 0 C1.32 0.66 2.64 1.32 4 2 C2.625 4.5 2.625 4.5 1 7 C0.34 7 -0.32 7 -1 7 C-0.67 4.69 -0.34 2.38 0 0 Z " fill="#5D829F" transform="translate(341,457)"/>
<path d="M0 0 C1.485 0.99 1.485 0.99 3 2 C3 2.66 3 3.32 3 4 C3.66 4 4.32 4 5 4 C5 4.66 5 5.32 5 6 C3.35 6.33 1.7 6.66 0 7 C0 4.69 0 2.38 0 0 Z " fill="#7B96AE" transform="translate(384,293)"/>
<path d="M0 0 C0.66 0 1.32 0 2 0 C1.55090939 1.48199902 1.09043436 2.96055236 0.625 4.4375 C0.36976563 5.26121094 0.11453125 6.08492187 -0.1484375 6.93359375 C-1 9 -1 9 -3 10 C-2.67 7.36 -2.34 4.72 -2 2 C-1.34 2 -0.68 2 0 2 C0 1.34 0 0.68 0 0 Z " fill="#7B9BB2" transform="translate(433,215)"/>
<path d="M0 0 C2.29633824 3.44450737 2.54016485 5.93812283 3 10 C2.01 10 1.02 10 0 10 C-0.19412181 8.52168779 -0.38012131 7.04230684 -0.5625 5.5625 C-0.66691406 4.73878906 -0.77132813 3.91507813 -0.87890625 3.06640625 C-0.91886719 2.38449219 -0.95882813 1.70257813 -1 1 C-0.67 0.67 -0.34 0.34 0 0 Z " fill="#5C7E9F" transform="translate(332,186)"/>
<path d="M0 0 C0.33 0 0.66 0 1 0 C0.67 2.97 0.34 5.94 0 9 C-0.66 9 -1.32 9 -2 9 C-2.6875 6.75 -2.6875 6.75 -3 4 C-1.625 1.6875 -1.625 1.6875 0 0 Z " fill="#698AA2" transform="translate(155,89)"/>
<path d="M0 0 C3.53586014 3.17320782 5.58578031 5.16743695 6 10 C5.67 9.01 5.34 8.02 5 7 C2.98491642 6.26676204 2.98491642 6.26676204 1 6 C0.67 4.02 0.34 2.04 0 0 Z " fill="#708FA5" transform="translate(453,71)"/>
<path d="M0 0 C0.66 0.99 1.32 1.98 2 3 C1.67 3.99 1.34 4.98 1 6 C0.01 5.67 -0.98 5.34 -2 5 C-2 5.66 -2 6.32 -2 7 C-2.66 7 -3.32 7 -4 7 C-2.79618552 4.50638429 -1.54571278 2.31856917 0 0 Z " fill="#678EAB" transform="translate(45,62)"/>
<path d="M0 0 C3.3 0.99 6.6 1.98 10 3 C8.02 3.99 8.02 3.99 6 5 C2.25 3.625 2.25 3.625 -1 2 C-0.67 1.34 -0.34 0.68 0 0 Z " fill="#6B8CA7" transform="translate(398,33)"/>
<path d="M0 0 C2.97 0 5.94 0 9 0 C9 0.66 9 1.32 9 2 C6.03 1.67 3.06 1.34 0 1 C0 0.67 0 0.34 0 0 Z M3 2 C3.99 2.33 4.98 2.66 6 3 C4.02 3.99 4.02 3.99 2 5 C2.33 4.01 2.66 3.02 3 2 Z " fill="#6185A3" transform="translate(96,34)"/>
<path d="M0 0 C2.64 0.33 5.28 0.66 8 1 C4.55549263 3.29633824 2.06187717 3.54016485 -2 4 C-1.34 2.68 -0.68 1.36 0 0 Z " fill="#5A81A1" transform="translate(318,472)"/>
<path d="M0 0 C0.99 0.33 1.98 0.66 3 1 C3.6875 3.0625 3.6875 3.0625 4 5 C1.69 4.34 -0.62 3.68 -3 3 C-2.01 2.67 -1.02 2.34 0 2 C0 1.34 0 0.68 0 0 Z " fill="#36658B" transform="translate(172,348)"/>
<path d="M0 0 C0.33 0.99 0.66 1.98 1 3 C-1 5 -1 5 -4.125 5.125 C-5.548125 5.063125 -5.548125 5.063125 -7 5 C-2.25 1.125 -2.25 1.125 0 0 Z " fill="#6585A0" transform="translate(202,335)"/>
<path d="M0 0 C-0.33 0.99 -0.66 1.98 -1 3 C-1.66 3 -2.32 3 -3 3 C-3.33 3.66 -3.66 4.32 -4 5 C-4 4.34 -4 3.68 -4 3 C-5.65 2.67 -7.3 2.34 -9 2 C-9 1.67 -9 1.34 -9 1 C-5.94152152 0.45627049 -3.11227195 0 0 0 Z " fill="#829CB2" transform="translate(460,314)"/>
<path d="M0 0 C-0.33 0.99 -0.66 1.98 -1 3 C-3.64 2.67 -6.28 2.34 -9 2 C-5.86501708 0.14223235 -3.62528568 -0.20140476 0 0 Z " fill="#6586A4" transform="translate(367,146)"/>
<path d="M0 0 C1.258125 0.12375 2.51625 0.2475 3.8125 0.375 C4.87404297 0.47941406 4.87404297 0.47941406 5.95703125 0.5859375 C8 1 8 1 11 3 C7.94736336 3.98120464 6.05263664 3.98120464 3 3 C3 2.34 3 1.68 3 1 C2.01 0.67 1.02 0.34 0 0 Z " fill="#7999B3" transform="translate(286,36)"/>
<path d="M0 0 C0.66 0 1.32 0 2 0 C2 2.97 2 5.94 2 9 C1.34 8.67 0.68 8.34 0 8 C-0.95067299 4.71585695 -1.10102197 3.30306592 0 0 Z " fill="#3A6283" transform="translate(363,347)"/>
<path d="M0 0 C3.26954202 0.56371414 4.82575883 1.49962266 7 4 C6.67 4.99 6.34 5.98 6 7 C5.01 6.34 4.02 5.68 3 5 C3 4.34 3 3.68 3 3 C2.34 3 1.68 3 1 3 C0.67 2.01 0.34 1.02 0 0 Z " fill="#6A8CA5" transform="translate(92,337)"/>
<path d="M0 0 C2.0625 0.4375 2.0625 0.4375 4 1 C2.25 4.875 2.25 4.875 0 6 C-0.38218767 4.34385343 -0.71395102 2.67542976 -1 1 C-0.67 0.67 -0.34 0.34 0 0 Z " fill="#5D819E" transform="translate(452,316)"/>
<path d="M0 0 C0.66 0.33 1.32 0.66 2 1 C0.515 4.465 0.515 4.465 -1 8 C-1.33 8 -1.66 8 -2 8 C-2 5.69 -2 3.38 -2 1 C-1.34 0.67 -0.68 0.34 0 0 Z " fill="#708FAC" transform="translate(417,249)"/>
<path d="M0 0 C0.33 0.66 0.66 1.32 1 2 C0.06553465 4.03144641 -0.93224776 6.03533587 -2 8 C-2.33 8 -2.66 8 -3 8 C-3 6.35 -3 4.7 -3 3 C-3.66 2.67 -4.32 2.34 -5 2 C-3.35 1.34 -1.7 0.68 0 0 Z " fill="#6E93B0" transform="translate(422,241)"/>
<path d="M0 0 C1.5 1.125 1.5 1.125 3 3 C3.1875 6.1875 3.1875 6.1875 3 9 C2.67 8.34 2.34 7.68 2 7 C1.34 7 0.68 7 0 7 C0 4.69 0 2.38 0 0 Z " fill="#5D7E9A" transform="translate(33,169)"/>
<path d="M0 0 C0.928125 1.175625 0.928125 1.175625 1.875 2.375 C3.89858661 4.96837647 3.89858661 4.96837647 6 7 C3.83125748 6.49396008 2.00032373 6.00016187 0 5 C0 4.34 0 3.68 0 3 C-0.66 3 -1.32 3 -2 3 C-2 2.34 -2 1.68 -2 1 C-1.34 0.67 -0.68 0.34 0 0 Z " fill="#7997AE" transform="translate(355,158)"/>
<path d="M0 0 C0 0.66 0 1.32 0 2 C-1.65 2.33 -3.3 2.66 -5 3 C-5 3.99 -5 4.98 -5 6 C-6.32 5.67 -7.64 5.34 -9 5 C-6.45523312 2.20075644 -3.92372883 0 0 0 Z " fill="#8EA6BC" transform="translate(64,46)"/>
<path d="M0 0 C3 3.625 3 3.625 3 7 C1.68 7.33 0.36 7.66 -1 8 C-0.67 5.36 -0.34 2.72 0 0 Z " fill="#3A6488" transform="translate(400,270)"/>
<path d="M0 0 C4 4.75 4 4.75 4 7 C1.525 6.01 1.525 6.01 -1 5 C-0.67 3.35 -0.34 1.7 0 0 Z " fill="#7490AB" transform="translate(148,269)"/>
<path d="M0 0 C0.66 0 1.32 0 2 0 C1.34 1.98 0.68 3.96 0 6 C-0.66 6 -1.32 6 -2 6 C-2.33 4.68 -2.66 3.36 -3 2 C-2.01 2 -1.02 2 0 2 C0 1.34 0 0.68 0 0 Z " fill="#81A2B3" transform="translate(386,266)"/>
<path d="M0 0 C0.66 0.33 1.32 0.66 2 1 C2 2.98 2 4.96 2 7 C1.5875 6.54625 1.175 6.0925 0.75 5.625 C-1.06408095 3.94049626 -2.75285627 3.00734029 -5 2 C-3.35 2 -1.7 2 0 2 C0 1.34 0 0.68 0 0 Z " fill="#7FA2C0" transform="translate(377,151)"/>
<path d="M0 0 C1.98 1.65 3.96 3.3 6 5 C5.67 5.66 5.34 6.32 5 7 C2.525 6.01 2.525 6.01 0 5 C0 3.35 0 1.7 0 0 Z " fill="#7D9BB6" transform="translate(360,80)"/>
</svg>
