<?xml version="1.0" encoding="UTF-8"?>
<svg version="1.1" xmlns="http://www.w3.org/2000/svg" width="256" height="256">
<path d="M0 0 C4.23167484 -0.1249586 8.46233173 -0.21496477 12.6953125 -0.2746582 C14.13072448 -0.29957855 15.56601257 -0.33352875 17.00097656 -0.37719727 C27.43569093 -0.68645484 35.13928768 0.32399522 43.55078125 7.03515625 C60.01289455 25.97936202 60.40750931 55.23329007 59 79 C57.29730657 92.95527535 51.36023605 108.39173248 42 119 C34.98329052 124.33880069 28.95462563 125.29640292 20.41455078 125.22705078 C19.46757828 125.22734283 18.52060577 125.22763489 17.54493713 125.22793579 C14.42830099 125.22654725 11.31190667 125.21100832 8.1953125 125.1953125 C6.02912527 125.19158068 3.86293635 125.18873451 1.69674683 125.18673706 C-3.9947173 125.1791139 -9.68607877 125.15947666 -15.37750244 125.1373291 C-21.18915417 125.11684233 -27.00082254 125.10772928 -32.8125 125.09765625 C-44.20837835 125.07622958 -55.60418062 125.04210948 -67 125 C-66.505 127.97 -66.505 127.97 -66 131 C-64.89459618 130.99666908 -64.89459618 130.99666908 -63.76686096 130.99327087 C-56.83587231 130.97326797 -49.90488796 130.95802587 -42.97387791 130.94818783 C-39.41022578 130.94296005 -35.84659743 130.93586431 -32.28295898 130.92456055 C-28.18993903 130.91165824 -24.0969442 130.90677094 -20.00390625 130.90234375 C-18.07581871 130.89460182 -18.07581871 130.89460182 -16.10877991 130.88670349 C-14.92763107 130.88662796 -13.74648224 130.88655243 -12.52954102 130.88647461 C-10.96067894 130.88314369 -10.96067894 130.88314369 -9.36012268 130.87974548 C-7 131 -7 131 -6 132 C-5.71552529 136.51409641 -5.76806081 141.04052594 -5.75 145.5625 C-5.729375 146.82642578 -5.70875 148.09035156 -5.6875 149.39257812 C-5.6423115 160.19827865 -7.45836564 167.97389234 -15 176 C-28.57816214 188.66759506 -50.00850243 191.39579342 -67.75 191.3125 C-68.9862915 191.30758545 -70.22258301 191.3026709 -71.49633789 191.29760742 C-89.00452344 191.07298105 -107.96336509 187.75640785 -121 175.05078125 C-130.13494655 165.05943346 -130.1561521 155.75070116 -130.16796875 142.796875 C-130.17129715 141.52330139 -130.17462555 140.24972778 -130.17805481 138.93756104 C-130.18310733 136.24788914 -130.18589754 133.55831837 -130.18530273 130.86865234 C-130.18520142 127.45191346 -130.1988341 124.03538379 -130.21607494 120.61869431 C-130.22998806 117.32392948 -130.22928686 114.02916516 -130.23046875 110.734375 C-130.23765427 109.52255554 -130.24483978 108.31073608 -130.25224304 107.06219482 C-130.22160565 95.53270815 -129.40893555 85.25328759 -122 76 C-113.46044254 67.75544543 -104.77729992 64.87852897 -92.99169922 64.87402344 C-92.31759506 64.8721553 -91.64349091 64.87028717 -90.94895935 64.86836243 C-89.49380752 64.864379 -88.03864951 64.86228549 -86.58349228 64.86190033 C-83.47174374 64.85845195 -80.36019805 64.83704481 -77.2485218 64.81666946 C-71.46903881 64.77885326 -65.6897775 64.7473755 -59.91015625 64.74951172 C-55.87639366 64.75030492 -51.84338376 64.72668099 -47.80981827 64.6876297 C-46.28467327 64.67726213 -44.75944041 64.67557651 -43.23427963 64.68328094 C-30.82799573 64.73968027 -19.97636459 62.80911682 -10.6796875 53.87890625 C-0.88299491 42.92028036 -0.50692552 30.85920638 -0.3125 16.9375 C-0.27927492 15.29229136 -0.24478059 13.64710783 -0.20898438 12.00195312 C-0.12467507 8.00144183 -0.05758868 4.00098151 0 0 Z M-42.8125 152.6875 C-44.55588571 156.08251427 -44.54357078 159.30518783 -44 163 C-42.75011855 165.87472735 -41.74531416 167.44101438 -39.25 169.3125 C-35.96856187 170.31516165 -33.41780831 170.35356638 -30 170 C-25.75971381 167.7412063 -25.75971381 167.7412063 -23 164 C-22.36241963 159.44585452 -22.22397294 155.33799714 -25 151.5 C-31.36791804 146.19340163 -36.91542952 147.19712403 -42.8125 152.6875 Z " fill="#F2BB31" transform="translate(197,65)"/>
<path d="M0 0 C2.78833755 0.01611897 5.57523064 0.00003316 8.36352539 -0.01904297 C25.61701051 -0.04030402 42.40680691 0.88616242 55.66235352 13.26611328 C61.65146633 19.66022758 64.33177661 26.37373459 64.40185547 35.09057617 C64.40842667 35.76745483 64.41499786 36.4443335 64.42176819 37.14172363 C64.44147876 39.38240682 64.45316265 41.62302283 64.46313477 43.86376953 C64.46721029 44.63184874 64.47128582 45.39992794 64.47548485 46.19128227 C64.49634238 50.26171473 64.51064187 54.33211357 64.52001953 58.40258789 C64.53104517 62.58646232 64.56540071 66.7697992 64.60519123 70.95348454 C64.63147615 74.18707698 64.63972213 77.42054408 64.64330101 80.65423393 C64.64814139 82.19505861 64.65968181 83.73587866 64.678339 85.27659798 C64.82083916 97.83109625 63.2822492 107.08049914 54.44750977 116.41064453 C47.68812412 122.43350661 41.2261709 124.50217508 32.32006836 124.54882812 C31.6332901 124.55390884 30.94651184 124.55898956 30.23892212 124.56422424 C28.75045409 124.5749042 27.26197023 124.58353364 25.77347946 124.59034348 C23.40958182 124.60218204 21.04586284 124.62165006 18.68203735 124.64346313 C11.96183311 124.70489327 5.24164633 124.75896748 -1.47875977 124.79248047 C-5.59435188 124.81355226 -9.70961873 124.84895793 -13.82502365 124.89323807 C-15.38531004 124.90730377 -16.94565399 124.91609896 -18.50600052 124.91929245 C-32.00784478 124.94983708 -44.7632465 126.39453242 -54.81811523 136.43017578 C-62.07577668 145.18888875 -64.77893523 154.66982418 -65.09155273 165.87939453 C-65.11233383 166.58259323 -65.13311493 167.28579193 -65.15452576 168.01029968 C-65.21954763 170.24131145 -65.27868424 172.47243397 -65.33764648 174.70361328 C-65.38087684 176.22250462 -65.42449253 177.74138505 -65.46850586 179.26025391 C-65.57517982 182.97042448 -65.6765787 186.68071749 -65.77514648 190.39111328 C-70.0875157 190.47901043 -74.39965099 190.53180558 -78.71264648 190.57861328 C-80.53119141 190.61631836 -80.53119141 190.61631836 -82.38647461 190.65478516 C-94.10929951 190.75009268 -101.02832499 188.97764264 -109.54858398 180.77392578 C-122.26046975 167.16997785 -124.35535238 145.96586638 -124.21264648 128.14111328 C-124.20927277 127.47056915 -124.20589905 126.80002502 -124.2024231 126.10916138 C-124.07655448 108.75396362 -122.27408073 90.33690507 -110.41577148 76.67236328 C-101.57541656 68.21637161 -92.90083262 65.22647756 -80.87573242 65.27758789 C-79.97781982 65.27744186 -79.07990723 65.27729584 -78.15478516 65.27714539 C-75.18967261 65.27784153 -72.22462304 65.28561999 -69.25952148 65.29345703 C-67.20257603 65.29532227 -65.14563014 65.29674567 -63.08868408 65.29774475 C-57.67670463 65.30156158 -52.26475205 65.31138477 -46.8527832 65.32244873 C-41.32951216 65.33268076 -35.80623677 65.33724622 -30.28295898 65.34228516 C-19.44700969 65.35300777 -8.61108032 65.37007421 2.22485352 65.39111328 C2.22485352 63.08111328 2.22485352 60.77111328 2.22485352 58.39111328 C-17.90514648 58.39111328 -38.03514648 58.39111328 -58.77514648 58.39111328 C-58.85764648 52.98736328 -58.94014648 47.58361328 -59.02514648 42.01611328 C-59.0615625 40.33211426 -59.09797852 38.64811523 -59.13549805 36.91308594 C-59.24704806 28.10262232 -59.1911437 19.69726092 -53.25512695 12.56469727 C-40.28196256 -0.46196913 -17.03201773 -0.11679098 0 0 Z M-39.77514648 22.39111328 C-42.25473341 25.72305821 -43.03016841 28.37214856 -42.83764648 32.45361328 C-42.2322718 35.80893468 -41.5792104 36.62050186 -39.21264648 39.39111328 C-34.7888044 41.96498504 -32.81701106 41.96035606 -27.77514648 41.39111328 C-24.46969979 40.49774931 -23.89263945 39.57574509 -22.02514648 36.64111328 C-20.67406082 33.12829056 -20.23300811 31.10863353 -20.77514648 27.39111328 C-22.23655996 24.22471741 -23.40531106 22.09534538 -26.57592773 20.46533203 C-31.71236881 18.8396235 -35.12758063 19.47499353 -39.77514648 22.39111328 Z " fill="#33668D" transform="translate(123.775146484375,-0.39111328125)"/>
<path d="M0 0 C0.66 0.33 1.32 0.66 2 1 C2 2.32 2 3.64 2 5 C-2.22222222 9 -2.22222222 9 -5 9 C-5.66 10.32 -6.32 11.64 -7 13 C-7.66 13 -8.32 13 -9 13 C-9 12.34 -9 11.68 -9 11 C-9.66 11 -10.32 11 -11 11 C-10.896875 11.9075 -10.79375 12.815 -10.6875 13.75 C-11 17 -11 17 -13.5 19.375 C-14.325 19.91125 -15.15 20.4475 -16 21 C-17 18 -17 18 -16.1015625 15.765625 C-12.04341256 8.85173992 -7.2576777 3.62883885 0 0 Z " fill="#E9BA3E" transform="translate(86,133)"/>
<path d="M0 0 C5.0201034 5.68945052 6.24907448 10.59475471 6.25878906 18.10351562 C6.26404602 19.12912849 6.26404602 19.12912849 6.26940918 20.17546082 C6.27815907 22.41916273 6.27240143 24.66254528 6.265625 26.90625 C6.26697359 28.47513896 6.26891574 30.04402751 6.27142334 31.61291504 C6.27436547 34.89449051 6.27010637 38.17595679 6.26074219 41.45751953 C6.24934816 45.65387921 6.25591252 49.84998301 6.26788712 54.04633331 C6.27513038 57.28405672 6.27280648 60.52171993 6.26763153 63.75944519 C6.26630185 65.30633067 6.26791876 66.85322171 6.27259064 68.40010071 C6.27769657 70.56570821 6.26988911 72.73090713 6.25878906 74.89648438 C6.25640228 76.74131409 6.25640228 76.74131409 6.25396729 78.62341309 C5.99578054 82.05609927 5.23225843 84.79852854 4 88 C3.67 88 3.34 88 3 88 C3 85.36 3 82.72 3 80 C3.66 80 4.32 80 5 80 C4.93870147 71.23730923 4.86153276 62.47494197 4.76428509 53.71257591 C4.71962022 49.64352792 4.68035574 45.57457914 4.65356445 41.50537109 C4.62749242 37.57592069 4.58706296 33.64685291 4.53681374 29.71763992 C4.52017127 28.22104285 4.50864068 26.72437963 4.50238609 25.22770309 C4.49271599 23.12584384 4.46462473 21.02495763 4.43237305 18.92333984 C4.42126999 17.72865082 4.41016693 16.53396179 4.39872742 15.30307007 C3.95443108 11.6225057 2.79382858 9.21829914 1 6 C0 3 0 3 0 0 Z " fill="#3C5F7B" transform="translate(182,17)"/>
<path d="M0 0 C-0.78503906 0.31453125 -1.57007812 0.6290625 -2.37890625 0.953125 C-16.12548304 6.46459819 -16.12548304 6.46459819 -24.09106445 18.39526367 C-25.06461577 21.18516938 -25.24411981 23.29313166 -25.23046875 26.23828125 C-25.22853516 27.22376953 -25.22660156 28.20925781 -25.22460938 29.22460938 C-25.21236328 30.24361328 -25.20011719 31.26261719 -25.1875 32.3125 C-25.18685547 33.31990234 -25.18621094 34.32730469 -25.18554688 35.36523438 C-25.43558998 44.94018056 -25.43558998 44.94018056 -23 54 C-24.32 54 -25.64 54 -27 54 C-27.09982927 49.3410447 -27.17191433 44.68272922 -27.21972656 40.02294922 C-27.23968422 38.44210955 -27.2668606 36.86134217 -27.30175781 35.28076172 C-27.72356106 15.66691049 -27.72356106 15.66691049 -21.47680664 8.17260742 C-16.63206587 3.30063551 -6.84955027 -2.63192743 0 0 Z " fill="#3C5E7A" transform="translate(92,4)"/>
<path d="M0 0 C1.25361328 -0.01224609 2.50722656 -0.02449219 3.79882812 -0.03710938 C5.59803711 -0.04000977 5.59803711 -0.04000977 7.43359375 -0.04296875 C8.53630615 -0.04707764 9.63901855 -0.05118652 10.77514648 -0.05541992 C13.5625 0.1875 13.5625 0.1875 16.5625 2.1875 C15.36705566 2.22508423 15.36705566 2.22508423 14.14746094 2.26342773 C10.53564778 2.37948789 6.92408898 2.50216931 3.3125 2.625 C1.43111328 2.68397461 1.43111328 2.68397461 -0.48828125 2.74414062 C-1.69355469 2.78603516 -2.89882812 2.82792969 -4.140625 2.87109375 C-5.25083008 2.90775146 -6.36103516 2.94440918 -7.50488281 2.98217773 C-9.96771849 3.15460904 -12.08232965 3.48345439 -14.4375 4.1875 C-14.7675 3.1975 -15.0975 2.2075 -15.4375 1.1875 C-10.9888295 -1.03683525 -4.88528113 0.00250399 0 0 Z " fill="#F2BE41" transform="translate(214.4375,64.8125)"/>
<path d="M0 0 C4.17858365 3.71429658 7.17846829 7.64185802 9 13 C8.67 13.66 8.34 14.32 8 15 C7.566875 14.525625 7.13375 14.05125 6.6875 13.5625 C4.97690387 11.76313043 4.97690387 11.76313043 2 11 C2.04125 9.9275 2.0825 8.855 2.125 7.75 C2.0114175 4.34252515 1.78726636 2.79260369 0 0 Z " fill="#E7BB42" transform="translate(240,73)"/>
<path d="M0 0 C3.63 0 7.26 0 11 0 C11 0.66 11 1.32 11 2 C12.423125 1.938125 12.423125 1.938125 13.875 1.875 C17 2 17 2 19 4 C12.1781317 4.38614349 6.50422293 3.00865708 0 1 C0 0.67 0 0.34 0 0 Z " fill="#E9BC52" transform="translate(97,251)"/>
<path d="M0 0 C0.33 0 0.66 0 1 0 C1.05534912 0.56509277 1.11069824 1.13018555 1.16772461 1.71240234 C1.42024372 4.26702332 1.67879723 6.82099815 1.9375 9.375 C2.02451172 10.26445313 2.11152344 11.15390625 2.20117188 12.0703125 C2.28818359 12.92109375 2.37519531 13.771875 2.46484375 14.6484375 C2.543396 15.43395996 2.62194824 16.21948242 2.70288086 17.02880859 C2.90696298 19.07134803 2.90696298 19.07134803 4 21 C2.68 21 1.36 21 0 21 C0 14.07 0 7.14 0 0 Z " fill="#426582" transform="translate(65,37)"/>
<path d="M0 0 C0.66 0 1.32 0 2 0 C2.33 0.99 2.66 1.98 3 3 C1.56640625 5.26171875 1.56640625 5.26171875 -0.4375 7.6875 C-1.09621094 8.49574219 -1.75492187 9.30398437 -2.43359375 10.13671875 C-3.20896484 11.05904297 -3.20896484 11.05904297 -4 12 C-4.99 11.67 -5.98 11.34 -7 11 C-6.34 9.68 -5.68 8.36 -5 7 C-4.01 7 -3.02 7 -2 7 C-1.855625 6.21625 -1.71125 5.4325 -1.5625 4.625 C-1 2 -1 2 0 0 Z " fill="#396384" transform="translate(68,131)"/>
<path d="M0 0 C1.175625 1.2065625 1.175625 1.2065625 2.375 2.4375 C5.31327952 5.4199587 5.31327952 5.4199587 9.1640625 6.09765625 C9.97617188 6.08605469 10.78828125 6.07445312 11.625 6.0625 C12.44226563 6.05347656 13.25953125 6.04445312 14.1015625 6.03515625 C14.72804687 6.02355469 15.35453125 6.01195312 16 6 C16 6.66 16 7.32 16 8 C10.21408489 8.10477512 4.70690634 7.99250545 -1 7 C-0.67 4.69 -0.34 2.38 0 0 Z " fill="#E4B94B" transform="translate(153,228)"/>
<path d="M0 0 C0 2 0 2 -2.25 4.4375 C-6.80821918 8.68493151 -6.80821918 8.68493151 -9 10 C-9.99 9.67 -10.98 9.34 -12 9 C-10.38050958 7.49405319 -8.75424026 5.99539332 -7.125 4.5 C-6.22007813 3.6646875 -5.31515625 2.829375 -4.3828125 1.96875 C-2 0 -2 0 0 0 Z " fill="#355D7C" transform="translate(23,70)"/>
<path d="M0 0 C0.33 0 0.66 0 1 0 C1.38281159 5.23175837 0.21854707 8.37802694 -2 13 C-2.66 13 -3.32 13 -4 13 C-4.33 14.32 -4.66 15.64 -5 17 C-5.66 17 -6.32 17 -7 17 C-5.56229049 13.16610796 -3.80169455 9.58436131 -1.90234375 5.96484375 C-0.99577093 3.99079124 -0.45775052 2.11886583 0 0 Z " fill="#E2B549" transform="translate(196,100)"/>
<path d="M0 0 C0.33 0.66 0.66 1.32 1 2 C2.32 1.67 3.64 1.34 5 1 C3.9024777 3.99324263 3.32317108 4.84610901 0.375 6.25 C-0.40875 6.4975 -1.1925 6.745 -2 7 C-2.125 4.625 -2.125 4.625 -2 2 C-1.34 1.34 -0.68 0.68 0 0 Z " fill="#EFBE40" transform="translate(236,179)"/>
<path d="M0 0 C5.85272256 0.45020943 10.08220119 3.03839227 15 6 C14.34 6.66 13.68 7.32 13 8 C12.525625 7.5875 12.05125 7.175 11.5625 6.75 C7.94876135 4.28208092 4.02265674 2.69329781 0 1 C0 0.67 0 0.34 0 0 Z " fill="#386078" transform="translate(160,3)"/>
<path d="M0 0 C0.33 1.65 0.66 3.3 1 5 C-1.97 4.01 -4.94 3.02 -8 2 C-8 1.67 -8 1.34 -8 1 C-5.23735711 0.40267181 -2.83967231 0 0 0 Z " fill="#EAB846" transform="translate(95,246)"/>
<path d="M0 0 C0.33 0.66 0.66 1.32 1 2 C2.32 1.67 3.64 1.34 5 1 C4.67 3.31 4.34 5.62 4 8 C2 6.8125 2 6.8125 0 5 C-0.25 2.3125 -0.25 2.3125 0 0 Z " fill="#EBBB42" transform="translate(248,152)"/>
<path d="M0 0 C2.31 1.98 4.62 3.96 7 6 C4 6 4 6 1 4 C1 4.66 1 5.32 1 6 C0.01 5.67 -0.98 5.34 -2 5 C-2 4.34 -2 3.68 -2 3 C-1.34 3 -0.68 3 0 3 C0 2.01 0 1.02 0 0 Z " fill="#355F84" transform="translate(175,10)"/>
<path d="M0 0 C2 4 2 4 2 6 C1.34 6 0.68 6 0 6 C-0.33 7.65 -0.66 9.3 -1 11 C-2.32 10.67 -3.64 10.34 -5 10 C-4.34 10 -3.68 10 -3 10 C-2.01 6.7 -1.02 3.4 0 0 Z " fill="#3C627A" transform="translate(103,29)"/>
<path d="M0 0 C0.66 0 1.32 0 2 0 C0.90931332 3.77545388 0.0916909 6.47043472 -3 9 C-3.125 4.25 -3.125 4.25 -2 2 C-1.34 2 -0.68 2 0 2 C0 1.34 0 0.68 0 0 Z " fill="#ECBA45" transform="translate(245,170)"/>
<path d="M0 0 C2.37948772 0.17625835 3.70225849 0.69719773 5.37890625 2.40234375 C6.62115486 3.90649092 7.81376056 5.45129851 9 7 C8.67 7.66 8.34 8.32 8 9 C6.66368764 7.6905332 5.33102075 6.37734515 4 5.0625 C3.2575 4.33160156 2.515 3.60070312 1.75 2.84765625 C0 1 0 1 0 0 Z " fill="#385E7C" transform="translate(11,176)"/>
<path d="M0 0 C-0.66 1.32 -1.32 2.64 -2 4 C-4.64 3.34 -7.28 2.68 -10 2 C-10 1.67 -10 1.34 -10 1 C-6.56484998 0.37542727 -3.50935186 0 0 0 Z " fill="#345C79" transform="translate(102,1)"/>
<path d="M0 0 C0.99 0 1.98 0 3 0 C1.63016497 3.16115776 1.0109362 3.9927092 -2 6 C-2 5.34 -2 4.68 -2 4 C-2.66 3.67 -3.32 3.34 -4 3 C-3.34 2.67 -2.68 2.34 -2 2 C-1.34 2.33 -0.68 2.66 0 3 C0 2.01 0 1.02 0 0 Z " fill="#E8BB47" transform="translate(182,236)"/>
<path d="M0 0 C2.12508244 3.18762365 2.5020163 5.26512223 3 9 C2.01 8.67 1.02 8.34 0 8 C0 5.36 0 2.72 0 0 Z " fill="#ECBB40" transform="translate(249,88)"/>
<path d="" fill="#000000" transform="translate(0,0)"/>
<path d="" fill="#000000" transform="translate(0,0)"/>
</svg>
